M48
;FILE_FORMAT=2:4
INCH,LZ
FMAT,2
ICI,OFF
;TYPE=PLATED
T1C.00984
T2C.01575
T3C.0315
T4C.03937
T5C.047
T8C.12598
;TYPE=NON_PLATED
T6C.1
T7C.10827
%
M72
G90
G93X0Y0
T1C.00984F0S0
X002441Y000276
X000945Y005197
X002205Y005197
X000354Y00752
X000394Y008543
X001772Y009016
X001772Y009528
X000354Y012008
X000354Y013976
X001772Y014961
X001811Y017402
X000354Y018425
X000354Y021142
X001732Y022165
X001732Y02315
X001732Y024134
X000354Y02563
X005236Y031181
X002913Y026063
X004685Y025354
X004252Y024646
X00437Y022638
X003189Y017283
X004528Y017283
X00315Y016614
X004528Y016614
X00311Y015945
X004488Y015906
X00315Y015197
X004528Y015157
X003701Y013346
X004606Y011535
X004803Y010866
X004606Y009567
X003701Y007795
X006417Y010866
X006732Y029803
X007205Y029803
X009173Y029843
X009685Y029843
X008307Y03
X00622Y031181
X02126Y03122
X022244Y03122
X010669Y031181
X02126Y027244
X021969Y027205
X01248Y00126
X027087Y001181
X026693Y001772
X026693Y003031
X026732Y005
X027717Y017283
X027441Y018386
X027165Y021811
X027165Y022126
X024724Y03122
X026417Y03122
X027402Y03122
X028386Y029764
X027913Y029764
X029882Y029764
X028858Y027362
X028504Y026575
X029606Y025236
X027992Y023031
X027992Y016929
X029882Y007638
X028307Y006063
X028307Y004724
X028307Y002835
X028307Y001654
X031969Y019606
X034685Y019606
X031772Y022874
X032205Y023543
X030433Y025669
X030354Y029764
X03185Y03122
X042047Y03122
X043031Y03122
X043535Y029783
X036874Y019925
X044528Y002913
X044055Y002913
X045039Y002795
X043543Y001654
X043071Y001654
X041575Y000276
X047008Y000276
X046024Y000276
X045512Y002795
X048402Y015228
X048693Y015228
X04898Y015236
X046268Y021035
X046268Y021398
X046268Y021756
X045433Y027362
X047283Y027559
X045512Y03122
T2C.01575F095S3
X0325Y026
X032Y026
X0315Y026
X0315Y0265
X0325Y0265
X032Y0265
X0325Y027
X0315Y027
X032Y027
X031Y027
X0315Y0275
X0325Y0275
X032Y0275
X031Y0275
X032Y028
X0325Y028
X0315Y028
X032Y0285
X0325Y0285
X0325Y029
X0345Y0305
X0335Y0305
X035Y0305
X034Y0305
X033Y0305
X035Y03
X0345Y03
X033Y03
X0335Y03
X034Y03
X035Y0295
X0345Y0295
X033Y0295
X0335Y0295
X034Y0295
X035Y029
X0345Y029
X033Y029
X0335Y029
X034Y029
X035Y0285
X0345Y0285
X033Y0285
X0335Y0285
X034Y0285
X0345Y028
X035Y028
X033Y028
X0335Y028
X034Y028
X035Y0275
X0345Y0275
X033Y0275
X0335Y0275
X034Y0275
X035Y027
X0345Y027
X033Y027
X0335Y027
X034Y027
X035Y0265
X0345Y0265
X033Y0265
X0335Y0265
X034Y0265
X035Y026
X0345Y026
X033Y026
X0335Y026
X034Y026
X0335Y0255
X0345Y0255
X034Y0255
X035Y0255
X033Y0255
X035Y025
X0345Y025
X033Y025
X0335Y025
X034Y025
X033Y0245
X035Y0245
X034Y0245
X0345Y0245
X0335Y0245
X035Y024
X034Y024
X0335Y024
X0345Y024
X033Y024
X0345Y0235
X0335Y0235
X034Y0235
X033Y0235
X035Y0235
X034Y023
X0345Y023
X0335Y023
X033Y023
X035Y023
X0335Y0225
X0345Y0225
X033Y0225
X035Y0225
X034Y0225
X0375Y021
X037Y021
X037Y0215
X0375Y0215
X037Y022
X0375Y022
X0375Y0225
X037Y0225
X0355Y0225
X036Y0225
X0365Y0225
X0375Y023
X037Y023
X036Y023
X0355Y023
X0365Y023
X0375Y0235
X0355Y0235
X036Y0235
X0365Y0235
X037Y0235
X0355Y024
X036Y024
X0365Y024
X0375Y024
X037Y024
X0355Y0245
X036Y0245
X0365Y0245
X037Y0245
X0375Y0245
X0365Y025
X036Y025
X037Y025
X0375Y025
X0355Y025
X037Y0255
X036Y0255
X0375Y0255
X0365Y0255
X0355Y0255
X037Y026
X036Y026
X0375Y026
X0365Y026
X0355Y026
X037Y0265
X036Y0265
X0375Y0265
X0365Y0265
X0355Y0265
X0355Y027
X037Y027
X036Y027
X0375Y027
X0365Y027
X0355Y0275
X037Y0275
X036Y0275
X0375Y0275
X0365Y0275
X0355Y028
X037Y028
X036Y028
X0375Y028
X0365Y028
X037Y0285
X036Y0285
X0355Y0285
X0375Y0285
X0365Y0285
X037Y029
X036Y029
X0375Y029
X0355Y029
X0365Y029
X0355Y0295
X0375Y0295
X037Y0295
X0365Y0295
X036Y0295
X0355Y03
X0365Y03
X036Y03
X037Y03
X0375Y03
X0365Y0305
X0375Y0305
X0355Y0305
X036Y0305
X037Y0305
X038Y0305
X0385Y0305
X0395Y0305
X04Y0305
X039Y0305
X038Y03
X0395Y03
X0385Y03
X04Y03
X039Y03
X039Y0295
X0385Y0295
X04Y0295
X038Y0295
X0395Y0295
X04Y029
X039Y029
X038Y029
X0385Y029
X0395Y029
X0385Y0285
X04Y0285
X039Y0285
X0395Y0285
X038Y0285
X0395Y028
X04Y028
X038Y028
X039Y028
X0385Y028
X039Y0275
X0385Y0275
X0395Y0275
X038Y0275
X04Y0275
X038Y027
X0395Y027
X0385Y027
X04Y027
X039Y027
X038Y0265
X0385Y0265
X0395Y0265
X04Y0265
X039Y0265
X038Y026
X0385Y026
X0395Y026
X04Y026
X039Y026
X038Y0255
X0385Y0255
X0395Y0255
X04Y0255
X039Y0255
X04Y025
X039Y025
X038Y025
X0395Y025
X0385Y025
X04Y0245
X039Y0245
X038Y0245
X0395Y0245
X0385Y0245
X04Y024
X039Y024
X038Y024
X0395Y024
X0385Y024
X0385Y0235
X04Y0235
X0395Y0235
X038Y0235
X039Y0235
X039Y023
X038Y023
X0395Y023
X04Y023
X0385Y023
X038Y0225
X039Y0225
X0385Y0225
X0395Y0225
X04Y0225
X04Y022
X039Y022
X0395Y022
X038Y022
X0385Y022
X0395Y0215
X038Y0215
X039Y0215
X04Y0215
X0385Y0215
X038Y021
X04Y021
X0395Y021
X039Y021
X0385Y021
X0395Y0205
X04Y0205
X0395Y02
X0405Y021
X0405Y0215
X041Y0215
X041Y022
X0415Y022
X0405Y022
X0405Y0225
X0415Y0225
X041Y0225
X042Y0225
X0405Y023
X0415Y023
X041Y023
X042Y023
X041Y0235
X0415Y0235
X042Y0235
X0405Y0235
X0415Y024
X0405Y024
X042Y024
X041Y024
X0405Y0245
X042Y0245
X041Y0245
X0415Y0245
X0415Y025
X041Y025
X042Y025
X0405Y025
X0405Y0255
X0415Y0255
X041Y0255
X042Y0255
X041Y026
X0415Y026
X0405Y026
X042Y026
X042Y0265
X0415Y0265
X0405Y0265
X041Y0265
X0405Y027
X042Y027
X0415Y027
X041Y027
X0425Y0275
X042Y0275
X0405Y0275
X0415Y0275
X041Y0275
X042Y028
X0405Y028
X0415Y028
X041Y028
X0425Y028
X0415Y0285
X041Y0285
X042Y0285
X0425Y0285
X0405Y0285
X041Y029
X0405Y029
X041Y0295
X0405Y0295
X041Y03
X0405Y03
X0405Y0305
X041Y0305
X043Y028
T3C.0315F197S55
X035146Y004717
X035146Y010717
X037146Y010717
X036146Y010717
X043146Y010717
X044146Y010717
X037146Y004717
X043146Y004717
X044146Y004717
T4C.03937F197S55
X014252Y006272
X013252Y006272
X014252Y007272
X013252Y007272
X014252Y008272
X013252Y008272
X014252Y009272
X013252Y009272
X014252Y010272
X013252Y010272
X014252Y011272
X013252Y011272
X013252Y012272
X014252Y012272
X013252Y013272
X014252Y013272
X013252Y014272
X014252Y014272
X013252Y015272
X014252Y015272
X013252Y016272
X014252Y016272
X013252Y017272
X014252Y017272
X013252Y018272
X014252Y018272
X013252Y019272
X014252Y019272
X013252Y020272
X014252Y020272
X013252Y021272
X014252Y021272
X013252Y022272
X014252Y022272
X013252Y023272
X014252Y023272
X014252Y024272
X013252Y024272
X014252Y025272
X013252Y025272
X017883Y024323
X018883Y024323
X022283Y024323
X021283Y024323
X019583Y017323
X018583Y017323
X021583Y017323
X020583Y017323
X020713Y013228
X017713Y013228
X024685Y001071
X024685Y002071
X024685Y003071
X024685Y004071
X024685Y005071
X025472Y008933
X025472Y009933
X025472Y010933
X025472Y011933
X025472Y012933
X025472Y013933
X025472Y014933
X025472Y015933
X025472Y016933
X025472Y017933
X025472Y019496
X025472Y020496
X025472Y021496
X025472Y022496
X025472Y023496
X025472Y024496
X025472Y025496
X025472Y026496
X030819Y020709
X031819Y020709
X032819Y020709
X033819Y020709
X031119Y013709
X030119Y013709
X034519Y013709
X033519Y013709
X044488Y012488
X044488Y013488
X044488Y014488
X044488Y015488
X044488Y016488
X044488Y017488
X044488Y018488
X044488Y019488
X044488Y021496
X044488Y022496
X044488Y023496
X044488Y024496
X044488Y025496
X044488Y026496
T5C.047F139S55
X031177Y001496
X032677Y001496
X034177Y001496
X036492Y001496
X037992Y001496
X039492Y001496
X049799Y005829
X049799Y007329
X04978Y010703
X04978Y012203
X049791Y015226
X049791Y016726
X049744Y019852
X049744Y021352
X049705Y024573
X049705Y026073
T6C.1F069S658
X017083Y017323
X023083Y017323
X029319Y020709
X035319Y020709
T7C.10827F069S658
X004319Y004354
X013374Y004354
X013374Y027189
X004319Y027189
T8C.12598F035S794
X001575Y001575
X001575Y029921
X049606Y029921
X049606Y001575
M30
