*
*
G04 PADS VX.2.2 Build Number: 9893964 generated Gerber (RS-274-X) file*
G04 PC Version=2.1*
*
%IN "PCB_CTR1S_00.pcb"*%
*
%MOIN*%
*
%FSLAX35Y35*%
*
*
*
*
G04 PC Standard Apertures*
*
*
G04 Thermal Relief Aperture macro.*
%AMTER*
1,1,$1,0,0*
1,0,$1-$2,0,0*
21,0,$3,$4,0,0,45*
21,0,$3,$4,0,0,135*
%
*
*
G04 Annular Aperture macro.*
%AMANN*
1,1,$1,0,0*
1,0,$2,0,0*
%
*
*
G04 Odd Aperture macro.*
%AMODD*
1,1,$1,0,0*
1,0,$1-0.005,0,0*
%
*
*
G04 PC Custom Aperture Macros*
*
*
*
*
*
*
G04 PC Aperture Table*
*
%ADD010C,0.00394*%
%ADD014C,0.00591*%
%ADD016C,0.01*%
%ADD018R,0.035X0.024*%
%ADD020C,0.06299*%
%ADD021C,0.07874*%
%ADD023C,0.01575*%
%ADD028C,0.001*%
%ADD037C,0.01181*%
%ADD046C,0.01969*%
%ADD047C,0.02362*%
%ADD052C,0.00787*%
%ADD061C,0.07087*%
%ADD063C,0.05*%
%ADD065R,0.024X0.035*%
%ADD067C,0.00591*%
%ADD068C,0.00591*%
%ADD089C,0.19685*%
%ADD090R,0.07087X0.07087*%
%ADD091C,0.0315*%
%ADD092R,0.08583X0.09921*%
%ADD093R,0.05118X0.0315*%
%ADD094R,0.11811X0.08268*%
%ADD095R,0.06299X0.02756*%
%ADD096C,0.085*%
%ADD097R,0.0315X0.05118*%
%ADD098R,0.08268X0.11811*%
%ADD099R,0.02756X0.06299*%
%ADD100R,0.05709X0.04331*%
%ADD101R,0.076X0.16*%
%ADD102R,0.16X0.076*%
%ADD103C,0.1*%
%ADD104R,0.02362X0.05*%
%ADD105C,0.03937*%
%ADD106C,0.05906*%
*
*
*
*
G04 PC Circuitry*
G04 Layer Name PCB_CTR1S_00.pcb - circuitry*
%LPD*%
*
*
G04 PC Custom Flashes*
G04 Layer Name PCB_CTR1S_00.pcb - flashes*
%LPD*%
*
*
G04 PC Circuitry*
G04 Layer Name PCB_CTR1S_00.pcb - circuitry*
%LPD*%
*
G54D10*
G01X1749094Y1786941D02*
X1898307D01*
Y1735169*
X1946142*
Y1786941*
X2260906*
Y1471980*
X1981181*
Y1574375*
X1904803Y1574298*
Y1471980*
X1749094*
Y1786941*
X1694016Y1443965D02*
X2316063D01*
Y1365224*
X1694016*
Y1443965*
Y1396720D02*
X1745197D01*
Y1443965*
X1694016*
Y1396720*
X1745197Y1412469D02*
X1835748D01*
Y1428217*
X1745197*
Y1412469*
Y1396720D02*
X1835748D01*
Y1412469*
X1745197*
Y1396720*
X1922362D02*
X2316063D01*
Y1443965*
X1922362*
Y1396720*
Y1365224D02*
X2316063D01*
Y1396720*
X1922362*
Y1365224*
X1835748D02*
X1879055D01*
Y1396720*
X1835748*
Y1365224*
Y1428217D02*
X1922362D01*
Y1443965*
X1835748*
Y1428217*
Y1412469D02*
X1922362D01*
Y1428217*
X1835748*
Y1412469*
Y1396720D02*
X1922362D01*
Y1412469*
X1835748*
Y1396720*
G54D14*
X1749134Y1441258D02*
Y1436091D01*
Y1441258D02*
X1750744D01*
X1751281Y1441012*
X1751460Y1440766*
X1751639Y1440274*
Y1439535*
X1751460Y1439043*
X1751281Y1438797*
X1750744Y1438551*
X1749134*
X1753250Y1439535D02*
Y1436091D01*
Y1438059D02*
X1753429Y1438797D01*
X1753787Y1439289*
X1754145Y1439535*
X1754681*
X1756292Y1438059D02*
X1758440D01*
Y1438551*
X1758261Y1439043*
X1758082Y1439289*
X1757724Y1439535*
X1757187*
X1756829Y1439289*
X1756471Y1438797*
X1756292Y1438059*
Y1437567*
X1756471Y1436829*
X1756829Y1436337*
X1757187Y1436091*
X1757724*
X1758082Y1436337*
X1758440Y1436829*
X1760050Y1439535D02*
Y1434368D01*
Y1438797D02*
X1760408Y1439289D01*
X1760766Y1439535*
X1761303*
X1761661Y1439289*
X1762019Y1438797*
X1762198Y1438059*
Y1437567*
X1762019Y1436829*
X1761661Y1436337*
X1761303Y1436091*
X1760766*
X1760408Y1436337*
X1760050Y1436829*
X1765956Y1439535D02*
Y1436091D01*
Y1438797D02*
X1765598Y1439289D01*
X1765240Y1439535*
X1764703*
X1764345Y1439289*
X1763987Y1438797*
X1763808Y1438059*
Y1437567*
X1763987Y1436829*
X1764345Y1436337*
X1764703Y1436091*
X1765240*
X1765598Y1436337*
X1765956Y1436829*
X1767566Y1439535D02*
Y1436091D01*
Y1438059D02*
X1767745Y1438797D01*
X1768103Y1439289*
X1768461Y1439535*
X1768998*
X1770608Y1438059D02*
X1772756D01*
Y1438551*
X1772577Y1439043*
X1772398Y1439289*
X1772040Y1439535*
X1771503*
X1771145Y1439289*
X1770787Y1438797*
X1770608Y1438059*
Y1437567*
X1770787Y1436829*
X1771145Y1436337*
X1771503Y1436091*
X1772040*
X1772398Y1436337*
X1772756Y1436829*
X1776514Y1441258D02*
Y1436091D01*
Y1438797D02*
X1776156Y1439289D01*
X1775798Y1439535*
X1775261*
X1774903Y1439289*
X1774545Y1438797*
X1774366Y1438059*
Y1437567*
X1774545Y1436829*
X1774903Y1436337*
X1775261Y1436091*
X1775798*
X1776156Y1436337*
X1776514Y1436829*
X1778304Y1439535D02*
X1778125Y1439289D01*
X1778304Y1439043*
X1778482Y1439289*
X1778304Y1439535*
Y1436583D02*
X1778125Y1436337D01*
X1778304Y1436091*
X1778482Y1436337*
X1778304Y1436583*
X1751818Y1424280D02*
X1751639Y1424772D01*
X1751281Y1425264*
X1750923Y1425510*
X1750208*
X1749850Y1425264*
X1749492Y1424772*
X1749313Y1424280*
X1749134Y1423541*
Y1422311*
X1749313Y1421573*
X1749492Y1421081*
X1749850Y1420589*
X1750208Y1420343*
X1750923*
X1751281Y1420589*
X1751639Y1421081*
X1751818Y1421573*
X1753429Y1425510D02*
Y1420343D01*
Y1422803D02*
X1753966Y1423541D01*
X1754324Y1423787*
X1754860*
X1755218Y1423541*
X1755397Y1422803*
Y1420343*
X1757008Y1422311D02*
X1759155D01*
Y1422803*
X1758976Y1423295*
X1758797Y1423541*
X1758440Y1423787*
X1757903*
X1757545Y1423541*
X1757187Y1423049*
X1757008Y1422311*
Y1421819*
X1757187Y1421081*
X1757545Y1420589*
X1757903Y1420343*
X1758440*
X1758797Y1420589*
X1759155Y1421081*
X1762913Y1423049D02*
X1762555Y1423541D01*
X1762198Y1423787*
X1761661*
X1761303Y1423541*
X1760945Y1423049*
X1760766Y1422311*
Y1421819*
X1760945Y1421081*
X1761303Y1420589*
X1761661Y1420343*
X1762198*
X1762555Y1420589*
X1762913Y1421081*
X1764524Y1425510D02*
Y1420343D01*
X1766314Y1423787D02*
X1764524Y1421327D01*
X1765240Y1422311D02*
X1766492Y1420343D01*
X1768103Y1422311D02*
X1770251D01*
Y1422803*
X1770072Y1423295*
X1769893Y1423541*
X1769535Y1423787*
X1768998*
X1768640Y1423541*
X1768282Y1423049*
X1768103Y1422311*
Y1421819*
X1768282Y1421081*
X1768640Y1420589*
X1768998Y1420343*
X1769535*
X1769893Y1420589*
X1770251Y1421081*
X1774009Y1425510D02*
Y1420343D01*
Y1423049D02*
X1773651Y1423541D01*
X1773293Y1423787*
X1772756*
X1772398Y1423541*
X1772040Y1423049*
X1771861Y1422311*
Y1421819*
X1772040Y1421081*
X1772398Y1420589*
X1772756Y1420343*
X1773293*
X1773651Y1420589*
X1774009Y1421081*
X1775798Y1423787D02*
X1775619Y1423541D01*
X1775798Y1423295*
X1775977Y1423541*
X1775798Y1423787*
Y1420835D02*
X1775619Y1420589D01*
X1775798Y1420343*
X1775977Y1420589*
X1775798Y1420835*
X1750565Y1409762D02*
X1749134Y1404594D01*
X1750565Y1409762D02*
X1751997Y1404594D01*
X1749671Y1406317D02*
X1751460D01*
X1753608Y1408039D02*
Y1402872D01*
Y1407301D02*
X1753966Y1407793D01*
X1754324Y1408039*
X1754860*
X1755218Y1407793*
X1755576Y1407301*
X1755755Y1406563*
Y1406071*
X1755576Y1405333*
X1755218Y1404841*
X1754860Y1404594*
X1754324*
X1753966Y1404841*
X1753608Y1405333*
X1757366Y1408039D02*
Y1402872D01*
Y1407301D02*
X1757724Y1407793D01*
X1758082Y1408039*
X1758618*
X1758976Y1407793*
X1759334Y1407301*
X1759513Y1406563*
Y1406071*
X1759334Y1405333*
X1758976Y1404841*
X1758618Y1404594*
X1758082*
X1757724Y1404841*
X1757366Y1405333*
X1761124Y1408039D02*
Y1404594D01*
Y1406563D02*
X1761303Y1407301D01*
X1761661Y1407793*
X1762019Y1408039*
X1762555*
X1765061D02*
X1764703Y1407793D01*
X1764345Y1407301*
X1764166Y1406563*
Y1406071*
X1764345Y1405333*
X1764703Y1404841*
X1765061Y1404594*
X1765598*
X1765956Y1404841*
X1766314Y1405333*
X1766492Y1406071*
Y1406563*
X1766314Y1407301*
X1765956Y1407793*
X1765598Y1408039*
X1765061*
X1768103D02*
X1769177Y1404594D01*
X1770251Y1408039D02*
X1769177Y1404594D01*
X1771861Y1406563D02*
X1774009D01*
Y1407055*
X1773830Y1407547*
X1773651Y1407793*
X1773293Y1408039*
X1772756*
X1772398Y1407793*
X1772040Y1407301*
X1771861Y1406563*
Y1406071*
X1772040Y1405333*
X1772398Y1404841*
X1772756Y1404594*
X1773293*
X1773651Y1404841*
X1774009Y1405333*
X1777767Y1409762D02*
Y1404594D01*
Y1407301D02*
X1777409Y1407793D01*
X1777051Y1408039*
X1776514*
X1776156Y1407793*
X1775798Y1407301*
X1775619Y1406563*
Y1406071*
X1775798Y1405333*
X1776156Y1404841*
X1776514Y1404594*
X1777051*
X1777409Y1404841*
X1777767Y1405333*
X1779556Y1408039D02*
X1779377Y1407793D01*
X1779556Y1407547*
X1779735Y1407793*
X1779556Y1408039*
Y1405087D02*
X1779377Y1404841D01*
X1779556Y1404594*
X1779735Y1404841*
X1779556Y1405087*
X1787251Y1439634D02*
X1787072Y1440126D01*
X1786714Y1440618*
X1786356Y1440864*
X1785641*
X1785283Y1440618*
X1784925Y1440126*
X1784746Y1439634*
X1784567Y1438896*
Y1437665*
X1784746Y1436927*
X1784925Y1436435*
X1785283Y1435943*
X1785641Y1435697*
X1786356*
X1786714Y1435943*
X1787072Y1436435*
X1787251Y1436927*
X1789041Y1436189D02*
X1788862Y1435943D01*
X1789041Y1435697*
X1789220Y1435943*
X1789041Y1436189*
X1790830Y1440864D02*
Y1435697D01*
X1792978*
X1795483Y1439142D02*
X1795125Y1438896D01*
X1794767Y1438404*
X1794588Y1437665*
Y1437173*
X1794767Y1436435*
X1795125Y1435943*
X1795483Y1435697*
X1796020*
X1796378Y1435943*
X1796736Y1436435*
X1796915Y1437173*
Y1437665*
X1796736Y1438404*
X1796378Y1438896*
X1796020Y1439142*
X1795483*
X1798525D02*
Y1435697D01*
Y1437665D02*
X1798704Y1438404D01*
X1799062Y1438896*
X1799420Y1439142*
X1799957*
X1801568Y1440864D02*
X1801747Y1440618D01*
X1801926Y1440864*
X1801747Y1441110*
X1801568Y1440864*
X1801747Y1439142D02*
Y1435697D01*
X1803536Y1439142D02*
Y1435697D01*
Y1438157D02*
X1804073Y1438896D01*
X1804431Y1439142*
X1804968*
X1805326Y1438896*
X1805505Y1438157*
Y1435697*
X1807115Y1440864D02*
X1807294Y1440618D01*
X1807473Y1440864*
X1807294Y1441110*
X1807115Y1440864*
X1807294Y1439142D02*
Y1435697D01*
X1784567Y1425116D02*
Y1419949D01*
Y1425116D02*
X1785999Y1419949D01*
X1787430Y1425116D02*
X1785999Y1419949D01*
X1787430Y1425116D02*
Y1419949D01*
X1789220Y1420441D02*
X1789041Y1420195D01*
X1789220Y1419949*
X1789399Y1420195*
X1789220Y1420441*
X1791009Y1425116D02*
Y1419949D01*
Y1425116D02*
X1792441Y1419949D01*
X1793873Y1425116D02*
X1792441Y1419949D01*
X1793873Y1425116D02*
Y1419949D01*
X1797631Y1423394D02*
Y1419949D01*
Y1422656D02*
X1797273Y1423148D01*
X1796915Y1423394*
X1796378*
X1796020Y1423148*
X1795662Y1422656*
X1795483Y1421917*
Y1421425*
X1795662Y1420687*
X1796020Y1420195*
X1796378Y1419949*
X1796915*
X1797273Y1420195*
X1797631Y1420687*
X1801389Y1423394D02*
Y1419457D01*
X1801210Y1418719*
X1801031Y1418472*
X1800673Y1418226*
X1800136*
X1799778Y1418472*
X1801389Y1422656D02*
X1801031Y1423148D01*
X1800673Y1423394*
X1800136*
X1799778Y1423148*
X1799420Y1422656*
X1799241Y1421917*
Y1421425*
X1799420Y1420687*
X1799778Y1420195*
X1800136Y1419949*
X1800673*
X1801031Y1420195*
X1801389Y1420687*
X1805147Y1423394D02*
Y1419457D01*
X1804968Y1418719*
X1804789Y1418472*
X1804431Y1418226*
X1803894*
X1803536Y1418472*
X1805147Y1422656D02*
X1804789Y1423148D01*
X1804431Y1423394*
X1803894*
X1803536Y1423148*
X1803178Y1422656*
X1802999Y1421917*
Y1421425*
X1803178Y1420687*
X1803536Y1420195*
X1803894Y1419949*
X1804431*
X1804789Y1420195*
X1805147Y1420687*
X1806757Y1425116D02*
X1806936Y1424870D01*
X1807115Y1425116*
X1806936Y1425362*
X1806757Y1425116*
X1806936Y1423394D02*
Y1419949D01*
X1810873Y1423394D02*
Y1419949D01*
Y1422656D02*
X1810515Y1423148D01*
X1810157Y1423394*
X1809621*
X1809263Y1423148*
X1808905Y1422656*
X1808726Y1421917*
Y1421425*
X1808905Y1420687*
X1809263Y1420195*
X1809621Y1419949*
X1810157*
X1810515Y1420195*
X1810873Y1420687*
X1812484Y1425116D02*
Y1419949D01*
X1814094Y1425116D02*
X1814273Y1424870D01*
X1814452Y1425116*
X1814273Y1425362*
X1814094Y1425116*
X1814273Y1423394D02*
Y1419949D01*
X1926299Y1441258D02*
Y1436091D01*
X1928447*
X1932205Y1439535D02*
Y1436091D01*
Y1438797D02*
X1931847Y1439289D01*
X1931489Y1439535*
X1930952*
X1930594Y1439289*
X1930236Y1438797*
X1930057Y1438059*
Y1437567*
X1930236Y1436829*
X1930594Y1436337*
X1930952Y1436091*
X1931489*
X1931847Y1436337*
X1932205Y1436829*
X1933994Y1439535D02*
X1935068Y1436091D01*
X1936142Y1439535D02*
X1935068Y1436091D01*
X1934710Y1435106*
X1934352Y1434614*
X1933994Y1434368*
X1933815*
X1937752Y1438059D02*
X1939900D01*
Y1438551*
X1939721Y1439043*
X1939542Y1439289*
X1939184Y1439535*
X1938647*
X1938289Y1439289*
X1937931Y1438797*
X1937752Y1438059*
Y1437567*
X1937931Y1436829*
X1938289Y1436337*
X1938647Y1436091*
X1939184*
X1939542Y1436337*
X1939900Y1436829*
X1941510Y1439535D02*
Y1436091D01*
Y1438059D02*
X1941689Y1438797D01*
X1942047Y1439289*
X1942405Y1439535*
X1942942*
X1944732D02*
X1944553Y1439289D01*
X1944732Y1439043*
X1944911Y1439289*
X1944732Y1439535*
Y1436583D02*
X1944553Y1436337D01*
X1944732Y1436091*
X1944911Y1436337*
X1944732Y1436583*
X1701929Y1391463D02*
Y1386295D01*
Y1391463D02*
X1703540D01*
X1704077Y1391217*
X1704256Y1390970*
X1704434Y1390478*
X1704434D02*
Y1389986D01*
X1704434D02*
X1704256Y1389494D01*
X1704077Y1389248*
X1703540Y1389002*
X1701929D02*
X1703540D01*
X1704077Y1388756*
X1704256Y1388510*
X1704434Y1388018*
X1704434D02*
Y1387280D01*
X1704434D02*
X1704256Y1386787D01*
X1704077Y1386541*
X1703540Y1386295*
X1701929*
X1706940Y1389740D02*
X1706582Y1389494D01*
X1706224Y1389002*
X1706045Y1388264*
Y1387772*
X1706224Y1387033*
X1706582Y1386541*
X1706940Y1386295*
X1707477*
X1707835Y1386541*
X1708193Y1387033*
X1708372Y1387772*
Y1388264*
X1708193Y1389002*
X1707835Y1389494*
X1707477Y1389740*
X1706940*
X1712130D02*
Y1386295D01*
Y1389002D02*
X1711772Y1389494D01*
X1711414Y1389740*
X1710877*
X1710519Y1389494*
X1710161Y1389002*
X1709982Y1388264*
Y1387772*
X1710161Y1387033*
X1710519Y1386541*
X1710877Y1386295*
X1711414*
X1711772Y1386541*
X1712130Y1387033*
X1713740Y1389740D02*
Y1386295D01*
Y1388264D02*
X1713919Y1389002D01*
X1714277Y1389494*
X1714635Y1389740*
X1715172*
X1718930Y1391463D02*
Y1386295D01*
Y1389002D02*
X1718572Y1389494D01*
X1718214Y1389740*
X1717677*
X1717319Y1389494*
X1716961Y1389002*
X1716782Y1388264*
Y1387772*
X1716961Y1387033*
X1717319Y1386541*
X1717677Y1386295*
X1718214*
X1718572Y1386541*
X1718930Y1387033*
X1724656Y1389740D02*
Y1386295D01*
Y1388756D02*
X1725193Y1389494D01*
X1725551Y1389740*
X1726088*
X1726446Y1389494*
X1726625Y1388756*
Y1386295*
X1730383Y1389740D02*
Y1386295D01*
Y1389002D02*
X1730025Y1389494D01*
X1729667Y1389740*
X1729130*
X1728772Y1389494*
X1728414Y1389002*
X1728236Y1388264*
X1728236D02*
Y1387772D01*
X1728236D02*
X1728414Y1387033D01*
X1728772Y1386541*
X1729130Y1386295*
X1729667*
X1730025Y1386541*
X1730383Y1387033*
X1731994Y1389740D02*
Y1386295D01*
Y1388756D02*
X1732530Y1389494D01*
X1732888Y1389740*
X1733425*
X1733783Y1389494*
X1733962Y1388756*
Y1386295*
Y1388756D02*
X1734499Y1389494D01*
X1734857Y1389740*
X1735394*
X1735752Y1389494*
X1735931Y1388756*
Y1386295*
X1737541Y1388264D02*
X1739689D01*
Y1388756*
X1739510Y1389248*
X1739331Y1389494*
X1738973Y1389740*
X1738436*
X1738078Y1389494*
X1737720Y1389002*
X1737541Y1388264*
Y1387772*
X1737720Y1387033*
X1738078Y1386541*
X1738436Y1386295*
X1738973*
X1739331Y1386541*
X1739689Y1387033*
X1741478Y1389740D02*
X1741299Y1389494D01*
X1741478Y1389248*
X1741657Y1389494*
X1741478Y1389740*
Y1386787D02*
X1741299Y1386541D01*
X1741478Y1386295*
X1741657Y1386541*
X1741478Y1386787*
X1846306Y1392783D02*
X1846127Y1393276D01*
X1845770Y1393768*
X1845412Y1394014*
X1844696*
X1844338Y1393768*
X1843980Y1393276*
X1843801Y1392783*
X1843622Y1392045*
Y1390815*
X1843801Y1390077*
X1843980Y1389585*
X1844338Y1389093*
X1844696Y1388846*
X1845412*
X1845770Y1389093*
X1846127Y1389585*
X1846306Y1390077*
X1848812Y1392291D02*
X1848454Y1392045D01*
X1848096Y1391553*
X1847917Y1390815*
Y1390323*
X1848096Y1389585*
X1848454Y1389093*
X1848812Y1388846*
X1849349*
X1849707Y1389093*
X1850064Y1389585*
X1850243Y1390323*
Y1390815*
X1850064Y1391553*
X1849707Y1392045*
X1849349Y1392291*
X1848812*
X1854001Y1394014D02*
Y1388846D01*
Y1391553D02*
X1853644Y1392045D01*
X1853286Y1392291*
X1852749*
X1852391Y1392045*
X1852033Y1391553*
X1851854Y1390815*
Y1390323*
X1852033Y1389585*
X1852391Y1389093*
X1852749Y1388846*
X1853286*
X1853644Y1389093*
X1854001Y1389585*
X1855612Y1390815D02*
X1857759D01*
Y1391307*
X1857581Y1391799*
X1857402Y1392045*
X1857044Y1392291*
X1856507*
X1856149Y1392045*
X1855791Y1391553*
X1855612Y1390815*
Y1390323*
X1855791Y1389585*
X1856149Y1389093*
X1856507Y1388846*
X1857044*
X1857402Y1389093*
X1857759Y1389585*
X1859549Y1392291D02*
X1859370Y1392045D01*
X1859549Y1391799*
X1859728Y1392045*
X1859549Y1392291*
Y1389339D02*
X1859370Y1389093D01*
X1859549Y1388846*
X1859728Y1389093*
X1859549Y1389339*
X1882992Y1394014D02*
Y1388846D01*
Y1394014D02*
X1884603D01*
X1885140Y1393768*
X1885319Y1393522*
X1885497Y1393030*
Y1392537*
X1885319Y1392045*
X1885140Y1391799*
X1884603Y1391553*
X1882992*
X1884245D02*
X1885497Y1388846D01*
X1887108Y1390815D02*
X1889256D01*
Y1391307*
X1889077Y1391799*
X1888898Y1392045*
X1888540Y1392291*
X1888003*
X1887645Y1392045*
X1887287Y1391553*
X1887108Y1390815*
Y1390323*
X1887287Y1389585*
X1887645Y1389093*
X1888003Y1388846*
X1888540*
X1888898Y1389093*
X1889256Y1389585*
X1890866Y1392291D02*
X1891940Y1388846D01*
X1893014Y1392291D02*
X1891940Y1388846D01*
X1894803Y1392291D02*
X1894624Y1392045D01*
X1894803Y1391799*
X1894982Y1392045*
X1894803Y1392291*
Y1389339D02*
X1894624Y1389093D01*
X1894803Y1388846*
X1894982Y1389093*
X1894803Y1389339*
X1928805Y1393276D02*
X1928447Y1393768D01*
X1927910Y1394014*
X1927194*
X1926657Y1393768*
X1926299Y1393276*
Y1392783*
X1926478Y1392291*
X1926657Y1392045*
X1927015Y1391799*
X1928089Y1391307*
X1928447Y1391061*
X1928626Y1390815*
X1928805Y1390323*
Y1389585*
X1928447Y1389093*
X1927910Y1388846*
X1927194*
X1926657Y1389093*
X1926299Y1389585*
X1930415Y1392291D02*
Y1387124D01*
Y1391553D02*
X1930773Y1392045D01*
X1931131Y1392291*
X1931668*
X1932026Y1392045*
X1932384Y1391553*
X1932563Y1390815*
Y1390323*
X1932384Y1389585*
X1932026Y1389093*
X1931668Y1388846*
X1931131*
X1930773Y1389093*
X1930415Y1389585*
X1934173Y1390815D02*
X1936321D01*
Y1391307*
X1936142Y1391799*
X1935963Y1392045*
X1935605Y1392291*
X1935068*
X1934710Y1392045*
X1934352Y1391553*
X1934173Y1390815*
Y1390323*
X1934352Y1389585*
X1934710Y1389093*
X1935068Y1388846*
X1935605*
X1935963Y1389093*
X1936321Y1389585*
X1940079Y1391553D02*
X1939721Y1392045D01*
X1939363Y1392291*
X1938826*
X1938468Y1392045*
X1938110Y1391553*
X1937931Y1390815*
Y1390323*
X1938110Y1389585*
X1938468Y1389093*
X1938826Y1388846*
X1939363*
X1939721Y1389093*
X1940079Y1389585*
X1941868Y1392291D02*
X1941689Y1392045D01*
X1941868Y1391799*
X1942047Y1392045*
X1941868Y1392291*
Y1389339D02*
X1941689Y1389093D01*
X1941868Y1388846*
X1942047Y1389093*
X1941868Y1389339*
X1839685Y1441258D02*
Y1436091D01*
Y1441258D02*
X1840938D01*
X1841475Y1441012*
X1841832Y1440520*
X1842011Y1440028*
X1842190Y1439289*
Y1438059*
X1842011Y1437321*
X1841832Y1436829*
X1841475Y1436337*
X1840938Y1436091*
X1839685*
X1845948Y1439535D02*
Y1436091D01*
Y1438797D02*
X1845591Y1439289D01*
X1845233Y1439535*
X1844696*
X1844338Y1439289*
X1843980Y1438797*
X1843801Y1438059*
Y1437567*
X1843980Y1436829*
X1844338Y1436337*
X1844696Y1436091*
X1845233*
X1845591Y1436337*
X1845948Y1436829*
X1848096Y1441258D02*
Y1437075D01*
X1848275Y1436337*
X1848633Y1436091*
X1848991*
X1847559Y1439535D02*
X1848812D01*
X1850601Y1438059D02*
X1852749D01*
Y1438551*
X1852570Y1439043*
X1852391Y1439289*
X1852033Y1439535*
X1851496*
X1851138Y1439289*
X1850780Y1438797*
X1850601Y1438059*
Y1437567*
X1850780Y1436829*
X1851138Y1436337*
X1851496Y1436091*
X1852033*
X1852391Y1436337*
X1852749Y1436829*
X1854538Y1439535D02*
X1854359Y1439289D01*
X1854538Y1439043*
X1854717Y1439289*
X1854538Y1439535*
Y1436583D02*
X1854359Y1436337D01*
X1854538Y1436091*
X1854717Y1436337*
X1854538Y1436583*
X1839685Y1425510D02*
Y1420343D01*
Y1425510D02*
X1840938D01*
X1841475Y1425264*
X1841832Y1424772*
X1842011Y1424280*
X1842190Y1423541*
Y1422311*
X1842011Y1421573*
X1841832Y1421081*
X1841475Y1420589*
X1840938Y1420343*
X1839685*
X1845948Y1423787D02*
Y1420343D01*
Y1423049D02*
X1845591Y1423541D01*
X1845233Y1423787*
X1844696*
X1844338Y1423541*
X1843980Y1423049*
X1843801Y1422311*
Y1421819*
X1843980Y1421081*
X1844338Y1420589*
X1844696Y1420343*
X1845233*
X1845591Y1420589*
X1845948Y1421081*
X1848096Y1425510D02*
Y1421327D01*
X1848275Y1420589*
X1848633Y1420343*
X1848991*
X1847559Y1423787D02*
X1848812D01*
X1850601Y1422311D02*
X1852749D01*
Y1422803*
X1852570Y1423295*
X1852391Y1423541*
X1852033Y1423787*
X1851496*
X1851138Y1423541*
X1850780Y1423049*
X1850601Y1422311*
Y1421819*
X1850780Y1421081*
X1851138Y1420589*
X1851496Y1420343*
X1852033*
X1852391Y1420589*
X1852749Y1421081*
X1854538Y1423787D02*
X1854359Y1423541D01*
X1854538Y1423295*
X1854717Y1423541*
X1854538Y1423787*
Y1420835D02*
X1854359Y1420589D01*
X1854538Y1420343*
X1854717Y1420589*
X1854538Y1420835*
X1839685Y1409762D02*
Y1404594D01*
Y1409762D02*
X1840938D01*
X1841475Y1409516*
X1841832Y1409024*
X1842011Y1408532*
X1842011D02*
X1842190Y1407793D01*
Y1406563*
X1842011Y1405825*
X1841832Y1405333*
X1841475Y1404841*
X1840938Y1404594*
X1839685*
X1845948Y1408039D02*
Y1404594D01*
Y1407301D02*
X1845591Y1407793D01*
X1845233Y1408039*
X1844696*
X1844338Y1407793*
X1843980Y1407301*
X1843801Y1406563*
Y1406071*
X1843980Y1405333*
X1844338Y1404841*
X1844696Y1404594*
X1845233*
X1845591Y1404841*
X1845948Y1405333*
X1848096Y1409762D02*
Y1405579D01*
X1848275Y1404841*
X1848633Y1404594*
X1848991*
X1847559Y1408039D02*
X1848812D01*
X1850601Y1406563D02*
X1852749D01*
Y1407055*
X1852570Y1407547*
X1852391Y1407793*
X1852033Y1408039*
X1851496*
X1851138Y1407793*
X1850780Y1407301*
X1850601Y1406563*
Y1406071*
X1850780Y1405333*
X1851138Y1404841*
X1851496Y1404594*
X1852033*
X1852391Y1404841*
X1852749Y1405333*
X1854538Y1408039D02*
X1854359Y1407793D01*
X1854538Y1407547*
X1854717Y1407793*
X1854538Y1408039*
Y1405087D02*
X1854359Y1404841D01*
X1854538Y1404594*
X1854717Y1404841*
X1854538Y1405087*
G54D16*
X1968053Y1440551D02*
X1970553D01*
X1969189Y1438051*
X1969871*
X1970326Y1437738*
X1970553Y1437426*
X1970780Y1436488*
Y1435863*
X1970553Y1434926*
X1970098Y1434301*
X1969417Y1433988*
X1968735*
X1968053Y1434301*
X1967826Y1434613*
X1967598Y1435238*
X1978053Y1436801D02*
X1982144D01*
X1992826Y1438988D02*
X1992598Y1439613D01*
X1992144Y1440238*
X1991689Y1440551*
X1990780*
X1990326Y1440238*
X1989871Y1439613*
X1989644Y1438988*
X1989417Y1438051*
Y1436488*
X1989644Y1435551*
X1989871Y1434926*
X1990326Y1434301*
X1990780Y1433988*
X1991689*
X1992144Y1434301*
X1992598Y1434926*
X1992826Y1435551*
X1996008Y1438363D02*
X1995553Y1438051D01*
X1995098Y1437426*
X1994871Y1436488*
Y1435863*
X1995098Y1434926*
X1995553Y1434301*
X1996008Y1433988*
X1996689*
X1997144Y1434301*
X1997598Y1434926*
X1997826Y1435863*
Y1436488*
X1997598Y1437426*
X1997144Y1438051*
X1996689Y1438363*
X1996008*
X1999871D02*
Y1431801D01*
Y1437426D02*
X2000326Y1438051D01*
X2000780Y1438363*
X2001462*
X2001917Y1438051*
X2002371Y1437426*
X2002598Y1436488*
Y1435863*
X2002371Y1434926*
X2001917Y1434301*
X2001462Y1433988*
X2000780*
X2000326Y1434301*
X1999871Y1434926*
X2004644Y1438363D02*
Y1431801D01*
Y1437426D02*
X2005098Y1438051D01*
X2005553Y1438363*
X2006235*
X2006689Y1438051*
X2007144Y1437426*
X2007371Y1436488*
Y1435863*
X2007144Y1434926*
X2006689Y1434301*
X2006235Y1433988*
X2005553*
X2005098Y1434301*
X2004644Y1434926*
X2009417Y1436488D02*
X2012144D01*
Y1437113*
X2011917Y1437738*
X2011689Y1438051*
X2011235Y1438363*
X2010553*
X2010098Y1438051*
X2009644Y1437426*
X2009417Y1436488*
Y1435863*
X2009644Y1434926*
X2010098Y1434301*
X2010553Y1433988*
X2011235*
X2011689Y1434301*
X2012144Y1434926*
X2014189Y1438363D02*
Y1433988D01*
Y1436488D02*
X2014417Y1437426D01*
X2014871Y1438051*
X2015326Y1438363*
X2016008*
X2024871Y1440551D02*
Y1433988D01*
X2023280Y1440551D02*
X2026462D01*
X2029871D02*
X2029417Y1440238D01*
X2028962Y1439613*
X2028735Y1438988*
X2028508Y1438051*
Y1436488*
X2028735Y1435551*
X2028962Y1434926*
X2029417Y1434301*
X2029871Y1433988*
X2030780*
X2031235Y1434301*
X2031689Y1434926*
X2031917Y1435551*
X2032144Y1436488*
Y1438051*
X2031917Y1438988*
X2031689Y1439613*
X2031235Y1440238*
X2030780Y1440551*
X2029871*
X2034189D02*
Y1433988D01*
Y1440551D02*
X2036235D01*
X2036917Y1440238*
X2037144Y1439926*
X2037371Y1439301*
Y1438363*
X2037144Y1437738*
X2036917Y1437426*
X2036235Y1437113*
X2034189*
X1933015Y1380130D02*
X1932788Y1380755D01*
X1932334Y1381380*
X1931879Y1381692*
X1930970*
X1930515Y1381380*
X1930061Y1380755*
X1929834Y1380130*
X1929606Y1379192*
Y1377630*
X1929834Y1376692*
X1930061Y1376067*
X1930515Y1375442*
X1930970Y1375130*
X1931879*
X1932334Y1375442*
X1932788Y1376067*
X1933015Y1376692*
X1936652Y1381692D02*
Y1375130D01*
X1935061Y1381692D02*
X1938243D01*
X1940288D02*
Y1375130D01*
Y1381692D02*
X1942334D01*
X1943015Y1381380*
X1943243Y1381067*
X1943470Y1380442*
Y1379817*
X1943243Y1379192*
X1943015Y1378880*
X1942334Y1378567*
X1940288*
X1941879D02*
X1943470Y1375130D01*
X1945515Y1380442D02*
X1945970Y1380755D01*
X1946652Y1381692*
Y1375130*
X1951879Y1380755D02*
X1951424Y1381380D01*
X1950743Y1381692*
X1949834*
X1949152Y1381380*
X1948697Y1380755*
Y1380130*
X1948924Y1379505*
X1949152Y1379192*
X1949606Y1378880*
X1950970Y1378255*
X1951424Y1377942*
X1951652Y1377630*
X1951879Y1377005*
Y1376067*
X1951424Y1375442*
X1950743Y1375130*
X1949834*
X1949152Y1375442*
X1948697Y1376067*
X1959152Y1377942D02*
X1963243D01*
X1970515Y1381692D02*
Y1375130D01*
Y1381692D02*
X1972561D01*
X1973243Y1381380*
X1973470Y1381067*
X1973697Y1380442*
Y1379817*
X1973470Y1379192*
X1973243Y1378880*
X1972561Y1378567*
X1970515D02*
X1972561D01*
X1973243Y1378255*
X1973470Y1377942*
X1973697Y1377317*
Y1376380*
X1973470Y1375755*
X1973243Y1375442*
X1972561Y1375130*
X1970515*
X1977106Y1381692D02*
X1976652Y1381380D01*
X1976197Y1380755*
X1975970Y1380130*
X1975743Y1379192*
Y1377630*
X1975970Y1376692*
X1976197Y1376067*
X1976652Y1375442*
X1977106Y1375130*
X1978015*
X1978470Y1375442*
X1978924Y1376067*
X1979152Y1376692*
X1979379Y1377630*
Y1379192*
X1979152Y1380130*
X1978924Y1380755*
X1978470Y1381380*
X1978015Y1381692*
X1977106*
X1983243D02*
X1981424Y1375130D01*
X1983243Y1381692D02*
X1985061Y1375130D01*
X1982106Y1377317D02*
X1984379D01*
X1987106Y1381692D02*
Y1375130D01*
Y1381692D02*
X1989152D01*
X1989834Y1381380*
X1990061Y1381067*
X1990288Y1380442*
Y1379817*
X1990061Y1379192*
X1989834Y1378880*
X1989152Y1378567*
X1987106*
X1988697D02*
X1990288Y1375130D01*
X1992334Y1381692D02*
Y1375130D01*
Y1381692D02*
X1993924D01*
X1994606Y1381380*
X1995061Y1380755*
X1995288Y1380130*
X1995515Y1379192*
Y1377630*
X1995288Y1376692*
X1995061Y1376067*
X1994606Y1375442*
X1993924Y1375130*
X1992334*
X2004379Y1381692D02*
Y1375130D01*
X2002788Y1381692D02*
X2005970D01*
X2008015D02*
Y1375130D01*
X2011197Y1381692D02*
Y1375130D01*
X2008015Y1378567D02*
X2011197D01*
X2013243Y1381692D02*
Y1375130D01*
X2018697Y1380130D02*
X2018470Y1380755D01*
X2018015Y1381380*
X2017561Y1381692*
X2016652*
X2016197Y1381380*
X2015743Y1380755*
X2015515Y1380130*
X2015288Y1379192*
Y1377630*
X2015515Y1376692*
X2015743Y1376067*
X2016197Y1375442*
X2016652Y1375130*
X2017561*
X2018015Y1375442*
X2018470Y1376067*
X2018697Y1376692*
X2020743Y1381692D02*
Y1375130D01*
X2023924Y1381692D02*
X2020743Y1377317D01*
X2021879Y1378880D02*
X2023924Y1375130D01*
X2025970Y1381692D02*
Y1375130D01*
Y1381692D02*
X2029152Y1375130D01*
Y1381692D02*
Y1375130D01*
X2031197Y1381692D02*
Y1375130D01*
Y1381692D02*
X2034152D01*
X2031197Y1378567D02*
X2033015D01*
X2031197Y1375130D02*
X2034152D01*
X2039379Y1380755D02*
X2038924Y1381380D01*
X2038243Y1381692*
X2037334*
X2036652Y1381380*
X2036197Y1380755*
Y1380130*
X2036424Y1379505*
X2036652Y1379192*
X2037106Y1378880*
X2038470Y1378255*
X2038924Y1377942*
X2039152Y1377630*
X2039379Y1377005*
Y1376067*
X2038924Y1375442*
X2038243Y1375130*
X2037334*
X2036652Y1375442*
X2036197Y1376067*
X2044606Y1380755D02*
X2044152Y1381380D01*
X2043470Y1381692*
X2042561*
X2041879Y1381380*
X2041424Y1380755*
Y1380130*
X2041652Y1379505*
X2041879Y1379192*
X2042334Y1378880*
X2043697Y1378255*
X2044152Y1377942*
X2044379Y1377630*
X2044606Y1377005*
Y1376067*
X2044152Y1375442*
X2043470Y1375130*
X2042561*
X2041879Y1375442*
X2041424Y1376067*
X2051879Y1380442D02*
X2052334Y1380755D01*
X2053015Y1381692*
Y1375130*
X2055288Y1375755D02*
X2055061Y1375442D01*
X2055288Y1375130*
X2055515Y1375442*
X2055288Y1375755*
X2060288Y1380755D02*
X2060061Y1381380D01*
X2059379Y1381692*
X2058924*
X2058243Y1381380*
X2057788Y1380442*
X2057561Y1378880*
Y1377317*
X2057788Y1376067*
X2058243Y1375442*
X2058924Y1375130*
X2059152*
X2059834Y1375442*
X2060288Y1376067*
X2060515Y1377005*
Y1377317*
X2060288Y1378255*
X2059834Y1378880*
X2059152Y1379192*
X2058924*
X2058243Y1378880*
X2057788Y1378255*
X2057561Y1377317*
X2062561Y1379505D02*
Y1375130D01*
Y1378255D02*
X2063243Y1379192D01*
X2063697Y1379505*
X2064379*
X2064834Y1379192*
X2065061Y1378255*
Y1375130*
Y1378255D02*
X2065743Y1379192D01*
X2066197Y1379505*
X2066879*
X2067334Y1379192*
X2067561Y1378255*
Y1375130*
X2069606Y1379505D02*
Y1375130D01*
Y1378255D02*
X2070288Y1379192D01*
X2070743Y1379505*
X2071424*
X2071879Y1379192*
X2072106Y1378255*
Y1375130*
Y1378255D02*
X2072788Y1379192D01*
X2073243Y1379505*
X2073924*
X2074379Y1379192*
X2074606Y1378255*
Y1375130*
X2077106Y1375442D02*
X2076879Y1375130D01*
X2076652Y1375442*
X2076879Y1375755*
X2077106Y1375442*
Y1374817*
X2076879Y1374192*
X2076652Y1373880*
X2084379Y1381692D02*
Y1375130D01*
Y1381692D02*
X2086424D01*
X2087106Y1381380*
X2087334Y1381067*
X2087561Y1380442*
Y1379817*
X2087334Y1379192*
X2087106Y1378880*
X2086424Y1378567*
X2084379*
X2085970D02*
X2087561Y1375130D01*
X2089606Y1381692D02*
Y1375130D01*
X2092788Y1381692D02*
Y1375130D01*
X2089606Y1378567D02*
X2092788D01*
X2096197Y1381692D02*
X2095743Y1381380D01*
X2095288Y1380755*
X2095061Y1380130*
X2094834Y1379192*
Y1377630*
X2095061Y1376692*
X2095288Y1376067*
X2095743Y1375442*
X2096197Y1375130*
X2097106*
X2097561Y1375442*
X2098015Y1376067*
X2098243Y1376692*
X2098470Y1377630*
Y1379192*
X2098243Y1380130*
X2098015Y1380755*
X2097561Y1381380*
X2097106Y1381692*
X2096197*
X2103697Y1380755D02*
X2103243Y1381380D01*
X2102561Y1381692*
X2101652*
X2100970Y1381380*
X2100515Y1380755*
Y1380130*
X2100743Y1379505*
X2100970Y1379192*
X2101424Y1378880*
X2102788Y1378255*
X2103243Y1377942*
X2103470Y1377630*
X2103697Y1377005*
Y1376067*
X2103243Y1375442*
X2102561Y1375130*
X2101652*
X2100970Y1375442*
X2100515Y1376067*
X2112788Y1381692D02*
X2112334D01*
X2111879Y1381380*
X2111652Y1380442*
Y1375130*
X2110970Y1379505D02*
X2112561D01*
X2114834Y1381692D02*
X2115061Y1381380D01*
X2115288Y1381692*
X2115061Y1382005*
X2114834Y1381692*
X2115061Y1379505D02*
Y1375130D01*
X2117334Y1379505D02*
Y1375130D01*
Y1378255D02*
X2118015Y1379192D01*
X2118470Y1379505*
X2119152*
X2119606Y1379192*
X2119834Y1378255*
Y1375130*
X2121879Y1381692D02*
X2122106Y1381380D01*
X2122334Y1381692*
X2122106Y1382005*
X2121879Y1381692*
X2122106Y1379505D02*
Y1375130D01*
X2126879Y1378567D02*
X2126652Y1379192D01*
X2125970Y1379505*
X2125288*
X2124606Y1379192*
X2124379Y1378567*
X2124606Y1377942*
X2125061Y1377630*
X2126197Y1377317*
X2126652Y1377005*
X2126879Y1376380*
Y1376067*
X2126652Y1375442*
X2125970Y1375130*
X2125288*
X2124606Y1375442*
X2124379Y1376067*
X2128924Y1381692D02*
Y1375130D01*
Y1378255D02*
X2129606Y1379192D01*
X2130061Y1379505*
X2130743*
X2131197Y1379192*
X2131424Y1378255*
Y1375130*
X2133470Y1381692D02*
X2133697Y1381380D01*
X2133924Y1381692*
X2133697Y1382005*
X2133470Y1381692*
X2133697Y1379505D02*
Y1375130D01*
X2135970Y1379505D02*
Y1375130D01*
Y1378255D02*
X2136652Y1379192D01*
X2137106Y1379505*
X2137788*
X2138243Y1379192*
X2138470Y1378255*
Y1375130*
X2143243Y1379505D02*
Y1374505D01*
X2143015Y1373567*
X2142788Y1373255*
X2142334Y1372942*
X2141652*
X2141197Y1373255*
X2143243Y1378567D02*
X2142788Y1379192D01*
X2142334Y1379505*
X2141652*
X2141197Y1379192*
X2140743Y1378567*
X2140515Y1377630*
Y1377005*
X2140743Y1376067*
X2141197Y1375442*
X2141652Y1375130*
X2142334*
X2142788Y1375442*
X2143243Y1376067*
X1705653Y1379539D02*
X1705426Y1380164D01*
X1704971Y1380789*
X1704517Y1381102*
X1703608*
X1703153Y1380789*
X1702699Y1380164*
X1702471Y1379539*
X1702244Y1378602*
Y1377039*
X1702471Y1376102*
X1702699Y1375477*
X1703153Y1374852*
X1703608Y1374539*
X1704517*
X1704971Y1374852*
X1705426Y1375477*
X1705653Y1376102*
X1709290Y1381102D02*
Y1374539D01*
X1707699Y1381102D02*
X1710880D01*
X1712926D02*
Y1374539D01*
Y1381102D02*
X1714971D01*
X1715653Y1380789*
X1715880Y1380477*
X1716108Y1379852*
Y1379227*
X1715880Y1378602*
X1715653Y1378289*
X1714971Y1377977*
X1712926*
X1714517D02*
X1716108Y1374539D01*
X1718153Y1379852D02*
X1718608Y1380164D01*
X1719290Y1381102*
Y1374539*
X1724517Y1380164D02*
X1724062Y1380789D01*
X1723380Y1381102*
X1722471*
X1721790Y1380789*
X1721335Y1380164*
Y1379539*
X1721562Y1378914*
X1721790Y1378602*
X1722244Y1378289*
X1723608Y1377664*
X1724062Y1377352*
X1724290Y1377039*
X1724517Y1376414*
Y1375477*
X1724062Y1374852*
X1723380Y1374539*
X1722471*
X1721790Y1374852*
X1721335Y1375477*
X1846969Y1378411D02*
X1847423Y1378723D01*
X1848105Y1379661*
Y1373098*
X1852423Y1379661D02*
X1850150Y1375286D01*
X1853559*
X1852423Y1379661D02*
Y1373098D01*
X1858787Y1379661D02*
X1856514Y1373098D01*
X1855605Y1379661D02*
X1858787D01*
X1860832Y1378411D02*
X1861287Y1378723D01*
X1861969Y1379661*
X1861969D02*
Y1373098D01*
X1865378Y1379661D02*
X1864696Y1379348D01*
X1864241Y1378411*
X1864014Y1376848*
Y1375911*
X1864241Y1374348*
X1864696Y1373411*
X1865378Y1373098*
X1865832*
X1866514Y1373411*
X1866969Y1374348*
X1866969D02*
X1867196Y1375911D01*
Y1376848*
X1866969Y1378411*
X1866969D02*
X1866514Y1379348D01*
X1865832Y1379661*
X1865378*
X1896167D02*
X1895485Y1379348D01*
X1895030Y1378411*
X1894803Y1376848*
Y1375911*
X1895030Y1374348*
X1895485Y1373411*
X1896167Y1373098*
X1896621*
X1897303Y1373411*
X1897758Y1374348*
X1897985Y1375911*
Y1376848*
X1897758Y1378411*
X1897303Y1379348*
X1896621Y1379661*
X1896167*
X1900030Y1378411D02*
X1900485Y1378723D01*
X1901167Y1379661*
Y1373098*
G54D18*
X2049094Y1723831D03*
Y1728791D03*
X1961693Y1740602D03*
Y1735642D03*
X2066024Y1707295D03*
Y1712256D03*
Y1717531D03*
Y1722492D03*
X2056575D03*
Y1717531D03*
X2221929Y1751390D03*
Y1756350D03*
X2212480Y1751390D03*
Y1756350D03*
X2203425Y1751390D03*
Y1756350D03*
X1968780Y1740602D03*
Y1735642D03*
X2189252Y1751390D03*
Y1756350D03*
G54D20*
X2190551Y1579146D03*
X2180551D03*
X2120551D03*
X2110551D03*
X2100551D03*
Y1519146D03*
X2120551D03*
X2180551D03*
X2190551D03*
G54D21*
X2180551D02*
X2204075D01*
X2230197Y1545268*
X2247087*
X2222008Y1587020D02*
Y1633496D01*
X2227756Y1639244*
X2247008*
X2222008Y1587020D02*
X2230020Y1579008D01*
X2246890*
X2233110Y1624264D02*
X2247008Y1624244D01*
X2211929Y1654858D02*
X2221772D01*
X2237417Y1670504*
X2246535*
X2211929Y1685957D02*
Y1682335D01*
Y1673280*
Y1699106D02*
Y1689539D01*
Y1686114*
Y1685957D02*
Y1686114D01*
X2211772Y1685957*
X2211929Y1717528D02*
X2246142Y1717709D01*
G54D23*
X2189252Y1756350D02*
Y1763614D01*
X2189350Y1763713*
X2194272D02*
Y1759067D01*
X2196949Y1756390*
X2203386*
X2203425Y1756350*
X2212480*
X2221929*
G54D28*
G54D37*
X1866811Y1484579D02*
X1873898D01*
X2019961Y1483791D02*
X2027323D01*
X2006850D02*
Y1489697D01*
X2011811Y1483791D02*
X2019961D01*
X2164744Y1483004D02*
Y1474835D01*
X2164843Y1474736*
X2219173D02*
X2219272Y1474835D01*
Y1483004*
X1995945Y1502689D02*
X2006457D01*
X2006850Y1502295*
X1995945Y1492689D02*
X1999646D01*
X2002638Y1489697*
X2006850*
X2011811D02*
X2016024D01*
X2011811Y1502295D02*
X2016024D01*
X2006850Y1495996D02*
Y1502295D01*
X2011811Y1495996D02*
X2027323D01*
X2032165Y1488516D02*
X2032283Y1488398D01*
Y1483791*
X2032165Y1500327D02*
X2032283Y1500209D01*
Y1495996*
X2027323D02*
Y1496546D01*
X2029409Y1498633*
Y1504657*
X2036890Y1512138*
X2179705Y1494421D02*
Y1493831D01*
Y1488614*
X2179803Y1488516*
X2194370Y1501114D02*
Y1494520D01*
X2194469Y1494421*
X2184528Y1488516D02*
X2184626Y1488614D01*
Y1493831*
Y1494421*
X2199390D02*
Y1499835D01*
X2199488Y1499933*
X2189547Y1494421D02*
Y1501016D01*
X2189646Y1501114*
X2204213Y1499933D02*
X2204311Y1499835D01*
Y1494421*
X2209232D02*
Y1493831D01*
Y1474835*
X2209331Y1474736*
X1758543Y1523949D02*
X1764843D01*
X1771142*
X1995945Y1522689D02*
X1995236Y1521980D01*
X2006850*
X1995945Y1512689D02*
X2006850D01*
Y1515287*
Y1509382D02*
Y1512689D01*
X2011811Y1509382D02*
Y1502295D01*
Y1521980D02*
X2016417D01*
X2011811Y1515287D02*
X2019173D01*
X2019567Y1515681*
X2027323*
X2032165Y1519224D02*
X2032283Y1519106D01*
Y1515681*
X2027323D02*
Y1516231D01*
X2029409Y1518318*
Y1520406*
X2034921Y1525917*
X2006850Y1528280D02*
Y1521980D01*
X2027323Y1528280D02*
X2011811D01*
Y1551626*
X2023504Y1563319*
Y1655839*
X2032165Y1532610D02*
X2032283Y1532492D01*
Y1528280*
X1753031Y1557413D02*
X1753051Y1557394D01*
X1772126*
X1752638Y1547177D02*
X1752736Y1547276D01*
X1761299*
X1766811Y1562138D02*
X1766909Y1562236D01*
X1772126*
Y1557394D02*
X1772638D01*
X1772717Y1557315*
X1785984Y1550051D02*
X1786102Y1549933D01*
X1790945Y1554264D02*
Y1560957D01*
X1792126Y1559776*
X1893583*
X1899882Y1566075*
Y1571193*
X1914076Y1585387*
X1972323*
X1979782Y1592846*
X1980197*
Y1618831*
X1995157Y1633791*
Y1642650*
X2003819Y1651311*
X1785984Y1554264D02*
Y1550051D01*
X1993189Y1561350D02*
X1993228Y1561311D01*
X2003819*
X2047913Y1548358D02*
X2058937D01*
X1766811Y1567256D02*
X1766909Y1567157D01*
X1772126*
Y1572079D02*
X1779409D01*
X1783445Y1568043*
X1785591*
X1785984Y1567650*
X1772126Y1577000D02*
X1785984D01*
X1772126Y1581921D02*
X1779409D01*
X1784823Y1587335*
X1785984*
Y1577000D02*
Y1573949D01*
X1797126Y1580642D02*
X1804094D01*
X1785984D02*
Y1577000D01*
X1790945Y1580642D02*
X1797126D01*
X1785984Y1567650D02*
Y1560957D01*
X1790945Y1573949D02*
Y1567650D01*
X1795157*
X1809055Y1580642D02*
X1813268D01*
X1804094D02*
X1807244Y1577492D01*
X1873898*
X1876260Y1579854*
X1895945*
X1906575Y1590484*
X1962480*
X1970748Y1598752*
Y1616862*
X1992992Y1639106*
Y1649343*
X1999882Y1656232*
X2014843*
X2018386Y1652689*
Y1651114*
X1992795Y1571587D02*
X2003543D01*
X2003819Y1571311*
Y1581311D02*
X2014961D01*
X2015236Y1581035*
X1752638Y1592059D02*
X1752736Y1591961D01*
X1761299*
X1785984Y1587335D02*
Y1593634D01*
X1790945Y1587335D02*
X1795157D01*
X1785984Y1600720D02*
Y1605327D01*
X1786102Y1605445*
X1790945Y1600720D02*
X1848701D01*
X1857756Y1609776*
X1898701*
X1909331Y1599146*
X1958150*
X1961299Y1602295*
Y1617256*
X1988465Y1644421*
Y1647571*
X1999094Y1658201*
X2015630*
X2020354Y1653476*
Y1651114*
X1790945Y1600720D02*
Y1593634D01*
X1993976Y1601114D02*
X2003622D01*
X2003819Y1601311*
X2020354Y1617846*
Y1651114*
X1752638Y1611744D02*
Y1611449D01*
X1761299*
X1780591Y1624047D02*
X1780689Y1623949D01*
X1784409*
X1784803Y1623555*
X1780591Y1624047D02*
Y1623949D01*
X1780689*
X1766811Y1621587D02*
X1766831Y1621567D01*
X1772126*
X1789764Y1623555D02*
X1794370D01*
X1993976Y1610957D02*
X2003465D01*
X2003819Y1611311*
X1994370Y1621193D02*
X2003701D01*
X2003819Y1621311*
X1780984Y1644717D02*
X1781083Y1644815D01*
X1784803*
X1780197Y1631429D02*
X1784409D01*
X1784803Y1631035*
X1780591Y1638122D02*
X1784803D01*
X1780984Y1644717D02*
Y1644815D01*
X1781083*
X1772126Y1626409D02*
X1778228D01*
X1780591Y1624047*
X1772126Y1636252D02*
X1773996Y1638122D01*
X1780591*
X1772126Y1641173D02*
X1777441D01*
X1780984Y1644717*
X1772717Y1631331D02*
X1772815Y1631429D01*
X1780197*
X1789764Y1644815D02*
X1794370D01*
X1784803D02*
X1799764Y1659776D01*
X1906969*
X1919173Y1671980*
X2033740*
X2047913Y1657807*
X2153031*
X2153031D02*
X2182165Y1686941D01*
X1789764Y1638122D02*
X1794370D01*
X1784803D02*
X1788346Y1641665D01*
X1833346*
X1841220Y1649539*
X1902244*
X1917992Y1665287*
X1984528*
X1987677Y1662138*
X2037677*
X2044764Y1655051*
X2164843*
X2190039Y1680248*
X2196339*
X2199094Y1683004*
Y1686941*
X1789764Y1631035D02*
X1793976D01*
X1784803D02*
X1788346Y1634579D01*
X1834528*
X1839646Y1639697*
X1899488*
X1919961Y1660169*
X2030984*
X2040433Y1650720*
X2169567*
X2201063Y1682217*
Y1686941*
X2014055Y1641665D02*
X2018386Y1645996D01*
Y1651114*
X2003819Y1631311D02*
X2013543D01*
X2013661Y1631429*
X2003819Y1641311D02*
X2004173Y1641665D01*
X2014055*
X2026260Y1644815D02*
Y1551508D01*
X2034921Y1542846*
Y1525917*
X2029016Y1641272D02*
Y1606232D01*
X2036890Y1598358*
Y1512138*
X1752638Y1656232D02*
Y1656134D01*
X1761299*
X1764449Y1645996D02*
Y1646783D01*
X1787283Y1669618*
X1902638*
X1914843Y1681823*
X2028622*
X2049094Y1661350*
X2142402*
X2174685Y1693634*
Y1709776*
X2181772Y1716862*
X1764449Y1645996D02*
Y1629953D01*
X1767992Y1626409*
X1772126*
X1767205Y1645996D02*
X1767303Y1646094D01*
X1772126*
X2003819Y1651311D02*
X2014252D01*
X2014449Y1651114*
X1752638Y1683398D02*
X1752736Y1683496D01*
X1760512*
X2003819Y1666941D02*
X2003898Y1666862D01*
X2014843*
X2003819Y1676941D02*
X2004055Y1676705D01*
X2014449*
X2068780Y1668043D02*
X2072205D01*
X2077165D02*
X2077283Y1671350D01*
Y1679067*
X2087283D02*
Y1669263D01*
X2092126Y1668043D02*
X2095945D01*
X2117835Y1671232D02*
X2128465D01*
X1766417Y1693634D02*
Y1693535D01*
X1771929*
X1766417Y1703476D02*
Y1703378D01*
X1771339*
X1771929Y1698457D02*
X1782736D01*
X1782835Y1698358*
X1771339Y1703378D02*
X1771929D01*
X1787795Y1698358D02*
X1792795D01*
X2003819Y1686941D02*
X2014449D01*
X2003819Y1696941D02*
X2003976Y1696783D01*
X2014843*
X2029016Y1702295D02*
X2029409Y1702689D01*
X2034016*
X2038976D02*
X2045039D01*
X2050000D02*
X2050157Y1702531D01*
Y1695602*
X2055118D02*
X2061969D01*
X2066811Y1700720D02*
X2066929Y1700602D01*
Y1695602*
X2182165Y1697177D02*
X2182402Y1696941D01*
X2193976*
X2182165Y1686941D02*
X2193976D01*
Y1696941D02*
X2199094Y1691823D01*
Y1686941*
X1766417Y1713319D02*
X1766516Y1713220D01*
X1771339*
X1771929Y1718142D02*
Y1718437D01*
X1782441*
X1771339Y1708299D02*
X1771437Y1708201D01*
X1782835*
X1771339Y1713220D02*
X1771929D01*
X1782441Y1718437D02*
Y1725524D01*
X1787402Y1718437D02*
X1791614D01*
X1787795Y1708201D02*
X1825866D01*
X1844370Y1689697*
X1966575*
X2003819Y1726941*
X1881614Y1714697D02*
X1886496Y1709815D01*
Y1704697*
X1994370Y1707020D02*
X2003740D01*
X2003819Y1706941*
Y1716941D02*
X2003898Y1716862D01*
X2014055*
X2034134Y1724343D02*
Y1717650D01*
X2038740*
X2034134D02*
X2030197D01*
X2034134*
X2034016Y1710957D02*
X2034134Y1716587D01*
Y1717650*
X2038976Y1710957D02*
X2045039D01*
X2045157Y1724343D02*
X2048583D01*
X2049094Y1723831*
X2041734Y1724343D02*
X2045157D01*
X2056575Y1722492D02*
X2066024D01*
X2043701Y1717650D02*
X2056457D01*
X2056575Y1717531*
X2050000Y1710957D02*
Y1702689D01*
X2066024Y1712256D02*
Y1717531D01*
Y1707295D02*
X2071142D01*
Y1707413*
X2181772Y1716862D02*
X2187283D01*
X2187362Y1716941*
X2193976*
X2181772Y1707020D02*
X2193898D01*
X2193976Y1706941*
X2201063Y1699854*
Y1686941*
X1752638Y1728280D02*
X1752736Y1728181D01*
X1760512*
X1778228Y1732610D02*
X1782441D01*
X1787402D02*
Y1725524D01*
X1795945*
X2003819Y1726941D02*
X2003976Y1727098D01*
X2014055*
X2003819Y1736941D02*
X2014055D01*
X2030197Y1741272D02*
Y1729598D01*
X2034134Y1725661*
Y1724343*
X2030197Y1741272D02*
Y1745602D01*
X2042894Y1758299*
Y1764106*
X2034134Y1737728D02*
Y1733043D01*
X2032835Y1741272D02*
Y1738122D01*
X2033228Y1737728*
X2034134*
X2037795Y1741272D02*
X2037934Y1741133D01*
Y1724343*
X2041734Y1733043D02*
Y1734579D01*
X2056575*
Y1722492*
X2049094Y1728791D02*
X2053425D01*
Y1728673*
X2177835Y1736941D02*
Y1740522D01*
X2188702Y1751390*
X2189252*
X2177835Y1736941D02*
Y1733004D01*
X2178504Y1732335*
Y1727098*
X2181772Y1736941D02*
X2193976D01*
X2183465Y1727098D02*
X2193819D01*
X2193976Y1726941*
X2203268*
X2203425Y1727098*
X1816319Y1764106D02*
Y1769913D01*
X1816417Y1770012*
X1825866Y1763811D02*
Y1753476D01*
X1879409Y1699933*
X1883740*
X1886496Y1702689*
Y1704697*
X1825866Y1763811D02*
X1826161Y1764106D01*
X1830984Y1764008D02*
Y1755327D01*
X1881614Y1704697*
X1830984Y1764008D02*
X1831083Y1764106D01*
X1845846D02*
Y1770307D01*
X1845945Y1770406*
X2023209Y1764697D02*
Y1764106D01*
X2037677Y1745602D02*
X2037795Y1745484D01*
Y1741272*
X2023209Y1764106D02*
Y1764697D01*
X2028209D02*
Y1769598D01*
X2028228Y1769618*
X2033051Y1764697D02*
Y1764106D01*
X2042894D02*
Y1764697D01*
X2047815D02*
Y1769520D01*
X2047913Y1769618*
X2047815Y1764697D02*
Y1764106D01*
X2052736Y1764697D02*
Y1764106D01*
X2179508Y1764303D02*
Y1763713D01*
X2184429Y1764303D02*
Y1769795D01*
X2184449Y1769815*
X2184429Y1764303D02*
Y1763713D01*
X2194272Y1764303D02*
Y1763713D01*
X2203425Y1751390D02*
Y1745602D01*
X2221929Y1747571D02*
Y1751390D01*
X1821142Y1770012D02*
X1821240Y1769913D01*
Y1764106*
X1811299Y1783791D02*
X1811398Y1783693D01*
Y1764106*
X1801358Y1775524D02*
Y1783693D01*
X1801457Y1783791*
X1840827Y1770406D02*
X1840925Y1770307D01*
Y1764106*
X1832165Y1771980D02*
X1836004D01*
Y1764106*
X1855787Y1783791D02*
X1855886Y1783693D01*
Y1775524*
X1971535Y1784185D02*
X1971634D01*
Y1764697*
X1961594Y1775524D02*
Y1784185D01*
X1961693*
X1996339D02*
X1996437D01*
Y1775524*
X2013169D02*
Y1784087D01*
X2013268Y1784185*
X2032953Y1769618D02*
X2033051Y1769520D01*
Y1764697*
X2023110Y1784185D02*
Y1775130D01*
X2023209Y1775031*
X2023209D02*
Y1764697D01*
X2052638Y1769618D02*
X2052736Y1769520D01*
Y1764697*
X2067598Y1784185D02*
X2067697Y1784087D01*
Y1775524*
X2179409Y1784185D02*
X2179508Y1784087D01*
Y1764303*
X2169469Y1775130D02*
Y1784185D01*
X2169567*
X2204213D02*
X2204311D01*
Y1775130*
X1684331Y1794618D02*
Y1833988D01*
Y1834382D02*
X1723701D01*
X2261496Y1832413D02*
X2299685D01*
Y1793043*
G54D46*
X2193976Y1636862D02*
X2204606Y1647492D01*
Y1722374*
X2212480Y1730248*
Y1751390*
X1937921Y1715209D02*
X1947913Y1725201D01*
Y1738516*
X1962874Y1753476*
X1967992*
X1976555Y1762039*
Y1764106*
X1927921Y1715209D02*
X1933354Y1709776D01*
X1940039*
X1950669Y1720406*
Y1737335*
X1964055Y1750720*
X1972028*
X1981476Y1760169*
Y1764106*
X1968780Y1744028D02*
Y1740602D01*
Y1735642D02*
X1961693D01*
X1961921Y1735256*
Y1715209*
X1961693Y1740602D02*
Y1744421D01*
X1981476Y1764697D02*
Y1764106D01*
G54D47*
X2020748Y1690091D02*
Y1693240D01*
Y1742551*
X2034478Y1756281*
X2037972Y1759776*
Y1764106*
X1773504Y1474736D03*
X1873898Y1484579D03*
X2019961Y1483791D03*
X2164843Y1474736D03*
X2209331D03*
X2219173D03*
X2016024Y1489697D03*
Y1502295D03*
X2032165Y1488516D03*
Y1500327D03*
X2179803Y1488516D03*
X2194370Y1501114D03*
X2189646D03*
X2199488Y1499933D03*
X2184528Y1488516D03*
X2204213Y1499933D03*
X1758543Y1523949D03*
X1771142D03*
X2016417Y1521980D03*
X2032165Y1519224D03*
Y1532610D03*
X1753031Y1557413D03*
X1752638Y1547177D03*
X1766811Y1562138D03*
X1786102Y1549933D03*
X2047913Y1548358D03*
X1766811Y1567256D03*
X1797126Y1580642D03*
X1795157Y1567650D03*
X1813268Y1580642D03*
X1752638Y1592059D03*
X1795157Y1587335D03*
X1752638Y1611744D03*
X1780591Y1623949D03*
X1766811Y1621587D03*
X1794370Y1623555D03*
X1786102Y1605445D03*
X2238898Y1624343D03*
X2236024Y1624264D03*
X2233110D03*
X1780197Y1631429D03*
X1780591Y1638122D03*
X1780984Y1644815D03*
X1794370D03*
Y1638122D03*
X1793976Y1631035D03*
X2026260Y1644815D03*
X2029016Y1641272D03*
X1752638Y1656232D03*
X1767205Y1645996D03*
X2023504Y1655839D03*
X1752638Y1683398D03*
X2068780Y1668043D03*
X2095945D03*
X2117835Y1671232D03*
X2211772Y1682335D03*
X1766417Y1693634D03*
Y1703476D03*
X1792795Y1698358D03*
X2020748Y1690091D03*
Y1693240D03*
X2029016Y1702295D03*
X2066811Y1700720D03*
X2211772Y1689539D03*
Y1685957D03*
X1766417Y1713319D03*
X1791614Y1718437D03*
X2045157Y1724343D03*
X2071142Y1707413D03*
X1752638Y1728280D03*
X1778228Y1732610D03*
X1795945Y1725524D03*
X1961693Y1744421D03*
X1968780Y1744028D03*
X2034134Y1737728D03*
X2053425Y1728673D03*
X2037677Y1745602D03*
X2203425D03*
X2221929Y1747571D03*
X1816417Y1770012D03*
X1821142D03*
X1801457Y1783791D03*
X1811299D03*
X1840827Y1770406D03*
X1832165Y1771980D03*
X1855787Y1783791D03*
X1845945Y1770406D03*
X1961693Y1784185D03*
X1971535D03*
X1996339D03*
X2013268D03*
X2032953Y1769618D03*
X2028228D03*
X2023110Y1784185D03*
X2047913Y1769618D03*
X2052638D03*
X2067598Y1784185D03*
X2169567D03*
X2179409D03*
X2184449Y1769815D03*
X2204213Y1784185D03*
G54D52*
X1725512Y1426642D02*
X1725557Y1426807D01*
X1725557D02*
X1725603Y1426971D01*
X1725648Y1427136*
X1725694Y1427301*
X1725739Y1427465*
X1725785Y1427630*
X1725831Y1427795*
X1725877Y1427959*
X1725923Y1428124*
X1725969Y1428289*
X1726015Y1428453*
X1726061Y1428618*
X1726107Y1428782*
X1726153Y1428947*
X1726199Y1429112*
X1726199D02*
X1726245Y1429276D01*
X1726291Y1429441*
X1726337Y1429605*
X1726383Y1429770*
X1726429Y1429934*
X1726475Y1430099*
X1726521Y1430264*
X1726566Y1430428*
X1726612Y1430593*
X1726658Y1430758*
X1726704Y1430922*
X1726704D02*
X1726749Y1431087D01*
X1726794Y1431252*
X1726840Y1431417*
X1726885Y1431582*
X1726930Y1431746*
X1726975Y1431911*
X1727020Y1432076*
X1727065Y1432241*
X1727109Y1432406*
X1727154Y1432571*
X1727198Y1432736*
X1727242Y1432901*
X1727286Y1433067*
X1722958Y1426509D02*
X1723022Y1426511D01*
X1723086Y1426514*
X1723150Y1426517*
X1723214Y1426519*
X1723278Y1426522*
X1723341Y1426525*
X1723405Y1426528*
X1723469Y1426531*
X1723533Y1426534*
X1723597Y1426537*
X1723661Y1426540*
X1723724Y1426543*
X1723788Y1426546*
X1723852Y1426549*
X1723916Y1426553*
X1723980Y1426556*
X1724044Y1426559*
X1724107Y1426563*
X1724171Y1426566*
X1724235Y1426569*
X1724299Y1426573*
X1724363Y1426576*
X1724427Y1426580*
X1724490Y1426583*
X1724554Y1426587*
X1724618Y1426591*
X1724682Y1426594*
X1724746Y1426598*
X1724810Y1426601*
X1724873Y1426605*
X1724937Y1426609*
X1725001Y1426612*
X1725065Y1426616*
X1725129Y1426620*
X1725193Y1426623*
X1725256Y1426627*
X1725320Y1426631*
X1725384Y1426634*
X1725448Y1426638*
X1725317Y1423635D02*
X1725258D01*
X1725199*
X1725140*
X1725081*
X1725022*
X1724963Y1423636*
X1724904*
X1724845*
X1724786*
X1724727*
X1724668*
X1724609*
X1724550*
X1724491*
X1724432*
X1724373*
X1724314Y1423635*
X1724255*
X1724196*
X1724137*
X1724078*
X1724019*
X1723960*
X1723901*
X1723842*
X1723783*
X1723724*
X1723665*
X1723606*
X1723548*
X1723489*
X1723430*
X1723371*
X1723312*
X1723253*
X1723194*
X1723135*
X1723076*
X1723017Y1423636*
X1726038Y1410075D02*
X1725998Y1410161D01*
X1725959Y1410248*
X1725922Y1410335*
X1725885Y1410422*
X1725851Y1410510*
X1725817Y1410598*
X1725785Y1410687*
X1725754Y1410776*
X1725724Y1410866*
X1725696Y1410956*
X1725668Y1411046*
X1725642Y1411137*
X1725617Y1411228*
X1725594Y1411319*
X1725571Y1411411*
X1725549Y1411503*
X1725529Y1411595*
X1725509Y1411688*
X1725491Y1411780*
X1725474Y1411873*
X1725457Y1411967*
X1725457D02*
X1725442Y1412060D01*
X1725428Y1412153*
X1725414Y1412247*
X1725402Y1412341*
X1725390Y1412435*
X1725380Y1412529*
X1725370Y1412623*
X1725361Y1412717*
X1725353Y1412812*
X1725346Y1412906*
X1725339Y1413001*
X1725334Y1413095*
X1725329Y1413189*
X1725325Y1413284*
X1725322Y1413378*
X1725319Y1413473*
X1725317Y1413567*
X1725316Y1413661*
X1729065Y1407379D02*
X1728966Y1407412D01*
X1728867Y1407447*
X1728770Y1407485*
X1728674Y1407524*
X1728578Y1407566*
X1728484Y1407609*
X1728390Y1407655*
X1728298Y1407703*
X1728206Y1407752*
X1728116Y1407804*
X1728026Y1407857*
X1727938Y1407912*
X1727851Y1407969*
X1727765Y1408028*
X1727680Y1408089*
X1727597Y1408151*
X1727515Y1408215*
X1727434Y1408280*
X1727354Y1408348*
X1727276Y1408416*
X1727199Y1408487*
X1727124Y1408559*
X1727050Y1408632*
X1726977Y1408707*
X1726906Y1408783*
X1726836Y1408861*
X1726768Y1408940*
X1726702Y1409020*
X1726637Y1409101*
X1726574Y1409184*
X1726512Y1409268*
X1726453Y1409354*
X1726394Y1409440*
X1726338Y1409528*
X1726283Y1409616*
X1726231Y1409706*
X1726180Y1409797*
X1726130Y1409889*
X1726083Y1409982*
X1732359Y1407105D02*
X1732277Y1407101D01*
X1732194Y1407097*
X1732111Y1407093*
X1732028Y1407089*
X1731945Y1407086*
X1731862Y1407082*
X1731779Y1407079*
X1731695Y1407076*
X1731612Y1407073*
X1731528Y1407071*
X1731445Y1407069*
X1731361Y1407068*
X1731278Y1407067*
X1731194Y1407066*
X1731111Y1407067*
X1731028*
X1730944Y1407069*
X1730861Y1407071*
X1730778Y1407074*
X1730694Y1407077*
X1730611Y1407082*
X1730528Y1407087*
X1730445Y1407093*
X1730363Y1407100*
X1730280Y1407109*
X1730197Y1407118*
X1730115Y1407128*
X1730033Y1407139*
X1729951Y1407152*
X1729869Y1407166*
X1729788Y1407181*
X1729706Y1407197*
X1729625Y1407214*
X1729544Y1407233*
X1729464Y1407254*
X1729383Y1407276*
X1729303Y1407299*
X1729223Y1407324*
X1729144Y1407350*
X1735835Y1407761D02*
X1735752Y1407728D01*
X1735669Y1407697*
X1735585Y1407667*
X1735501Y1407638*
X1735417Y1407610*
X1735333Y1407583*
X1735248Y1407557*
X1735163Y1407532*
X1735077Y1407508*
X1734992Y1407485*
X1734906Y1407463*
X1734820Y1407442*
X1734734Y1407421*
X1734647Y1407402*
X1734560Y1407383*
X1734473Y1407365*
X1734386Y1407348*
X1734299Y1407331*
X1734212Y1407315*
X1734124Y1407300*
X1734037Y1407286*
X1733949Y1407272*
X1733861Y1407259*
X1733773Y1407246*
X1733685Y1407234*
X1733597Y1407223*
X1733508Y1407212*
X1733420Y1407201*
X1733332Y1407191*
X1733243Y1407182*
X1733155Y1407173*
X1733066Y1407164*
X1732978Y1407155*
X1732890Y1407147*
X1732801Y1407140*
X1732713Y1407132*
X1732624Y1407125*
X1732536Y1407118*
X1732448Y1407111*
X1735839Y1410909D02*
X1735838Y1410830D01*
Y1410752*
X1735838D02*
Y1410673D01*
Y1410594*
Y1410515*
Y1410437*
Y1410358*
Y1410279*
Y1410201*
Y1410122*
Y1410043*
Y1409964*
Y1409886*
Y1409807*
Y1409728*
Y1409650*
Y1409571*
Y1409492*
Y1409413*
Y1409335*
Y1409256*
Y1409177*
Y1409099*
Y1409020*
Y1408941*
Y1408862*
Y1408784*
Y1408705*
Y1408626*
Y1408548*
Y1408469*
X1735837Y1408390*
Y1408312*
Y1408233*
Y1408154*
Y1408075*
X1735836Y1407997*
Y1407918*
Y1407839*
X1733558Y1410515D02*
X1733616Y1410516D01*
X1733674Y1410517*
X1733732Y1410519*
X1733790Y1410521*
X1733848Y1410524*
X1733906Y1410528*
X1733964Y1410532*
X1734022Y1410537*
X1734080Y1410542*
X1734137Y1410548*
X1734195Y1410554*
X1734253Y1410561*
X1734310Y1410569*
X1734368Y1410577*
X1734425Y1410585*
X1734482Y1410594*
X1734539Y1410604*
X1734597Y1410613*
X1734654Y1410624*
X1734711Y1410634*
X1734768Y1410645*
X1734825Y1410657*
X1734882Y1410668*
X1734938Y1410681*
X1734995Y1410693*
X1735052Y1410706*
X1735108Y1410719*
X1735165Y1410732*
X1735221Y1410746*
X1735278Y1410760*
X1735334Y1410774*
X1735390Y1410788*
X1735447Y1410803*
X1735503Y1410817*
X1735559Y1410832*
X1735615Y1410847*
X1735671Y1410863*
X1735727Y1410878*
X1735783Y1410893*
X1731640Y1410919D02*
X1731681Y1410889D01*
X1731723Y1410861*
X1731766Y1410834*
X1731809Y1410809*
X1731852Y1410785*
X1731897Y1410762*
X1731941Y1410741*
X1731987Y1410721*
X1732032Y1410702*
X1732079Y1410684*
X1732125Y1410668*
X1732172Y1410652*
X1732220Y1410638*
X1732268Y1410624*
X1732316Y1410612*
X1732364Y1410601*
X1732413Y1410590*
X1732462Y1410580*
X1732511Y1410572*
X1732560Y1410564*
X1732610Y1410556*
X1732660Y1410550*
X1732710Y1410544*
X1732760Y1410539*
X1732810Y1410534*
X1732860Y1410531*
X1732910Y1410527*
X1732961Y1410524*
X1733011Y1410522*
X1733061Y1410520*
X1733112Y1410518*
X1733162Y1410517*
X1733212Y1410516*
X1733262Y1410515*
X1733312*
X1733361*
X1733411*
X1733460*
X1733509*
X1731047Y1411761D02*
X1731056Y1411737D01*
X1731066Y1411713*
X1731075Y1411688*
X1731085Y1411664*
X1731095Y1411640*
X1731106Y1411616*
X1731116Y1411592*
X1731127Y1411568*
X1731138Y1411545*
X1731149Y1411521*
X1731161Y1411497*
X1731173Y1411474*
X1731185Y1411451*
X1731198Y1411427*
X1731210Y1411405*
X1731224Y1411382*
X1731237Y1411359*
X1731251Y1411337*
X1731265Y1411315*
X1731279Y1411293*
X1731294Y1411271*
X1731309Y1411249*
X1731309D02*
X1731324Y1411228D01*
X1731339Y1411207*
X1731355Y1411187*
X1731372Y1411166*
X1731388Y1411146*
X1731405Y1411126*
X1731423Y1411107*
X1731441Y1411088*
X1731459Y1411069*
X1731477Y1411051*
X1731496Y1411033*
X1731516Y1411015*
X1731535Y1410998*
X1731555Y1410981*
X1731576Y1410965*
X1731597Y1410949*
X1731618Y1410934*
X1730796Y1413595D02*
X1730795Y1413549D01*
Y1413502*
Y1413456*
Y1413409*
X1730796Y1413363*
X1730797Y1413316*
X1730798Y1413270*
X1730799Y1413223*
X1730801Y1413177*
X1730803Y1413130*
X1730806Y1413084*
X1730809Y1413037*
X1730812Y1412991*
X1730815Y1412945*
X1730819Y1412898*
X1730823Y1412852*
X1730828Y1412806*
X1730833Y1412759*
X1730838Y1412713*
X1730844Y1412667*
X1730850Y1412621*
X1730856Y1412575*
X1730863Y1412529*
X1730871Y1412483*
X1730878Y1412437*
X1730886Y1412391*
X1730895Y1412346*
X1730904Y1412300*
X1730913Y1412254*
X1730923Y1412209*
X1730933Y1412164*
X1730944Y1412119*
X1730955Y1412073*
X1730967Y1412028*
X1730979Y1411984*
X1730992Y1411939*
X1731005Y1411894*
X1731018Y1411850*
X1731032Y1411805*
X1735997Y1423596D02*
X1735867D01*
X1735737Y1423595*
X1735607*
X1735477*
X1735347*
X1735217*
X1735087*
X1734957*
X1734827*
X1734697*
X1734567*
X1734437*
X1734307*
X1734177*
X1734047*
X1733917*
X1733787*
X1733657*
X1733527*
X1733397*
X1733267Y1423596*
X1733137*
X1733008*
X1732878*
X1732748*
X1732618*
X1732488*
X1732358*
X1732228*
X1732098*
X1731968*
X1731838*
X1731708*
X1731578*
X1731448*
X1731318Y1423595*
X1731188*
X1731058*
X1730928*
X1730798Y1426676D02*
X1730928D01*
X1731058*
X1731188Y1426675*
X1731318*
X1731448*
X1731578*
X1731708*
X1731837*
X1731967*
X1732097*
X1732227*
X1732357*
X1732487*
X1732617*
X1732747*
X1732877*
X1733007*
X1733137*
X1733267*
X1733397*
X1733527*
X1733657*
X1733787Y1426676*
X1733917*
X1734047*
X1734177*
X1734307*
X1734437*
X1734567*
X1734697*
X1734827*
X1734957*
X1735087*
X1735217*
X1735347Y1426675*
X1735477*
X1735607*
X1735737*
X1735867*
X1727330Y1433232D02*
X1727416D01*
X1727503Y1433233*
X1727590*
X1727676Y1433234*
X1727763*
X1727850Y1433235*
X1727936*
X1728023*
X1728110*
X1728197Y1433236*
X1728283*
X1728370*
X1728457*
X1728543*
X1728630*
X1728717*
X1728803*
X1728890*
X1728977*
X1729063*
X1729150*
X1729237*
X1729323*
X1729410*
X1729497*
X1729583*
X1729670*
X1729757*
X1729843*
X1729930*
X1730017Y1433235*
X1730103*
X1730190*
X1730277*
X1730364*
X1730450*
X1730537*
X1730624*
X1730710*
X1714316Y1431395D02*
X1714310Y1431500D01*
X1714309Y1431605*
X1714312Y1431709*
X1714320Y1431814*
X1714332Y1431917*
X1714348Y1432020*
X1714368Y1432122*
X1714393Y1432222*
X1714421Y1432322*
X1714453Y1432421*
X1714489Y1432518*
X1714529Y1432614*
X1714572Y1432709*
X1714618Y1432802*
X1714668Y1432894*
X1714721Y1432983*
X1714778Y1433071*
X1714837Y1433157*
X1714900Y1433240*
X1714965Y1433322*
X1715033Y1433401*
X1715104Y1433478*
X1715178Y1433552*
X1715254Y1433624*
X1715332Y1433693*
X1715413Y1433759*
X1715496Y1433822*
X1715581Y1433883*
X1715668Y1433940*
X1715757Y1433994*
X1715848Y1434044*
X1715941Y1434092*
X1716035Y1434135*
X1716131Y1434175*
X1716229Y1434212*
X1716327Y1434244*
X1716428Y1434273*
X1716529Y1434297*
X1716631Y1434318*
X1714882Y1429679D02*
X1714853Y1429716D01*
X1714825Y1429752*
X1714798Y1429789*
X1714771Y1429827*
X1714745Y1429865*
X1714720Y1429904*
X1714696Y1429943*
X1714673Y1429983*
X1714650Y1430023*
X1714628Y1430063*
X1714607Y1430104*
X1714587Y1430145*
X1714567Y1430187*
X1714548Y1430229*
X1714530Y1430271*
X1714513Y1430314*
X1714497Y1430357*
X1714481Y1430400*
X1714466Y1430443*
X1714452Y1430487*
X1714438Y1430531*
X1714425Y1430575*
X1714413Y1430620*
X1714402Y1430664*
X1714391Y1430709*
X1714381Y1430754*
X1714372Y1430799*
X1714364Y1430845*
X1714356Y1430890*
X1714349Y1430936*
X1714342Y1430982*
X1714342D02*
X1714337Y1431027D01*
X1714332Y1431073*
X1714328Y1431119*
X1714324Y1431165*
X1714321Y1431211*
X1714319Y1431257*
X1714317Y1431303*
X1714316Y1431349*
X1716479Y1428601D02*
X1716430Y1428612D01*
X1716383Y1428624*
X1716335Y1428637*
X1716288Y1428651*
X1716241Y1428666*
X1716195Y1428682*
X1716149Y1428699*
X1716103Y1428717*
X1716058Y1428735*
X1716013Y1428755*
X1715969Y1428776*
X1715925Y1428798*
X1715881Y1428820*
X1715838Y1428844*
X1715795Y1428868*
X1715753Y1428893*
X1715711Y1428918*
X1715670Y1428945*
X1715629Y1428972*
X1715588Y1429000*
X1715548Y1429029*
X1715509Y1429058*
X1715470Y1429088*
X1715431Y1429119*
X1715393Y1429150*
X1715355Y1429182*
X1715318Y1429214*
X1715281Y1429247*
X1715245Y1429281*
X1715210Y1429315*
X1715175Y1429350*
X1715140Y1429385*
X1715106Y1429420*
X1715072Y1429456*
X1715039Y1429492*
X1715007Y1429529*
X1714975Y1429566*
X1714943Y1429604*
X1714912Y1429641*
X1718225Y1428688D02*
X1718183Y1428674D01*
X1718141Y1428661*
X1718099Y1428648*
X1718056Y1428635*
X1718014Y1428624*
X1717971Y1428612*
X1717928Y1428601*
X1717884Y1428591*
X1717841Y1428581*
X1717798Y1428572*
X1717754Y1428564*
X1717710Y1428556*
X1717666Y1428548*
X1717622Y1428541*
X1717578Y1428535*
X1717534Y1428530*
X1717490Y1428525*
X1717446Y1428520*
X1717402Y1428517*
X1717357Y1428514*
X1717313Y1428511*
X1717269Y1428509*
X1717269D02*
X1717224Y1428508D01*
X1717180*
X1717135*
X1717091Y1428509*
X1717047Y1428511*
X1717002Y1428513*
X1716958Y1428517*
X1716914Y1428520*
X1716870Y1428525*
X1716826Y1428530*
X1716782Y1428537*
X1716782D02*
X1716738Y1428543D01*
X1716695Y1428551*
X1716651Y1428559*
X1716608Y1428569*
X1716565Y1428579*
X1716522Y1428589*
X1720081Y1431596D02*
X1720089Y1431503D01*
X1720093Y1431409*
X1720095Y1431316*
X1720092Y1431223*
X1720087Y1431131*
X1720078Y1431039*
X1720066Y1430947*
X1720051Y1430856*
X1720032Y1430765*
X1720011Y1430675*
X1719986Y1430586*
X1719959Y1430498*
X1719929Y1430411*
X1719896Y1430325*
X1719860Y1430239*
X1719821Y1430156*
X1719780Y1430073*
X1719736Y1429991*
X1719689Y1429911*
X1719640Y1429833*
X1719589Y1429756*
X1719535Y1429680*
X1719479Y1429607*
X1719421Y1429535*
X1719360Y1429465*
X1719298Y1429396*
X1719233Y1429330*
X1719166Y1429266*
X1719097Y1429204*
X1719026Y1429145*
X1718954Y1429087*
X1718879Y1429032*
X1718803Y1428980*
X1718725Y1428930*
X1718646Y1428883*
X1718564Y1428838*
X1718482Y1428796*
X1718398Y1428757*
X1718312Y1428721*
X1718122Y1434241D02*
X1718204Y1434211D01*
X1718286Y1434180*
X1718366Y1434145*
X1718445Y1434109*
X1718524Y1434069*
X1718601Y1434028*
X1718677Y1433984*
X1718751Y1433937*
X1718825Y1433889*
X1718897Y1433838*
X1718967Y1433785*
X1719036Y1433730*
X1719103Y1433674*
X1719169Y1433615*
X1719233Y1433554*
X1719295Y1433492*
X1719355Y1433427*
X1719413Y1433362*
X1719469Y1433294*
X1719524Y1433225*
X1719576Y1433154*
X1719626Y1433082*
X1719673Y1433008*
X1719719Y1432933*
X1719762Y1432857*
X1719802Y1432780*
X1719841Y1432701*
X1719876Y1432621*
X1719909Y1432540*
X1719939Y1432458*
X1719967Y1432375*
X1719992Y1432292*
X1720013Y1432207*
X1720032Y1432122*
X1720048Y1432036*
X1720061Y1431949*
X1720071Y1431861*
X1720077Y1431773*
X1720081Y1431685*
X1716735Y1434334D02*
X1716769Y1434337D01*
X1716804Y1434340*
X1716839Y1434342*
X1716874Y1434345*
X1716909Y1434348*
X1716944Y1434350*
X1716979Y1434352*
X1717014Y1434354*
X1717049Y1434356*
X1717084Y1434358*
X1717119Y1434359*
X1717154Y1434360*
X1717189Y1434361*
X1717224Y1434362*
X1717259*
X1717294*
X1717329*
X1717364*
X1717399Y1434361*
X1717435Y1434360*
X1717469Y1434358*
X1717504Y1434356*
X1717539Y1434354*
X1717574Y1434351*
X1717609Y1434348*
X1717644Y1434344*
X1717679Y1434340*
X1717713Y1434336*
X1717748Y1434331*
X1717782Y1434325*
X1717817Y1434319*
X1717851Y1434313*
X1717885Y1434306*
X1717919Y1434298*
X1717953Y1434290*
X1717987Y1434281*
X1718021Y1434272*
X1718055Y1434262*
X1718088Y1434252*
X1704158Y1432755D02*
X1704190Y1432816D01*
X1704223Y1432876*
X1704257Y1432936*
X1704293Y1432995*
X1704331Y1433053*
X1704369Y1433110*
X1704409Y1433166*
X1704450Y1433222*
X1704493Y1433277*
X1704536Y1433330*
X1704581Y1433383*
X1704627Y1433434*
X1704675Y1433485*
X1704723Y1433534*
X1704773Y1433583*
X1704823Y1433630*
X1704875Y1433676*
X1704928Y1433721*
X1704981Y1433764*
X1705036Y1433807*
X1705092Y1433848*
X1705148Y1433887*
X1705206Y1433925*
X1705264Y1433962*
X1705323Y1433998*
X1705383Y1434032*
X1705444Y1434064*
X1705505Y1434095*
X1705568Y1434124*
X1705631Y1434152*
X1705694Y1434178*
X1705759Y1434203*
X1705824Y1434225*
X1705889Y1434246*
X1705956Y1434266*
X1706022Y1434283*
X1706090Y1434299*
X1706158Y1434312*
X1706226Y1434324*
X1704805Y1429283D02*
X1704735Y1429347D01*
X1704667Y1429414*
X1704602Y1429483*
X1704539Y1429554*
X1704479Y1429627*
X1704422Y1429702*
X1704368Y1429779*
X1704317Y1429858*
X1704268Y1429939*
X1704222Y1430021*
X1704179Y1430104*
X1704138Y1430189*
X1704101Y1430276*
X1704066Y1430364*
X1704034Y1430452*
X1704004Y1430542*
X1703978Y1430633*
X1703954Y1430724*
X1703933Y1430817*
X1703915Y1430910*
X1703900Y1431003*
X1703888Y1431097*
X1703878Y1431191*
X1703872Y1431286*
X1703868Y1431381*
X1703867Y1431475*
X1703869Y1431570*
X1703874Y1431665*
X1703881Y1431759*
X1703892Y1431853*
X1703905Y1431947*
X1703922Y1432040*
X1703941Y1432133*
X1703963Y1432224*
X1703988Y1432315*
X1704016Y1432406*
X1704047Y1432495*
X1704081Y1432583*
X1704118Y1432669*
X1708039Y1428791D02*
X1707960Y1428755D01*
X1707880Y1428721*
X1707799Y1428690*
X1707717Y1428661*
X1707634Y1428635*
X1707551Y1428611*
X1707467Y1428590*
X1707382Y1428571*
X1707296Y1428554*
X1707211Y1428541*
X1707124Y1428529*
X1707038Y1428520*
X1706951Y1428514*
X1706864Y1428510*
X1706777Y1428509*
X1706690Y1428510*
X1706603Y1428514*
X1706517Y1428520*
X1706430Y1428528*
X1706344Y1428539*
X1706258Y1428553*
X1706173Y1428569*
X1706088Y1428588*
X1706004Y1428609*
X1705921Y1428632*
X1705838Y1428658*
X1705756Y1428687*
X1705675Y1428718*
X1705596Y1428751*
X1705517Y1428787*
X1705439Y1428826*
X1705363Y1428866*
X1705288Y1428910*
X1705214Y1428956*
X1705142Y1429004*
X1705071Y1429055*
X1705002Y1429108*
X1704935Y1429164*
X1704869Y1429223*
X1709159Y1429755D02*
X1709136Y1429725D01*
X1709114Y1429695*
X1709091Y1429665*
X1709068Y1429636*
X1709045Y1429607*
X1709021Y1429578*
X1708998Y1429549*
X1708973Y1429521*
X1708949Y1429493*
X1708924Y1429465*
X1708899Y1429437*
X1708873Y1429410*
X1708848Y1429383*
X1708822Y1429356*
X1708795Y1429329*
X1708769Y1429303*
X1708742Y1429277*
X1708715Y1429252*
X1708687Y1429226*
X1708659Y1429202*
X1708631Y1429177*
X1708603Y1429153*
X1708574Y1429129*
X1708545Y1429106*
X1708516Y1429083*
X1708486Y1429060*
X1708456Y1429038*
X1708426Y1429016*
X1708395Y1428995*
X1708364Y1428974*
X1708333Y1428954*
X1708302Y1428934*
X1708270Y1428914*
X1708238Y1428895*
X1708206Y1428877*
X1708206D02*
X1708173Y1428858D01*
X1708140Y1428841*
X1708107Y1428824*
X1708073Y1428807*
X1709604Y1432041D02*
X1709615Y1431983D01*
X1709625Y1431924*
X1709634Y1431865*
X1709642Y1431806*
X1709649Y1431746*
X1709654Y1431687*
X1709658Y1431627*
X1709662Y1431567*
X1709664Y1431507*
X1709665Y1431447*
X1709664Y1431388*
X1709663Y1431328*
X1709661Y1431268*
X1709657Y1431208*
X1709652Y1431148*
X1709646Y1431089*
X1709639Y1431029*
X1709631Y1430970*
X1709621Y1430911*
X1709611Y1430852*
X1709599Y1430793*
X1709586Y1430735*
X1709572Y1430676*
X1709557Y1430619*
X1709541Y1430561*
X1709524Y1430504*
X1709505Y1430447*
X1709485Y1430391*
X1709464Y1430335*
X1709442Y1430279*
X1709419Y1430224*
X1709395Y1430170*
X1709369Y1430116*
X1709343Y1430062*
X1709315Y1430009*
X1709286Y1429957*
X1709256Y1429905*
X1709225Y1429854*
X1709192Y1429804*
X1708158Y1434034D02*
X1708212Y1434002D01*
X1708266Y1433968*
X1708318Y1433933*
X1708371Y1433898*
X1708423Y1433861*
X1708474Y1433823*
X1708524Y1433784*
X1708574Y1433745*
X1708623Y1433704*
X1708672Y1433662*
X1708719Y1433620*
X1708766Y1433576*
X1708812Y1433532*
X1708857Y1433487*
X1708901Y1433440*
X1708944Y1433393*
X1708987Y1433345*
X1709028Y1433297*
X1709068Y1433247*
X1709107Y1433197*
X1709145Y1433145*
X1709182Y1433093*
X1709217Y1433041*
X1709251Y1432987*
X1709284Y1432933*
X1709316Y1432878*
X1709346Y1432822*
X1709376Y1432766*
X1709403Y1432709*
X1709429Y1432651*
X1709454Y1432593*
X1709477Y1432534*
X1709499Y1432474*
X1709519Y1432414*
X1709537Y1432354*
X1709554Y1432292*
X1709569Y1432230*
X1709583Y1432168*
X1709594Y1432105*
X1706295Y1434334D02*
X1706342Y1434339D01*
X1706390Y1434344*
X1706437Y1434348*
X1706485Y1434352*
X1706533Y1434355*
X1706581Y1434358*
X1706629Y1434360*
X1706677Y1434362*
X1706725Y1434363*
X1706774*
X1706822*
X1706870Y1434362*
X1706918Y1434361*
X1706966Y1434359*
X1707014Y1434356*
X1707062Y1434353*
X1707110Y1434349*
X1707158Y1434344*
X1707206Y1434339*
X1707253Y1434333*
X1707301Y1434326*
X1707348Y1434318*
X1707395Y1434310*
X1707442Y1434301*
X1707489Y1434291*
X1707535Y1434280*
X1707582Y1434268*
X1707628Y1434256*
X1707674Y1434242*
X1707719Y1434228*
X1707765Y1434213*
X1707810Y1434197*
X1707854Y1434180*
X1707899Y1434162*
X1707943Y1434143*
X1707987Y1434123*
X1708030Y1434102*
X1708073Y1434081*
X1708116Y1434058*
X1698715Y1435675D02*
X1698716Y1435712D01*
X1698716D02*
Y1435748D01*
X1698717Y1435784*
Y1435820*
Y1435857*
X1698716Y1435893*
Y1435930*
X1698715Y1435966*
Y1436003*
X1698714Y1436039*
X1698713Y1436076*
Y1436113*
X1698712Y1436149*
X1698711Y1436186*
Y1436223*
Y1436259*
Y1436296*
Y1436332*
Y1436369*
X1698712Y1436405*
X1698713Y1436442*
X1698714Y1436478*
X1698715Y1436515*
X1698717Y1436551*
X1698720Y1436587*
X1698723Y1436624*
X1698726Y1436660*
X1698730Y1436696*
X1698734Y1436732*
X1698739Y1436768*
X1698745Y1436804*
X1698751Y1436839*
X1698758Y1436875*
X1698766Y1436910*
X1698775Y1436946*
X1698784Y1436981*
X1698794Y1437016*
X1698805Y1437051*
X1698817Y1437086*
X1741155Y1404754D02*
X1741147Y1404678D01*
X1741135Y1404603*
X1741119Y1404530*
X1741100Y1404458*
X1741078Y1404387*
X1741053Y1404317*
X1741025Y1404249*
X1740994Y1404183*
X1740960Y1404118*
X1740923Y1404054*
X1740884Y1403992*
X1740842Y1403932*
X1740798Y1403873*
X1740752Y1403816*
X1740703Y1403761*
X1740652Y1403708*
X1740599Y1403656*
X1740544Y1403607*
X1740487Y1403559*
X1740429Y1403513*
X1740369Y1403469*
X1740307Y1403428*
X1740244Y1403388*
X1740179Y1403351*
X1740113Y1403315*
X1740046Y1403282*
X1739978Y1403251*
X1739909Y1403223*
X1739839Y1403196*
X1739769Y1403173*
X1739769D02*
X1739697Y1403151D01*
X1739625Y1403132*
X1739552Y1403116*
X1739480Y1403102*
X1739406Y1403091*
X1739333Y1403082*
X1739259Y1403076*
X1739186Y1403073*
X1739112Y1403072*
X1739039Y1438356D02*
X1739115Y1438359D01*
X1739191Y1438358*
X1739267Y1438354*
X1739344Y1438348*
X1739420Y1438339*
X1739496Y1438326*
X1739572Y1438311*
X1739647Y1438293*
X1739722Y1438273*
X1739796Y1438249*
X1739870Y1438223*
X1739942Y1438195*
X1740014Y1438164*
X1740084Y1438130*
X1740154Y1438095*
X1740221Y1438056*
X1740288Y1438016*
X1740353Y1437973*
X1740416Y1437928*
X1740477Y1437881*
X1740537Y1437831*
X1740594Y1437780*
X1740650Y1437727*
X1740703Y1437671*
X1740754Y1437614*
X1740802Y1437555*
X1740848Y1437494*
X1740891Y1437431*
X1740931Y1437366*
X1740968Y1437300*
X1741002Y1437232*
X1741034Y1437163*
X1741061Y1437092*
X1741086Y1437020*
X1741107Y1436946*
X1741124Y1436871*
X1741138Y1436794*
X1741148Y1436716*
X1741154Y1436637*
X1698829Y1437121D02*
X1698854Y1437179D01*
X1698881Y1437236*
X1698910Y1437292*
X1698940Y1437346*
X1698973Y1437400*
X1699007Y1437452*
X1699043Y1437503*
X1699080Y1437553*
X1699119Y1437602*
X1699160Y1437649*
X1699202Y1437695*
X1699246Y1437740*
X1699291Y1437783*
X1699337Y1437825*
X1699385Y1437866*
X1699434Y1437905*
X1699484Y1437942*
X1699535Y1437978*
X1699587Y1438013*
X1699640Y1438046*
X1699694Y1438078*
X1699749Y1438108*
X1699805Y1438136*
X1699862Y1438163*
X1699919Y1438188*
X1699978Y1438212*
X1700036Y1438234*
X1700096Y1438254*
X1700156Y1438272*
X1700216Y1438289*
X1700277Y1438304*
X1700339Y1438317*
X1700400Y1438329*
X1700462Y1438338*
X1700524Y1438346*
X1700586Y1438352*
X1700649Y1438356*
X1700711Y1438358*
X1700774*
X1740903Y1438221D02*
X1740874Y1438246D01*
X1740874D02*
X1740843Y1438272D01*
X1740843D02*
X1740813Y1438296D01*
X1740782Y1438320*
X1740750Y1438344*
X1740718Y1438367*
X1740686Y1438390*
X1740654Y1438412*
X1740621Y1438433*
X1740588Y1438454*
X1740555Y1438475*
X1740522Y1438495*
X1740488Y1438515*
X1740454Y1438534*
X1740419Y1438552*
X1740384Y1438571*
X1740350Y1438588*
X1740314Y1438605*
X1740279Y1438622*
X1740243Y1438639*
X1740208Y1438654*
X1740172Y1438670*
X1740135Y1438685*
X1740099Y1438699*
X1740062Y1438713*
X1740026Y1438727*
X1739989Y1438740*
X1739952Y1438753*
X1739914Y1438765*
X1739877Y1438777*
X1739840Y1438789*
X1739802Y1438800*
X1739764Y1438811*
X1739726Y1438821*
X1739688Y1438831*
X1739650Y1438841*
X1739612Y1438850*
X1739574Y1438859*
X1739536Y1438867*
X1741676Y1436517D02*
X1741677Y1436565D01*
Y1436614*
X1741676Y1436662*
X1741673Y1436711*
X1741670Y1436759*
X1741665Y1436807*
X1741659Y1436855*
X1741652Y1436903*
X1741644Y1436951*
X1741634Y1436998*
X1741624Y1437045*
X1741612Y1437092*
X1741600Y1437139*
X1741586Y1437185*
X1741571Y1437231*
X1741556Y1437277*
X1741539Y1437322*
X1741521Y1437367*
X1741502Y1437411*
X1741483Y1437455*
X1741462Y1437499*
X1741440Y1437542*
X1741418Y1437585*
X1741394Y1437627*
X1741370Y1437669*
X1741344Y1437710*
X1741318Y1437751*
X1741291Y1437791*
X1741263Y1437830*
X1741234Y1437869*
X1741205Y1437908*
X1741174Y1437945*
X1741143Y1437982*
X1741111Y1438018*
X1741078Y1438054*
X1741045Y1438089*
X1741011Y1438123*
X1740976Y1438156*
X1740940Y1438189*
X1741390Y1403800D02*
X1741408Y1403829D01*
X1741426Y1403859*
X1741442Y1403889*
X1741458Y1403919*
X1741474Y1403950*
X1741488Y1403981*
X1741502Y1404012*
X1741516Y1404043*
X1741529Y1404075*
X1741541Y1404106*
X1741553Y1404138*
X1741564Y1404170*
X1741574Y1404203*
X1741584Y1404235*
X1741593Y1404268*
X1741602Y1404301*
X1741610Y1404334*
X1741618Y1404367*
X1741625Y1404401*
X1741632Y1404434*
X1741638Y1404468*
X1741644Y1404501*
X1741650Y1404535*
X1741654Y1404569*
X1741659Y1404603*
X1741663Y1404637*
X1741667Y1404671*
X1741670Y1404705*
X1741673Y1404739*
X1741675Y1404773*
X1741677Y1404807*
X1741679Y1404842*
X1741680Y1404876*
X1741681Y1404910*
X1741682Y1404944*
Y1404978*
Y1405012*
Y1405046*
X1741681Y1405080*
X1739495Y1402555D02*
X1739552Y1402566D01*
X1739609Y1402579*
X1739665Y1402592*
X1739722Y1402606*
X1739779Y1402621*
X1739835Y1402637*
X1739891Y1402655*
X1739947Y1402673*
X1740002Y1402692*
X1740057Y1402713*
X1740112Y1402734*
X1740166Y1402756*
X1740220Y1402780*
X1740273Y1402804*
X1740326Y1402830*
X1740378Y1402856*
X1740430Y1402884*
X1740481Y1402912*
X1740532Y1402942*
X1740582Y1402973*
X1740631Y1403004*
X1740679Y1403037*
X1740727Y1403071*
X1740774Y1403105*
X1740820Y1403141*
X1740865Y1403178*
X1740909Y1403216*
X1740953Y1403255*
X1740995Y1403294*
X1741037Y1403335*
X1741077Y1403377*
X1741116Y1403420*
X1741155Y1403464*
X1741192Y1403509*
X1741228Y1403555*
X1741263Y1403602*
X1741297Y1403650*
X1741329Y1403699*
X1741360Y1403749*
X1699039Y1438273D02*
X1699067Y1438298D01*
X1699096Y1438321*
X1699125Y1438345*
X1699154Y1438367*
X1699184Y1438389*
X1699215Y1438411*
X1699245Y1438432*
X1699245D02*
X1699276Y1438452D01*
X1699307Y1438472*
X1699339Y1438491*
X1699371Y1438510*
X1699403Y1438528*
X1699435Y1438546*
X1699468Y1438563*
X1699501Y1438580*
X1699534Y1438597*
X1699567Y1438613*
X1699601Y1438628*
X1699635Y1438643*
X1699669Y1438658*
X1699703Y1438672*
X1699738Y1438686*
X1699772Y1438699*
X1699807Y1438712*
X1699842Y1438725*
X1699877Y1438737*
X1699912Y1438749*
X1699947Y1438761*
X1699983Y1438772*
X1700018Y1438783*
X1700054Y1438793*
X1700090Y1438804*
X1700126Y1438814*
X1700161Y1438823*
X1700197Y1438833*
X1700233Y1438842*
X1700269Y1438850*
X1700305Y1438859*
X1700341Y1438867*
X1698197Y1436857D02*
X1698207Y1436898D01*
X1698216Y1436939*
X1698227Y1436980*
X1698238Y1437020*
X1698249Y1437061*
X1698262Y1437101*
X1698274Y1437141*
X1698288Y1437181*
X1698301Y1437221*
X1698316Y1437260*
X1698331Y1437300*
X1698347Y1437339*
X1698363Y1437378*
X1698380Y1437416*
X1698397Y1437454*
X1698415Y1437492*
X1698434Y1437530*
X1698453Y1437567*
X1698473Y1437604*
X1698494Y1437641*
X1698515Y1437677*
X1698537Y1437713*
X1698559Y1437748*
X1698582Y1437783*
X1698606Y1437818*
X1698630Y1437852*
X1698655Y1437886*
X1698681Y1437919*
X1698707Y1437952*
X1698734Y1437984*
X1698761Y1438015*
X1698790Y1438046*
X1698818Y1438077*
X1698848Y1438107*
X1698878Y1438136*
X1698909Y1438165*
X1698940Y1438193*
X1698972Y1438220*
X1699005Y1438247*
X1722958Y1426509D02*
Y1423636D01*
X1735997Y1423596D02*
Y1426675D01*
X1741155Y1436557D02*
Y1404754D01*
X1741676Y1436517D02*
X1741681Y1405114D01*
X1700377Y1438875D02*
X1739497D01*
X1700836Y1438356D02*
X1739039D01*
X1730798Y1423595D02*
X1730796Y1413595D01*
X1730797Y1433235D02*
X1730798Y1426676D01*
X1703998Y1427075D02*
X1709517D01*
X1714438D02*
X1719957D01*
X1725316Y1413755D02*
X1725317Y1423635D01*
X1719957Y1427075D02*
Y1407236D01*
X1714438D02*
Y1427075D01*
X1709517D02*
Y1407236D01*
X1703998*
X1719957D02*
X1714438D01*
X1703998D02*
Y1427075D01*
X1739039Y1403075D02*
X1698718Y1403076D01*
X1739495Y1402555D02*
X1698197D01*
X1698718Y1403076D02*
X1698715Y1435675D01*
X1698197Y1402555D02*
Y1436857D01*
G54D61*
X2193976Y1606862D03*
Y1616862D03*
Y1626862D03*
Y1636862D03*
Y1646862D03*
Y1656862D03*
Y1666862D03*
X2003819Y1641311D03*
Y1631311D03*
Y1621311D03*
Y1611311D03*
Y1601311D03*
Y1591311D03*
Y1581311D03*
Y1571311D03*
Y1561311D03*
X2193976Y1696941D03*
Y1706941D03*
Y1716941D03*
Y1726941D03*
Y1736941D03*
X2003819Y1726941D03*
Y1716941D03*
Y1706941D03*
Y1696941D03*
Y1686941D03*
Y1676941D03*
Y1666941D03*
X1995945Y1492689D03*
Y1502689D03*
Y1512689D03*
Y1522689D03*
X1927921Y1715209D03*
X1937921D03*
X1961921D03*
X1971921D03*
X1964921Y1645209D03*
X1954921D03*
X1944921D03*
X1956220Y1604264D03*
X2094283Y1609067D03*
X2084283D03*
X2060283D03*
X2050283D03*
X2057283Y1679067D03*
X2067283D03*
X2077283D03*
X1881614Y1594697D03*
X1891614D03*
X1881614Y1604697D03*
X1891614D03*
X1881614Y1614697D03*
X1891614D03*
X1881614Y1624697D03*
X1891614D03*
X1881614Y1634697D03*
X1891614D03*
X1881614Y1644697D03*
X1891614D03*
X1881614Y1654697D03*
X1891614D03*
X1881614Y1664697D03*
X1891614D03*
X1881614Y1674697D03*
X1891614D03*
X1881614Y1684697D03*
X1891614D03*
X1881614Y1694697D03*
X1891614D03*
X1881614Y1704697D03*
X1891614D03*
Y1714697D03*
X1881614D03*
X1891614Y1724697D03*
Y1584697D03*
X1881614D03*
X1891614Y1574697D03*
X1881614D03*
X1891614Y1564697D03*
X1881614D03*
X1891614Y1554697D03*
X1881614D03*
X1891614Y1544697D03*
X1881614D03*
X1891614Y1534697D03*
X1881614D03*
G54D63*
X1993976Y1601114D03*
X2014449Y1676705D03*
X2014843Y1666862D03*
X2014449Y1651114D03*
X2014055Y1641665D03*
X2013661Y1631429D03*
X1994370Y1621193D03*
X1993976Y1610957D03*
X1992795Y1571587D03*
X1993189Y1561350D03*
X2030197Y1717650D03*
X2181772Y1736941D03*
X2182165Y1686941D03*
Y1697177D03*
X2181772Y1707020D03*
Y1716862D03*
X2203425Y1727098D03*
X2015236Y1581035D03*
X2014055Y1727098D03*
Y1736941D03*
Y1716862D03*
X1994370Y1707020D03*
X2014843Y1696783D03*
X2014449Y1686941D03*
G54D65*
X1790945Y1554264D03*
X1785984D03*
X1784803Y1631035D03*
X1789764D03*
X1784803Y1638122D03*
X1789764D03*
X1784803Y1644815D03*
X1789764D03*
X2038976Y1710957D03*
X2034016D03*
X2050000D03*
X2045039D03*
X2037795Y1741272D03*
X2032835D03*
X1804094Y1580642D03*
X1809055D03*
X1790945Y1600720D03*
X1785984D03*
X2027323Y1495996D03*
X2032283D03*
X2027323Y1515681D03*
X2032283D03*
X2027323Y1528280D03*
X2032283D03*
X2027323Y1483791D03*
X2032283D03*
X1787402Y1732610D03*
X1782441D03*
X1784803Y1623555D03*
X1789764D03*
X1790945Y1573949D03*
X1785984D03*
X1790945Y1567650D03*
X1785984D03*
X1790945Y1593634D03*
X1785984D03*
X1790945Y1580642D03*
X1785984D03*
X1790945Y1560957D03*
X1785984D03*
X1787795Y1708201D03*
X1782835D03*
X1787402Y1718437D03*
X1782441D03*
X1782835Y1698358D03*
X1787795D03*
X2011811Y1528280D03*
X2006850D03*
X2011811Y1515287D03*
X2006850D03*
X2011811Y1495996D03*
X2006850D03*
X2011811Y1483791D03*
X2006850D03*
X1787402Y1725524D03*
X1782441D03*
X2050157Y1695602D03*
X2055118D03*
X2034016Y1702689D03*
X2038976D03*
X2045039D03*
X2050000D03*
X2038740Y1717650D03*
X2043701D03*
X2061969Y1695602D03*
X2066929D03*
X2072205Y1668043D03*
X2077165D03*
X2092126D03*
X2087165D03*
X2183465Y1727098D03*
X2178504D03*
X2011811Y1521980D03*
X2006850D03*
X2011811Y1509382D03*
X2006850D03*
X2011811Y1502295D03*
X2006850D03*
X2011811Y1489697D03*
X2006850D03*
X1790945Y1587335D03*
X1785984D03*
G54D67*
X1784567Y1409368D02*
Y1404201D01*
Y1409368D02*
X1785999Y1404201D01*
X1787430Y1409368D02*
X1785999Y1404201D01*
X1787430Y1409368D02*
Y1404201D01*
X1789220Y1404693D02*
X1789041Y1404447D01*
X1789220Y1404201*
X1789399Y1404447*
X1789220Y1404693*
X1793694Y1408138D02*
X1793515Y1408630D01*
X1793157Y1409122*
X1792799Y1409368*
X1792083*
X1791725Y1409122*
X1791367Y1408630*
X1791188Y1408138*
X1791009Y1407400*
Y1406169*
X1791188Y1405431*
X1791367Y1404939*
X1791725Y1404447*
X1792083Y1404201*
X1792799*
X1793157Y1404447*
X1793515Y1404939*
X1793694Y1405431*
X1795304Y1407646D02*
Y1404201D01*
Y1406169D02*
X1795483Y1406907D01*
X1795841Y1407400*
X1796199Y1407646*
X1796736*
X1798346Y1406169D02*
X1800494D01*
Y1406661*
X1800315Y1407154*
X1800136Y1407400*
X1799778Y1407646*
X1799241*
X1798883Y1407400*
X1798525Y1406907*
X1798346Y1406169*
Y1405677*
X1798525Y1404939*
X1798883Y1404447*
X1799241Y1404201*
X1799778*
X1800136Y1404447*
X1800494Y1404939*
X1802104Y1407646D02*
Y1402478D01*
Y1406907D02*
X1802462Y1407400D01*
X1802820Y1407646*
X1803357*
X1803715Y1407400*
X1804073Y1406907*
X1804252Y1406169*
Y1405677*
X1804073Y1404939*
X1803715Y1404447*
X1803357Y1404201*
X1802820*
X1802462Y1404447*
X1802104Y1404939*
X1808010Y1407646D02*
Y1404201D01*
Y1406907D02*
X1807652Y1407400D01*
X1807294Y1407646*
X1806757*
X1806399Y1407400*
X1806041Y1406907*
X1805863Y1406169*
Y1405677*
X1806041Y1404939*
X1806399Y1404447*
X1806757Y1404201*
X1807294*
X1807652Y1404447*
X1808010Y1404939*
X1809621Y1409368D02*
Y1404201D01*
X1813379Y1409368D02*
Y1404201D01*
Y1406907D02*
X1813021Y1407400D01*
X1812663Y1407646*
X1812126*
X1811768Y1407400*
X1811410Y1406907*
X1811231Y1406169*
Y1405677*
X1811410Y1404939*
X1811768Y1404447*
X1812126Y1404201*
X1812663*
X1813021Y1404447*
X1813379Y1404939*
X1814989Y1409368D02*
X1815168Y1409122D01*
X1815347Y1409368*
X1815168Y1409614*
X1814989Y1409368*
X1815168Y1407646D02*
Y1404201D01*
G54D68*
X1882452Y1439549D02*
X1881915Y1439303D01*
X1881557Y1438565*
X1881378Y1437335*
Y1436596*
X1881557Y1435366*
X1881915Y1434628*
X1882452Y1434382*
X1882810*
X1883346Y1434628*
X1883704Y1435366*
X1883883Y1436596*
Y1437335*
X1883704Y1438565*
X1883346Y1439303*
X1882810Y1439549*
X1882452*
X1887999D02*
X1886210Y1434382D01*
X1885494Y1439549D02*
X1887999D01*
X1889789Y1434874D02*
X1889610Y1434628D01*
X1889789Y1434382*
X1889968Y1434628*
X1889789Y1434874*
X1892652Y1439549D02*
X1892115Y1439303D01*
X1891757Y1438565*
X1891578Y1437335*
Y1436596*
X1891757Y1435366*
X1892115Y1434628*
X1892652Y1434382*
X1893010*
X1893547Y1434628*
X1893905Y1435366*
X1894084Y1436596*
Y1437335*
X1893905Y1438565*
X1893547Y1439303*
X1893010Y1439549*
X1892652*
X1898021D02*
X1896231D01*
X1896052Y1437335*
X1896231Y1437581*
X1896768Y1437827*
X1897305*
X1897842Y1437581*
X1898200Y1437089*
X1898379Y1436350*
X1898200Y1435858*
X1898021Y1435120*
X1897663Y1434628*
X1897126Y1434382*
X1896589*
X1896052Y1434628*
X1895873Y1434874*
X1895694Y1435366*
X1900168Y1434874D02*
X1899989Y1434628D01*
X1900168Y1434382*
X1900347Y1434628*
X1900168Y1434874*
X1902137Y1438319D02*
Y1438565D01*
X1902316Y1439057*
X1902495Y1439303*
X1902853Y1439549*
X1903568*
X1903926Y1439303*
X1904105Y1439057*
X1904284Y1438565*
Y1438073*
X1904105Y1437581*
X1903747Y1436843*
X1901958Y1434382*
X1904463*
X1907147Y1439549D02*
X1906611Y1439303D01*
X1906253Y1438565*
X1906074Y1437335*
Y1436596*
X1906253Y1435366*
X1906611Y1434628*
X1907147Y1434382*
X1907505*
X1908042Y1434628*
X1908400Y1435366*
X1908579Y1436596*
Y1437335*
X1908400Y1438565*
X1908042Y1439303*
X1907505Y1439549*
X1907147*
X1910369Y1438319D02*
Y1438565D01*
X1910548Y1439057*
X1910727Y1439303*
X1911084Y1439549*
X1911800*
X1912158Y1439303*
X1912337Y1439057*
X1912516Y1438565*
Y1438073*
X1912337Y1437581*
X1911979Y1436843*
X1910190Y1434382*
X1912695*
X1915379Y1439549D02*
X1914843Y1439303D01*
X1914485Y1438565*
X1914306Y1437335*
Y1436596*
X1914485Y1435366*
X1914843Y1434628*
X1915379Y1434382*
X1915737*
X1916274Y1434628*
X1916632Y1435366*
X1916811Y1436596*
Y1437335*
X1916632Y1438565*
X1916274Y1439303*
X1915737Y1439549*
X1915379*
G54D89*
X2245157Y1487728D03*
X1764843D03*
Y1771193D03*
X2245157D03*
G54D90*
X2193976Y1596862D03*
X2003819Y1651311D03*
X2193976Y1686941D03*
X2003819Y1736941D03*
X1995945Y1482689D03*
X1934921Y1645209D03*
X1926220Y1604264D03*
X2087283Y1679067D03*
X1881614Y1724697D03*
G54D91*
X2114094Y1776980D03*
X2124094D03*
X2134094D03*
X2169094Y1751980D03*
X2164094Y1726980D03*
X2119094Y1776980D03*
X2129094D03*
X2154094Y1756980D03*
X2169094Y1746980D03*
Y1756980D03*
X2179094Y1751980D03*
X2174094D03*
X2099094Y1721980D03*
X2164094Y1731980D03*
Y1756980D03*
X2174094Y1746980D03*
X2154094Y1761980D03*
X2104094Y1721980D03*
X2064094Y1736980D03*
X2074094Y1746980D03*
X2064094Y1751980D03*
X2099094Y1726980D03*
X2164094Y1736980D03*
X2069094Y1746980D03*
X2064094D03*
X2154094Y1766980D03*
X2164094Y1746980D03*
X2074094Y1761980D03*
Y1751980D03*
X2169094Y1706980D03*
X2164094Y1741980D03*
X2069094Y1751980D03*
X2074094Y1731980D03*
X2164094Y1751980D03*
X2144094Y1681980D03*
X2074094Y1756980D03*
X2169094Y1711980D03*
X2164094D03*
Y1716980D03*
X2069094Y1756980D03*
X2169094Y1696980D03*
X2159094Y1711980D03*
Y1716980D03*
X2099094Y1696980D03*
X2079094Y1721980D03*
X2169094Y1716980D03*
X2154094Y1681980D03*
X2164094Y1721980D03*
X2104094Y1696980D03*
X2084094Y1721980D03*
X2149094Y1681980D03*
X2159094Y1721980D03*
X2109094Y1696980D03*
X2079094Y1726980D03*
X2169094Y1721980D03*
X2154094Y1686980D03*
X2169094Y1701980D03*
X2114094Y1696980D03*
X2084094Y1726980D03*
X2149094Y1686980D03*
X2159094D03*
X2109094Y1701980D03*
Y1711980D03*
X2169094Y1726980D03*
X2154094Y1691980D03*
X2164094D03*
X2114094Y1701980D03*
Y1711980D03*
X2149094Y1691980D03*
X2159094D03*
X2109094Y1706980D03*
Y1716980D03*
X2169094Y1731980D03*
X2154094Y1696980D03*
X2164094D03*
X2114094Y1706980D03*
Y1716980D03*
X2149094Y1696980D03*
X2159094D03*
X2169094Y1736980D03*
X2154094Y1701980D03*
X2164094D03*
X2149094D03*
X2159094D03*
X2139094Y1721980D03*
X2129094D03*
X2119094D03*
X2144094D03*
X2134094D03*
X2124094D03*
X2139094Y1716980D03*
X2129094D03*
X2119094D03*
X2144094Y1771980D03*
Y1716980D03*
X2134094D03*
X2124094D03*
X2149094Y1771980D03*
X2139094D03*
Y1711980D03*
X2129094D03*
X2119094D03*
X2144094Y1766980D03*
Y1711980D03*
X2134094D03*
X2124094D03*
X2149094Y1766980D03*
X2139094D03*
Y1706980D03*
X2129094D03*
X2119094D03*
X2144094Y1761980D03*
Y1706980D03*
X2134094D03*
X2124094D03*
X2149094Y1761980D03*
X2139094D03*
Y1701980D03*
X2129094D03*
X2119094D03*
X2144094Y1756980D03*
Y1701980D03*
X2134094D03*
X2124094D03*
X2149094Y1756980D03*
X2139094D03*
Y1696980D03*
X2129094D03*
X2119094D03*
X2144094Y1751980D03*
Y1696980D03*
X2134094D03*
X2124094D03*
X2149094Y1751980D03*
X2139094D03*
Y1691980D03*
X2129094D03*
X2119094D03*
X2144094Y1746980D03*
Y1691980D03*
X2134094D03*
X2124094D03*
X2149094Y1746980D03*
X2139094D03*
Y1686980D03*
X2129094D03*
X2119094D03*
X2144094Y1741980D03*
Y1686980D03*
X2134094D03*
X2124094D03*
X2149094Y1741980D03*
X2139094D03*
X2154094Y1751980D03*
Y1736980D03*
X2149094Y1721980D03*
X2144094Y1736980D03*
X2159094Y1751980D03*
Y1736980D03*
X2154094Y1721980D03*
X2149094Y1736980D03*
X2139094D03*
X2154094Y1746980D03*
Y1731980D03*
X2149094Y1716980D03*
X2144094Y1731980D03*
X2159094Y1746980D03*
Y1731980D03*
X2154094Y1716980D03*
X2149094Y1731980D03*
X2139094D03*
X2154094Y1741980D03*
Y1726980D03*
X2149094Y1711980D03*
X2144094Y1726980D03*
X2159094Y1741980D03*
Y1726980D03*
X2154094Y1711980D03*
X2149094Y1726980D03*
X2139094D03*
X2159094Y1706980D03*
X2149094D03*
X2164094D03*
X2154094D03*
X2169094Y1741980D03*
X2129094Y1771980D03*
X2119094D03*
X2109094D03*
X2099094D03*
X2134094D03*
X2124094D03*
X2114094D03*
X2104094D03*
X2094094D03*
X2129094Y1766980D03*
X2119094D03*
X2109094D03*
X2099094D03*
X2134094D03*
X2124094D03*
X2114094D03*
X2104094D03*
X2094094D03*
X2129094Y1761980D03*
X2119094D03*
X2109094D03*
X2099094D03*
X2134094D03*
X2124094D03*
X2114094D03*
X2104094D03*
X2094094D03*
X2129094Y1756980D03*
X2119094D03*
X2109094D03*
X2099094D03*
X2134094D03*
X2124094D03*
X2114094D03*
X2104094D03*
X2094094D03*
X2129094Y1751980D03*
X2119094D03*
X2109094D03*
X2099094D03*
X2134094D03*
X2124094D03*
X2114094D03*
X2104094D03*
X2094094D03*
X2129094Y1746980D03*
X2119094D03*
X2109094D03*
X2099094D03*
X2134094D03*
X2124094D03*
X2114094D03*
X2104094D03*
X2094094D03*
X2129094Y1741980D03*
X2119094D03*
X2109094D03*
X2099094D03*
X2134094D03*
X2124094D03*
X2114094D03*
X2104094D03*
X2094094D03*
X2129094Y1736980D03*
X2119094D03*
X2109094D03*
X2099094D03*
X2134094D03*
X2124094D03*
X2114094D03*
X2104094D03*
X2094094D03*
X2129094Y1731980D03*
X2119094D03*
X2109094D03*
X2099094D03*
X2134094D03*
X2124094D03*
X2114094D03*
X2104094D03*
X2094094D03*
X2129094Y1726980D03*
X2119094D03*
X2109094D03*
X2114094Y1721980D03*
X2134094Y1726980D03*
X2124094D03*
X2114094D03*
X2104094D03*
X2109094Y1721980D03*
X2104094Y1716980D03*
X2079094Y1771980D03*
X2084094D03*
X2089094D03*
X2094094Y1716980D03*
X2084094D03*
X2104094Y1711980D03*
X2079094Y1766980D03*
X2099094Y1716980D03*
X2089094D03*
X2079094D03*
X2084094Y1766980D03*
X2089094D03*
X2094094Y1711980D03*
X2084094D03*
X2104094Y1706980D03*
X2079094Y1761980D03*
X2099094Y1711980D03*
X2089094D03*
X2079094D03*
X2084094Y1761980D03*
X2089094D03*
X2094094Y1706980D03*
X2084094D03*
X2104094Y1701980D03*
X2079094Y1756980D03*
X2099094Y1706980D03*
X2089094D03*
X2079094D03*
X2084094Y1756980D03*
X2089094D03*
X2094094Y1701980D03*
X2084094D03*
X2154094Y1771980D03*
X2079094Y1751980D03*
X2099094Y1701980D03*
X2089094D03*
X2079094D03*
X2084094Y1751980D03*
X2089094D03*
Y1696980D03*
X2079094D03*
X2159094Y1766980D03*
X2079094Y1746980D03*
X2094094Y1696980D03*
X2084094D03*
X2159094Y1771980D03*
X2084094Y1746980D03*
X2089094D03*
X2134094Y1681980D03*
X2124094D03*
X2159094Y1761980D03*
X2079094Y1741980D03*
X2139094Y1681980D03*
X2129094D03*
X2119094D03*
X2084094Y1741980D03*
X2089094D03*
X2154094Y1776980D03*
X2144094D03*
X2159094Y1756980D03*
X2079094Y1736980D03*
X2159094Y1776980D03*
X2149094D03*
X2139094D03*
X2084094Y1736980D03*
X2089094D03*
X2074094Y1741980D03*
Y1736980D03*
X2069094Y1731980D03*
X2079094D03*
X2064094Y1741980D03*
X2069094D03*
Y1736980D03*
X2084094Y1731980D03*
X2089094D03*
X2059094Y1746980D03*
X2064094Y1731980D03*
X2144094Y1676980D03*
X2094094Y1726980D03*
X2174094Y1756980D03*
X2059094Y1741980D03*
X2149094Y1676980D03*
X2144094Y1671980D03*
X2089094Y1726980D03*
X2104094Y1776980D03*
X2094094D03*
X2084094D03*
X2094094Y1721980D03*
X2109094Y1776980D03*
X2099094D03*
X2089094D03*
X2079094D03*
X2089094Y1721980D03*
G54D92*
X2211929Y1699106D03*
Y1717528D03*
Y1673280D03*
Y1654858D03*
G54D93*
X1771339Y1718142D03*
Y1713220D03*
Y1708299D03*
Y1703378D03*
Y1698457D03*
Y1693614D03*
X1772126Y1646094D03*
Y1641173D03*
Y1636252D03*
Y1631331D03*
Y1626409D03*
Y1621567D03*
Y1581921D03*
Y1577000D03*
Y1572079D03*
Y1567157D03*
Y1562236D03*
Y1557394D03*
G54D94*
X1760512Y1728181D03*
Y1683496D03*
X1761299Y1656134D03*
Y1611449D03*
Y1656134D03*
Y1611449D03*
Y1591961D03*
Y1547276D03*
Y1591961D03*
Y1547276D03*
X1760512Y1728181D03*
Y1683496D03*
G54D95*
X1772717Y1646094D03*
Y1641173D03*
Y1636252D03*
Y1631331D03*
Y1626409D03*
Y1621488D03*
Y1581921D03*
Y1577000D03*
Y1572079D03*
Y1567157D03*
Y1562236D03*
Y1557315D03*
X1771929Y1718142D03*
Y1713220D03*
Y1708299D03*
Y1703378D03*
Y1698457D03*
Y1693535D03*
G54D96*
X2114016Y1486941D03*
X2129016D03*
X2144016D03*
X2246142Y1717709D03*
Y1732709D03*
X2246535Y1670504D03*
Y1685504D03*
X2247008Y1624244D03*
Y1639244D03*
X2246890Y1579008D03*
Y1594008D03*
X2247087Y1530268D03*
Y1545268D03*
X2060866Y1486941D03*
X2075866D03*
X2090866D03*
G54D97*
X2194272Y1764303D03*
X2189350D03*
X2184429D03*
X2179508D03*
X1986398Y1764697D03*
X1981476D03*
X1976555D03*
X1971634D03*
X2174783Y1493831D03*
X2179705D03*
X2184626D03*
X2189547D03*
X2194469D03*
X2199390D03*
X2204232D03*
X2209232D03*
X2057657Y1764697D03*
X2052736D03*
X2047815D03*
X2042894D03*
X2037972D03*
X2033051D03*
X2028209D03*
X2023209D03*
G54D98*
X2204311Y1775130D03*
X2169469D03*
X2204311D03*
X2169469D03*
X1855886Y1775524D03*
X1801358D03*
X1996437D03*
X1961594D03*
X1996437D03*
X1961594D03*
X2164744Y1483004D03*
X2219272D03*
X2164744D03*
X2219272D03*
X2067697Y1775524D03*
X2013169D03*
X2067697D03*
X2013169D03*
G54D99*
X2194272Y1763713D03*
X2189350D03*
X2184429D03*
X2179508D03*
X1845846Y1764106D03*
X1840925D03*
X1836004D03*
X1831083D03*
X1826161D03*
X1821240D03*
X1816319D03*
X1811398D03*
X1986398D03*
X1981476D03*
X1976555D03*
X1971634D03*
X2174783Y1494421D03*
X2179705D03*
X2184626D03*
X2189547D03*
X2194469D03*
X2199390D03*
X2204311D03*
X2209232D03*
X2057657Y1764106D03*
X2052736D03*
X2047815D03*
X2042894D03*
X2037972D03*
X2033051D03*
X2028130D03*
X2023209D03*
G54D100*
X1764843Y1523949D03*
Y1517650D03*
G54D101*
X1866811Y1484579D03*
G54D102*
X2058937Y1548358D03*
X2128465Y1671232D03*
G54D103*
X1919921Y1645209D03*
X1979921D03*
X2102283Y1679067D03*
X2042283D03*
G54D104*
X2034134Y1724343D03*
X2037934D03*
X2041734D03*
Y1733043D03*
X2034134D03*
G54D105*
X1764843Y1487728D02*
Y1517650D01*
X1926220Y1604264D02*
X1934921D01*
Y1645209*
X1944921D02*
Y1604264D01*
X1956220*
G54D106*
X2093849Y1579146D02*
Y1535887D01*
X2114016Y1515720*
Y1486941*
X2093849Y1579146D02*
Y1581922D01*
X2094283Y1582357*
Y1609067*
X2084283D02*
Y1616469D01*
X2084283D02*
X2097126D01*
X2097126D02*
X2108150Y1605445D01*
Y1601508*
X2129016Y1580642*
Y1486941*
X0Y0D02*
M02*
