*
*
G04 PADS VX.2.2 Build Number: 9893964 generated Gerber (RS-274-X) file*
G04 PC Version=2.1*
*
%IN "PCB_CTR1S_00.pcb"*%
*
%MOIN*%
*
%FSLAX35Y35*%
*
*
*
*
G04 PC Standard Apertures*
*
*
G04 Thermal Relief Aperture macro.*
%AMTER*
1,1,$1,0,0*
1,0,$1-$2,0,0*
21,0,$3,$4,0,0,45*
21,0,$3,$4,0,0,135*
%
*
*
G04 Annular Aperture macro.*
%AMANN*
1,1,$1,0,0*
1,0,$2,0,0*
%
*
*
G04 Odd Aperture macro.*
%AMODD*
1,1,$1,0,0*
1,0,$1-0.005,0,0*
%
*
*
G04 PC Custom Aperture Macros*
*
*
*
*
*
*
G04 PC Aperture Table*
*
%ADD010C,0.00394*%
%ADD011C,0.006*%
%ADD012C,0.004*%
%ADD014C,0.00591*%
%ADD016C,0.01*%
%ADD023C,0.01575*%
%ADD028C,0.001*%
%ADD037C,0.01181*%
%ADD046C,0.01969*%
%ADD052C,0.00787*%
%ADD067C,0.00591*%
%ADD068C,0.00591*%
%ADD070C,0.00984*%
%ADD071C,0.00472*%
*
*
*
*
G04 PC Circuitry*
G04 Layer Name PCB_CTR1S_00.pcb - circuitry*
%LPD*%
*
*
G04 PC Custom Flashes*
G04 Layer Name PCB_CTR1S_00.pcb - flashes*
%LPD*%
*
*
G04 PC Circuitry*
G04 Layer Name PCB_CTR1S_00.pcb - circuitry*
%LPD*%
*
G54D10*
G01X1749094Y1786941D02*
X1898307D01*
Y1735169*
X1946142*
Y1786941*
X2260906*
Y1471980*
X1981181*
Y1574375*
X1904803Y1574298*
Y1471980*
X1749094*
Y1786941*
X1694016Y1443965D02*
X2316063D01*
Y1365224*
X1694016*
Y1443965*
Y1396720D02*
X1745197D01*
Y1443965*
X1694016*
Y1396720*
X1745197Y1412469D02*
X1835748D01*
Y1428217*
X1745197*
Y1412469*
Y1396720D02*
X1835748D01*
Y1412469*
X1745197*
Y1396720*
X1922362D02*
X2316063D01*
Y1443965*
X1922362*
Y1396720*
Y1365224D02*
X2316063D01*
Y1396720*
X1922362*
Y1365224*
X1835748D02*
X1879055D01*
Y1396720*
X1835748*
Y1365224*
Y1428217D02*
X1922362D01*
Y1443965*
X1835748*
Y1428217*
Y1412469D02*
X1922362D01*
Y1428217*
X1835748*
Y1412469*
Y1396720D02*
X1922362D01*
Y1412469*
X1835748*
Y1396720*
G54D11*
X1768268Y1526823D02*
Y1514776D01*
X1761417*
Y1526823*
X1768268*
G54D12*
X1792665Y1552264D02*
Y1556264D01*
X1784265*
Y1552264*
X1792665*
X1783083Y1633035D02*
Y1629035D01*
X1791483*
Y1633035*
X1783083*
Y1640122D02*
Y1636122D01*
X1791483*
Y1640122*
X1783083*
Y1646815D02*
Y1642815D01*
X1791483*
Y1646815*
X1783083*
X2047094Y1722111D02*
X2051094D01*
Y1730511*
X2047094*
Y1722111*
X2040696Y1708957D02*
Y1712957D01*
X2032296*
Y1708957*
X2040696*
X2051720D02*
Y1712957D01*
X2043320*
Y1708957*
X2051720*
X2039515Y1739272D02*
Y1743272D01*
X2031115*
Y1739272*
X2039515*
X1802375Y1582642D02*
Y1578642D01*
X1810775*
Y1582642*
X1802375*
X1792665Y1598720D02*
Y1602720D01*
X1784265*
Y1598720*
X1792665*
X2025603Y1497996D02*
Y1493996D01*
X2034003*
Y1497996*
X2025603*
Y1517681D02*
Y1513681D01*
X2034003*
Y1517681*
X2025603*
Y1530280D02*
Y1526280D01*
X2034003*
Y1530280*
X2025603*
Y1485791D02*
Y1481791D01*
X2034003*
Y1485791*
X2025603*
X1789121Y1730610D02*
Y1734610D01*
X1780721*
Y1730610*
X1789121*
X1783083Y1625555D02*
Y1621555D01*
X1791483*
Y1625555*
X1783083*
X1792665Y1571949D02*
Y1575949D01*
X1784265*
Y1571949*
X1792665*
Y1565650D02*
Y1569650D01*
X1784265*
Y1565650*
X1792665*
Y1591634D02*
Y1595634D01*
X1784265*
Y1591634*
X1792665*
Y1578642D02*
Y1582642D01*
X1784265*
Y1578642*
X1792665*
Y1558957D02*
Y1562957D01*
X1784265*
Y1558957*
X1792665*
X1789515Y1706201D02*
Y1710201D01*
X1781115*
Y1706201*
X1789515*
X1789121Y1716437D02*
Y1720437D01*
X1780721*
Y1716437*
X1789121*
X1781115Y1700358D02*
Y1696358D01*
X1789515*
Y1700358*
X1781115*
X2013531Y1526280D02*
Y1530280D01*
X2005131*
Y1526280*
X2013531*
X1963693Y1742322D02*
X1959693D01*
Y1733922*
X1963693*
Y1742322*
X2013531Y1513287D02*
Y1517287D01*
X2005131*
Y1513287*
X2013531*
Y1493996D02*
Y1497996D01*
X2005131*
Y1493996*
X2013531*
Y1481791D02*
Y1485791D01*
X2005131*
Y1481791*
X2013531*
X1789121Y1723524D02*
Y1727524D01*
X1780721*
Y1723524*
X1789121*
X2048438Y1697602D02*
Y1693602D01*
X2056838*
Y1697602*
X2048438*
X2032296Y1704689D02*
Y1700689D01*
X2040696*
Y1704689*
X2032296*
X2043320D02*
Y1700689D01*
X2051720*
Y1704689*
X2043320*
X2037020Y1719650D02*
Y1715650D01*
X2045420*
Y1719650*
X2037020*
X2064024Y1705576D02*
X2068024D01*
Y1713976*
X2064024*
Y1705576*
Y1715812D02*
X2068024D01*
Y1724212*
X2064024*
Y1715812*
X2058575Y1724212D02*
X2054575D01*
Y1715812*
X2058575*
Y1724212*
X2060249Y1697602D02*
Y1693602D01*
X2068649*
Y1697602*
X2060249*
X2070485Y1670043D02*
Y1666043D01*
X2078885*
Y1670043*
X2070485*
X2093846Y1666043D02*
Y1670043D01*
X2085446*
Y1666043*
X2093846*
X2219929Y1749670D02*
X2223929D01*
Y1758070*
X2219929*
Y1749670*
X2210480D02*
X2214480D01*
Y1758070*
X2210480*
Y1749670*
X2201425D02*
X2205425D01*
Y1758070*
X2201425*
Y1749670*
X1970780Y1742322D02*
X1966780D01*
Y1733922*
X1970780*
Y1742322*
X2187252Y1749670D02*
X2191252D01*
Y1758070*
X2187252*
Y1749670*
X2185184Y1725098D02*
Y1729098D01*
X2176784*
Y1725098*
X2185184*
X2013531Y1519980D02*
Y1523980D01*
X2005131*
Y1519980*
X2013531*
Y1507382D02*
Y1511382D01*
X2005131*
Y1507382*
X2013531*
Y1500295D02*
Y1504295D01*
X2005131*
Y1500295*
X2013531*
Y1487697D02*
Y1491697D01*
X2005131*
Y1487697*
X2013531*
X1792665Y1585335D02*
Y1589335D01*
X1784265*
Y1585335*
X1792665*
G54D14*
X1996339Y1601114D02*
G75*
G03X1996339I-2363J0D01*
G01X1766811Y1730406D02*
X1772402D01*
Y1721350*
X1756890Y1723476D02*
Y1688240D01*
X1772441Y1689657D02*
Y1681232D01*
X1766811*
X1767598Y1658870D02*
X1769567D01*
Y1608713*
X1767598*
X1755000Y1658791D02*
X1753031D01*
X1753031D02*
Y1608673D01*
X1753031D02*
X1755000D01*
X1767598Y1658358D02*
X1773189D01*
Y1649303*
X1757677Y1651429D02*
Y1616193D01*
X1773228Y1617610D02*
Y1609185D01*
X1767598*
X2206575Y1768831D02*
Y1763240D01*
X2196142*
X2199409Y1778752D02*
X2174094D01*
X2177441Y1763201D02*
X2167205D01*
Y1768831*
X2206969D02*
Y1766862D01*
X2166811*
Y1768831*
X2206969Y1781429D02*
Y1783398D01*
X2166811*
Y1781429*
X1858583Y1769224D02*
Y1767256D01*
X1798661*
Y1769224*
X1858583Y1781823D02*
Y1783791D01*
X1798661*
Y1781823*
X1999094Y1769224D02*
Y1767256D01*
X1958937*
Y1769224*
X1999094Y1781823D02*
Y1783791D01*
X1958937*
Y1781823*
X1998701Y1769224D02*
Y1763634D01*
X1988268*
X1991535Y1779146D02*
X1966220D01*
X1969567Y1763594D02*
X1959331D01*
Y1769224*
X1767598Y1594697D02*
X1769567D01*
Y1544539*
X1767598*
X1755000Y1594618D02*
X1753031D01*
X1753031D02*
Y1544500D01*
X1753031D02*
X1755000D01*
X1767598Y1594185D02*
X1773189D01*
Y1585130*
X1757677Y1587256D02*
Y1552020D01*
X1773228Y1553437D02*
Y1545012D01*
X1767598*
X1766811Y1730917D02*
X1768780D01*
Y1680760*
X1766811*
X1754213Y1730839D02*
X1752244D01*
Y1680720*
X1754213*
X1862992Y1476547D02*
Y1492610D01*
X1870630*
Y1476547*
X1862992*
X2016811Y1676705D02*
G03X2016811I-2362J0D01*
G01X2017205Y1666862D02*
G03X2017205I-2362J0D01*
G01X2016811Y1651114D02*
G03X2016811I-2362J0D01*
G01X2016417Y1641665D02*
G03X2016417I-2362J0D01*
G01X2016024Y1631429D02*
G03X2016024I-2363J0D01*
G01X1996732Y1621193D02*
G03X1996732I-2362J0D01*
G01X1996339Y1610957D02*
G03X1996339I-2363J0D01*
G01X1995157Y1571587D02*
G03X1995157I-2362J0D01*
G01X1995551Y1561350D02*
G03X1995551I-2362J0D01*
G01X2050906Y1552177D02*
X2066969D01*
Y1544539*
X2050906*
Y1552177*
X2032559Y1717650D02*
G03X2032559I-2362J0D01*
G01X2184134Y1736941D02*
G03X2184134I-2362J0D01*
G01X2184528Y1686941D02*
G03X2184528I-2363J0D01*
G01Y1697177D02*
G03X2184528I-2363J0D01*
G01X2184134Y1707020D02*
G03X2184134I-2362J0D01*
G01Y1716862D02*
G03X2184134I-2362J0D01*
G01X2205787Y1727098D02*
G03X2205787I-2362J0D01*
G01X2017598Y1581035D02*
G03X2017598I-2362J0D01*
G01X2120433Y1675051D02*
X2136496D01*
Y1667413*
X2120433*
Y1675051*
X2016417Y1727098D02*
G03X2016417I-2362J0D01*
G01Y1736941D02*
G03X2016417I-2362J0D01*
G01Y1716862D02*
G03X2016417I-2362J0D01*
G01X1996732Y1707020D02*
G03X1996732I-2362J0D01*
G01X2017205Y1696783D02*
G03X2017205I-2362J0D01*
G01X2016811Y1686941D02*
G03X2016811I-2362J0D01*
G01X2162047Y1489303D02*
Y1491272D01*
X2221969*
Y1489303*
X2162047Y1476705D02*
Y1474736D01*
X2221969*
Y1476705*
X2162480Y1489303D02*
Y1494894D01*
X2172795*
X2169252Y1479382D02*
X2214685D01*
X2211142Y1494933D02*
X2221535D01*
Y1489303*
X2069961Y1769224D02*
Y1763634D01*
X2059646*
X2063189Y1779146D02*
X2017756D01*
X2021299Y1763594D02*
X2010906D01*
Y1769224*
X2070394D02*
Y1767256D01*
X2010472*
Y1769224*
X2070394Y1781823D02*
Y1783791D01*
X2010472*
Y1781823*
X1749134Y1441258D02*
Y1436091D01*
Y1441258D02*
X1750744D01*
X1751281Y1441012*
X1751460Y1440766*
X1751639Y1440274*
Y1439535*
X1751460Y1439043*
X1751281Y1438797*
X1750744Y1438551*
X1749134*
X1753250Y1439535D02*
Y1436091D01*
Y1438059D02*
X1753429Y1438797D01*
X1753787Y1439289*
X1754145Y1439535*
X1754681*
X1756292Y1438059D02*
X1758440D01*
Y1438551*
X1758261Y1439043*
X1758082Y1439289*
X1757724Y1439535*
X1757187*
X1756829Y1439289*
X1756471Y1438797*
X1756292Y1438059*
Y1437567*
X1756471Y1436829*
X1756829Y1436337*
X1757187Y1436091*
X1757724*
X1758082Y1436337*
X1758440Y1436829*
X1760050Y1439535D02*
Y1434368D01*
Y1438797D02*
X1760408Y1439289D01*
X1760766Y1439535*
X1761303*
X1761661Y1439289*
X1762019Y1438797*
X1762198Y1438059*
Y1437567*
X1762019Y1436829*
X1761661Y1436337*
X1761303Y1436091*
X1760766*
X1760408Y1436337*
X1760050Y1436829*
X1765956Y1439535D02*
Y1436091D01*
Y1438797D02*
X1765598Y1439289D01*
X1765240Y1439535*
X1764703*
X1764345Y1439289*
X1763987Y1438797*
X1763808Y1438059*
Y1437567*
X1763987Y1436829*
X1764345Y1436337*
X1764703Y1436091*
X1765240*
X1765598Y1436337*
X1765956Y1436829*
X1767566Y1439535D02*
Y1436091D01*
Y1438059D02*
X1767745Y1438797D01*
X1768103Y1439289*
X1768461Y1439535*
X1768998*
X1770608Y1438059D02*
X1772756D01*
Y1438551*
X1772577Y1439043*
X1772398Y1439289*
X1772040Y1439535*
X1771503*
X1771145Y1439289*
X1770787Y1438797*
X1770608Y1438059*
Y1437567*
X1770787Y1436829*
X1771145Y1436337*
X1771503Y1436091*
X1772040*
X1772398Y1436337*
X1772756Y1436829*
X1776514Y1441258D02*
Y1436091D01*
Y1438797D02*
X1776156Y1439289D01*
X1775798Y1439535*
X1775261*
X1774903Y1439289*
X1774545Y1438797*
X1774366Y1438059*
Y1437567*
X1774545Y1436829*
X1774903Y1436337*
X1775261Y1436091*
X1775798*
X1776156Y1436337*
X1776514Y1436829*
X1778304Y1439535D02*
X1778125Y1439289D01*
X1778304Y1439043*
X1778482Y1439289*
X1778304Y1439535*
Y1436583D02*
X1778125Y1436337D01*
X1778304Y1436091*
X1778482Y1436337*
X1778304Y1436583*
X1751818Y1424280D02*
X1751639Y1424772D01*
X1751281Y1425264*
X1750923Y1425510*
X1750208*
X1749850Y1425264*
X1749492Y1424772*
X1749313Y1424280*
X1749134Y1423541*
Y1422311*
X1749313Y1421573*
X1749492Y1421081*
X1749850Y1420589*
X1750208Y1420343*
X1750923*
X1751281Y1420589*
X1751639Y1421081*
X1751818Y1421573*
X1753429Y1425510D02*
Y1420343D01*
Y1422803D02*
X1753966Y1423541D01*
X1754324Y1423787*
X1754860*
X1755218Y1423541*
X1755397Y1422803*
Y1420343*
X1757008Y1422311D02*
X1759155D01*
Y1422803*
X1758976Y1423295*
X1758797Y1423541*
X1758440Y1423787*
X1757903*
X1757545Y1423541*
X1757187Y1423049*
X1757008Y1422311*
Y1421819*
X1757187Y1421081*
X1757545Y1420589*
X1757903Y1420343*
X1758440*
X1758797Y1420589*
X1759155Y1421081*
X1762913Y1423049D02*
X1762555Y1423541D01*
X1762198Y1423787*
X1761661*
X1761303Y1423541*
X1760945Y1423049*
X1760766Y1422311*
Y1421819*
X1760945Y1421081*
X1761303Y1420589*
X1761661Y1420343*
X1762198*
X1762555Y1420589*
X1762913Y1421081*
X1764524Y1425510D02*
Y1420343D01*
X1766314Y1423787D02*
X1764524Y1421327D01*
X1765240Y1422311D02*
X1766492Y1420343D01*
X1768103Y1422311D02*
X1770251D01*
Y1422803*
X1770072Y1423295*
X1769893Y1423541*
X1769535Y1423787*
X1768998*
X1768640Y1423541*
X1768282Y1423049*
X1768103Y1422311*
Y1421819*
X1768282Y1421081*
X1768640Y1420589*
X1768998Y1420343*
X1769535*
X1769893Y1420589*
X1770251Y1421081*
X1774009Y1425510D02*
Y1420343D01*
Y1423049D02*
X1773651Y1423541D01*
X1773293Y1423787*
X1772756*
X1772398Y1423541*
X1772040Y1423049*
X1771861Y1422311*
Y1421819*
X1772040Y1421081*
X1772398Y1420589*
X1772756Y1420343*
X1773293*
X1773651Y1420589*
X1774009Y1421081*
X1775798Y1423787D02*
X1775619Y1423541D01*
X1775798Y1423295*
X1775977Y1423541*
X1775798Y1423787*
Y1420835D02*
X1775619Y1420589D01*
X1775798Y1420343*
X1775977Y1420589*
X1775798Y1420835*
X1750565Y1409762D02*
X1749134Y1404594D01*
X1750565Y1409762D02*
X1751997Y1404594D01*
X1749671Y1406317D02*
X1751460D01*
X1753608Y1408039D02*
Y1402872D01*
Y1407301D02*
X1753966Y1407793D01*
X1754324Y1408039*
X1754860*
X1755218Y1407793*
X1755576Y1407301*
X1755755Y1406563*
Y1406071*
X1755576Y1405333*
X1755218Y1404841*
X1754860Y1404594*
X1754324*
X1753966Y1404841*
X1753608Y1405333*
X1757366Y1408039D02*
Y1402872D01*
Y1407301D02*
X1757724Y1407793D01*
X1758082Y1408039*
X1758618*
X1758976Y1407793*
X1759334Y1407301*
X1759513Y1406563*
Y1406071*
X1759334Y1405333*
X1758976Y1404841*
X1758618Y1404594*
X1758082*
X1757724Y1404841*
X1757366Y1405333*
X1761124Y1408039D02*
Y1404594D01*
Y1406563D02*
X1761303Y1407301D01*
X1761661Y1407793*
X1762019Y1408039*
X1762555*
X1765061D02*
X1764703Y1407793D01*
X1764345Y1407301*
X1764166Y1406563*
Y1406071*
X1764345Y1405333*
X1764703Y1404841*
X1765061Y1404594*
X1765598*
X1765956Y1404841*
X1766314Y1405333*
X1766492Y1406071*
Y1406563*
X1766314Y1407301*
X1765956Y1407793*
X1765598Y1408039*
X1765061*
X1768103D02*
X1769177Y1404594D01*
X1770251Y1408039D02*
X1769177Y1404594D01*
X1771861Y1406563D02*
X1774009D01*
Y1407055*
X1773830Y1407547*
X1773651Y1407793*
X1773293Y1408039*
X1772756*
X1772398Y1407793*
X1772040Y1407301*
X1771861Y1406563*
Y1406071*
X1772040Y1405333*
X1772398Y1404841*
X1772756Y1404594*
X1773293*
X1773651Y1404841*
X1774009Y1405333*
X1777767Y1409762D02*
Y1404594D01*
Y1407301D02*
X1777409Y1407793D01*
X1777051Y1408039*
X1776514*
X1776156Y1407793*
X1775798Y1407301*
X1775619Y1406563*
Y1406071*
X1775798Y1405333*
X1776156Y1404841*
X1776514Y1404594*
X1777051*
X1777409Y1404841*
X1777767Y1405333*
X1779556Y1408039D02*
X1779377Y1407793D01*
X1779556Y1407547*
X1779735Y1407793*
X1779556Y1408039*
Y1405087D02*
X1779377Y1404841D01*
X1779556Y1404594*
X1779735Y1404841*
X1779556Y1405087*
X1787251Y1439634D02*
X1787072Y1440126D01*
X1786714Y1440618*
X1786356Y1440864*
X1785641*
X1785283Y1440618*
X1784925Y1440126*
X1784746Y1439634*
X1784567Y1438896*
Y1437665*
X1784746Y1436927*
X1784925Y1436435*
X1785283Y1435943*
X1785641Y1435697*
X1786356*
X1786714Y1435943*
X1787072Y1436435*
X1787251Y1436927*
X1789041Y1436189D02*
X1788862Y1435943D01*
X1789041Y1435697*
X1789220Y1435943*
X1789041Y1436189*
X1790830Y1440864D02*
Y1435697D01*
X1792978*
X1795483Y1439142D02*
X1795125Y1438896D01*
X1794767Y1438404*
X1794588Y1437665*
Y1437173*
X1794767Y1436435*
X1795125Y1435943*
X1795483Y1435697*
X1796020*
X1796378Y1435943*
X1796736Y1436435*
X1796915Y1437173*
Y1437665*
X1796736Y1438404*
X1796378Y1438896*
X1796020Y1439142*
X1795483*
X1798525D02*
Y1435697D01*
Y1437665D02*
X1798704Y1438404D01*
X1799062Y1438896*
X1799420Y1439142*
X1799957*
X1801568Y1440864D02*
X1801747Y1440618D01*
X1801926Y1440864*
X1801747Y1441110*
X1801568Y1440864*
X1801747Y1439142D02*
Y1435697D01*
X1803536Y1439142D02*
Y1435697D01*
Y1438157D02*
X1804073Y1438896D01*
X1804431Y1439142*
X1804968*
X1805326Y1438896*
X1805505Y1438157*
Y1435697*
X1807115Y1440864D02*
X1807294Y1440618D01*
X1807473Y1440864*
X1807294Y1441110*
X1807115Y1440864*
X1807294Y1439142D02*
Y1435697D01*
X1784567Y1425116D02*
Y1419949D01*
Y1425116D02*
X1785999Y1419949D01*
X1787430Y1425116D02*
X1785999Y1419949D01*
X1787430Y1425116D02*
Y1419949D01*
X1789220Y1420441D02*
X1789041Y1420195D01*
X1789220Y1419949*
X1789399Y1420195*
X1789220Y1420441*
X1791009Y1425116D02*
Y1419949D01*
Y1425116D02*
X1792441Y1419949D01*
X1793873Y1425116D02*
X1792441Y1419949D01*
X1793873Y1425116D02*
Y1419949D01*
X1797631Y1423394D02*
Y1419949D01*
Y1422656D02*
X1797273Y1423148D01*
X1796915Y1423394*
X1796378*
X1796020Y1423148*
X1795662Y1422656*
X1795483Y1421917*
Y1421425*
X1795662Y1420687*
X1796020Y1420195*
X1796378Y1419949*
X1796915*
X1797273Y1420195*
X1797631Y1420687*
X1801389Y1423394D02*
Y1419457D01*
X1801210Y1418719*
X1801031Y1418472*
X1800673Y1418226*
X1800136*
X1799778Y1418472*
X1801389Y1422656D02*
X1801031Y1423148D01*
X1800673Y1423394*
X1800136*
X1799778Y1423148*
X1799420Y1422656*
X1799241Y1421917*
Y1421425*
X1799420Y1420687*
X1799778Y1420195*
X1800136Y1419949*
X1800673*
X1801031Y1420195*
X1801389Y1420687*
X1805147Y1423394D02*
Y1419457D01*
X1804968Y1418719*
X1804789Y1418472*
X1804431Y1418226*
X1803894*
X1803536Y1418472*
X1805147Y1422656D02*
X1804789Y1423148D01*
X1804431Y1423394*
X1803894*
X1803536Y1423148*
X1803178Y1422656*
X1802999Y1421917*
Y1421425*
X1803178Y1420687*
X1803536Y1420195*
X1803894Y1419949*
X1804431*
X1804789Y1420195*
X1805147Y1420687*
X1806757Y1425116D02*
X1806936Y1424870D01*
X1807115Y1425116*
X1806936Y1425362*
X1806757Y1425116*
X1806936Y1423394D02*
Y1419949D01*
X1810873Y1423394D02*
Y1419949D01*
Y1422656D02*
X1810515Y1423148D01*
X1810157Y1423394*
X1809621*
X1809263Y1423148*
X1808905Y1422656*
X1808726Y1421917*
Y1421425*
X1808905Y1420687*
X1809263Y1420195*
X1809621Y1419949*
X1810157*
X1810515Y1420195*
X1810873Y1420687*
X1812484Y1425116D02*
Y1419949D01*
X1814094Y1425116D02*
X1814273Y1424870D01*
X1814452Y1425116*
X1814273Y1425362*
X1814094Y1425116*
X1814273Y1423394D02*
Y1419949D01*
X1926299Y1441258D02*
Y1436091D01*
X1928447*
X1932205Y1439535D02*
Y1436091D01*
Y1438797D02*
X1931847Y1439289D01*
X1931489Y1439535*
X1930952*
X1930594Y1439289*
X1930236Y1438797*
X1930057Y1438059*
Y1437567*
X1930236Y1436829*
X1930594Y1436337*
X1930952Y1436091*
X1931489*
X1931847Y1436337*
X1932205Y1436829*
X1933994Y1439535D02*
X1935068Y1436091D01*
X1936142Y1439535D02*
X1935068Y1436091D01*
X1934710Y1435106*
X1934352Y1434614*
X1933994Y1434368*
X1933815*
X1937752Y1438059D02*
X1939900D01*
Y1438551*
X1939721Y1439043*
X1939542Y1439289*
X1939184Y1439535*
X1938647*
X1938289Y1439289*
X1937931Y1438797*
X1937752Y1438059*
Y1437567*
X1937931Y1436829*
X1938289Y1436337*
X1938647Y1436091*
X1939184*
X1939542Y1436337*
X1939900Y1436829*
X1941510Y1439535D02*
Y1436091D01*
Y1438059D02*
X1941689Y1438797D01*
X1942047Y1439289*
X1942405Y1439535*
X1942942*
X1944732D02*
X1944553Y1439289D01*
X1944732Y1439043*
X1944911Y1439289*
X1944732Y1439535*
Y1436583D02*
X1944553Y1436337D01*
X1944732Y1436091*
X1944911Y1436337*
X1944732Y1436583*
X1701929Y1391463D02*
Y1386295D01*
Y1391463D02*
X1703540D01*
X1704077Y1391217*
X1704256Y1390970*
X1704434Y1390478*
X1704434D02*
Y1389986D01*
X1704434D02*
X1704256Y1389494D01*
X1704077Y1389248*
X1703540Y1389002*
X1701929D02*
X1703540D01*
X1704077Y1388756*
X1704256Y1388510*
X1704434Y1388018*
X1704434D02*
Y1387280D01*
X1704434D02*
X1704256Y1386787D01*
X1704077Y1386541*
X1703540Y1386295*
X1701929*
X1706940Y1389740D02*
X1706582Y1389494D01*
X1706224Y1389002*
X1706045Y1388264*
Y1387772*
X1706224Y1387033*
X1706582Y1386541*
X1706940Y1386295*
X1707477*
X1707835Y1386541*
X1708193Y1387033*
X1708372Y1387772*
Y1388264*
X1708193Y1389002*
X1707835Y1389494*
X1707477Y1389740*
X1706940*
X1712130D02*
Y1386295D01*
Y1389002D02*
X1711772Y1389494D01*
X1711414Y1389740*
X1710877*
X1710519Y1389494*
X1710161Y1389002*
X1709982Y1388264*
Y1387772*
X1710161Y1387033*
X1710519Y1386541*
X1710877Y1386295*
X1711414*
X1711772Y1386541*
X1712130Y1387033*
X1713740Y1389740D02*
Y1386295D01*
Y1388264D02*
X1713919Y1389002D01*
X1714277Y1389494*
X1714635Y1389740*
X1715172*
X1718930Y1391463D02*
Y1386295D01*
Y1389002D02*
X1718572Y1389494D01*
X1718214Y1389740*
X1717677*
X1717319Y1389494*
X1716961Y1389002*
X1716782Y1388264*
Y1387772*
X1716961Y1387033*
X1717319Y1386541*
X1717677Y1386295*
X1718214*
X1718572Y1386541*
X1718930Y1387033*
X1724656Y1389740D02*
Y1386295D01*
Y1388756D02*
X1725193Y1389494D01*
X1725551Y1389740*
X1726088*
X1726446Y1389494*
X1726625Y1388756*
Y1386295*
X1730383Y1389740D02*
Y1386295D01*
Y1389002D02*
X1730025Y1389494D01*
X1729667Y1389740*
X1729130*
X1728772Y1389494*
X1728414Y1389002*
X1728236Y1388264*
X1728236D02*
Y1387772D01*
X1728236D02*
X1728414Y1387033D01*
X1728772Y1386541*
X1729130Y1386295*
X1729667*
X1730025Y1386541*
X1730383Y1387033*
X1731994Y1389740D02*
Y1386295D01*
Y1388756D02*
X1732530Y1389494D01*
X1732888Y1389740*
X1733425*
X1733783Y1389494*
X1733962Y1388756*
Y1386295*
Y1388756D02*
X1734499Y1389494D01*
X1734857Y1389740*
X1735394*
X1735752Y1389494*
X1735931Y1388756*
Y1386295*
X1737541Y1388264D02*
X1739689D01*
Y1388756*
X1739510Y1389248*
X1739331Y1389494*
X1738973Y1389740*
X1738436*
X1738078Y1389494*
X1737720Y1389002*
X1737541Y1388264*
Y1387772*
X1737720Y1387033*
X1738078Y1386541*
X1738436Y1386295*
X1738973*
X1739331Y1386541*
X1739689Y1387033*
X1741478Y1389740D02*
X1741299Y1389494D01*
X1741478Y1389248*
X1741657Y1389494*
X1741478Y1389740*
Y1386787D02*
X1741299Y1386541D01*
X1741478Y1386295*
X1741657Y1386541*
X1741478Y1386787*
X1846306Y1392783D02*
X1846127Y1393276D01*
X1845770Y1393768*
X1845412Y1394014*
X1844696*
X1844338Y1393768*
X1843980Y1393276*
X1843801Y1392783*
X1843622Y1392045*
Y1390815*
X1843801Y1390077*
X1843980Y1389585*
X1844338Y1389093*
X1844696Y1388846*
X1845412*
X1845770Y1389093*
X1846127Y1389585*
X1846306Y1390077*
X1848812Y1392291D02*
X1848454Y1392045D01*
X1848096Y1391553*
X1847917Y1390815*
Y1390323*
X1848096Y1389585*
X1848454Y1389093*
X1848812Y1388846*
X1849349*
X1849707Y1389093*
X1850064Y1389585*
X1850243Y1390323*
Y1390815*
X1850064Y1391553*
X1849707Y1392045*
X1849349Y1392291*
X1848812*
X1854001Y1394014D02*
Y1388846D01*
Y1391553D02*
X1853644Y1392045D01*
X1853286Y1392291*
X1852749*
X1852391Y1392045*
X1852033Y1391553*
X1851854Y1390815*
Y1390323*
X1852033Y1389585*
X1852391Y1389093*
X1852749Y1388846*
X1853286*
X1853644Y1389093*
X1854001Y1389585*
X1855612Y1390815D02*
X1857759D01*
Y1391307*
X1857581Y1391799*
X1857402Y1392045*
X1857044Y1392291*
X1856507*
X1856149Y1392045*
X1855791Y1391553*
X1855612Y1390815*
Y1390323*
X1855791Y1389585*
X1856149Y1389093*
X1856507Y1388846*
X1857044*
X1857402Y1389093*
X1857759Y1389585*
X1859549Y1392291D02*
X1859370Y1392045D01*
X1859549Y1391799*
X1859728Y1392045*
X1859549Y1392291*
Y1389339D02*
X1859370Y1389093D01*
X1859549Y1388846*
X1859728Y1389093*
X1859549Y1389339*
X1882992Y1394014D02*
Y1388846D01*
Y1394014D02*
X1884603D01*
X1885140Y1393768*
X1885319Y1393522*
X1885497Y1393030*
Y1392537*
X1885319Y1392045*
X1885140Y1391799*
X1884603Y1391553*
X1882992*
X1884245D02*
X1885497Y1388846D01*
X1887108Y1390815D02*
X1889256D01*
Y1391307*
X1889077Y1391799*
X1888898Y1392045*
X1888540Y1392291*
X1888003*
X1887645Y1392045*
X1887287Y1391553*
X1887108Y1390815*
Y1390323*
X1887287Y1389585*
X1887645Y1389093*
X1888003Y1388846*
X1888540*
X1888898Y1389093*
X1889256Y1389585*
X1890866Y1392291D02*
X1891940Y1388846D01*
X1893014Y1392291D02*
X1891940Y1388846D01*
X1894803Y1392291D02*
X1894624Y1392045D01*
X1894803Y1391799*
X1894982Y1392045*
X1894803Y1392291*
Y1389339D02*
X1894624Y1389093D01*
X1894803Y1388846*
X1894982Y1389093*
X1894803Y1389339*
X1928805Y1393276D02*
X1928447Y1393768D01*
X1927910Y1394014*
X1927194*
X1926657Y1393768*
X1926299Y1393276*
Y1392783*
X1926478Y1392291*
X1926657Y1392045*
X1927015Y1391799*
X1928089Y1391307*
X1928447Y1391061*
X1928626Y1390815*
X1928805Y1390323*
Y1389585*
X1928447Y1389093*
X1927910Y1388846*
X1927194*
X1926657Y1389093*
X1926299Y1389585*
X1930415Y1392291D02*
Y1387124D01*
Y1391553D02*
X1930773Y1392045D01*
X1931131Y1392291*
X1931668*
X1932026Y1392045*
X1932384Y1391553*
X1932563Y1390815*
Y1390323*
X1932384Y1389585*
X1932026Y1389093*
X1931668Y1388846*
X1931131*
X1930773Y1389093*
X1930415Y1389585*
X1934173Y1390815D02*
X1936321D01*
Y1391307*
X1936142Y1391799*
X1935963Y1392045*
X1935605Y1392291*
X1935068*
X1934710Y1392045*
X1934352Y1391553*
X1934173Y1390815*
Y1390323*
X1934352Y1389585*
X1934710Y1389093*
X1935068Y1388846*
X1935605*
X1935963Y1389093*
X1936321Y1389585*
X1940079Y1391553D02*
X1939721Y1392045D01*
X1939363Y1392291*
X1938826*
X1938468Y1392045*
X1938110Y1391553*
X1937931Y1390815*
Y1390323*
X1938110Y1389585*
X1938468Y1389093*
X1938826Y1388846*
X1939363*
X1939721Y1389093*
X1940079Y1389585*
X1941868Y1392291D02*
X1941689Y1392045D01*
X1941868Y1391799*
X1942047Y1392045*
X1941868Y1392291*
Y1389339D02*
X1941689Y1389093D01*
X1941868Y1388846*
X1942047Y1389093*
X1941868Y1389339*
X1839685Y1441258D02*
Y1436091D01*
Y1441258D02*
X1840938D01*
X1841475Y1441012*
X1841832Y1440520*
X1842011Y1440028*
X1842190Y1439289*
Y1438059*
X1842011Y1437321*
X1841832Y1436829*
X1841475Y1436337*
X1840938Y1436091*
X1839685*
X1845948Y1439535D02*
Y1436091D01*
Y1438797D02*
X1845591Y1439289D01*
X1845233Y1439535*
X1844696*
X1844338Y1439289*
X1843980Y1438797*
X1843801Y1438059*
Y1437567*
X1843980Y1436829*
X1844338Y1436337*
X1844696Y1436091*
X1845233*
X1845591Y1436337*
X1845948Y1436829*
X1848096Y1441258D02*
Y1437075D01*
X1848275Y1436337*
X1848633Y1436091*
X1848991*
X1847559Y1439535D02*
X1848812D01*
X1850601Y1438059D02*
X1852749D01*
Y1438551*
X1852570Y1439043*
X1852391Y1439289*
X1852033Y1439535*
X1851496*
X1851138Y1439289*
X1850780Y1438797*
X1850601Y1438059*
Y1437567*
X1850780Y1436829*
X1851138Y1436337*
X1851496Y1436091*
X1852033*
X1852391Y1436337*
X1852749Y1436829*
X1854538Y1439535D02*
X1854359Y1439289D01*
X1854538Y1439043*
X1854717Y1439289*
X1854538Y1439535*
Y1436583D02*
X1854359Y1436337D01*
X1854538Y1436091*
X1854717Y1436337*
X1854538Y1436583*
X1839685Y1425510D02*
Y1420343D01*
Y1425510D02*
X1840938D01*
X1841475Y1425264*
X1841832Y1424772*
X1842011Y1424280*
X1842190Y1423541*
Y1422311*
X1842011Y1421573*
X1841832Y1421081*
X1841475Y1420589*
X1840938Y1420343*
X1839685*
X1845948Y1423787D02*
Y1420343D01*
Y1423049D02*
X1845591Y1423541D01*
X1845233Y1423787*
X1844696*
X1844338Y1423541*
X1843980Y1423049*
X1843801Y1422311*
Y1421819*
X1843980Y1421081*
X1844338Y1420589*
X1844696Y1420343*
X1845233*
X1845591Y1420589*
X1845948Y1421081*
X1848096Y1425510D02*
Y1421327D01*
X1848275Y1420589*
X1848633Y1420343*
X1848991*
X1847559Y1423787D02*
X1848812D01*
X1850601Y1422311D02*
X1852749D01*
Y1422803*
X1852570Y1423295*
X1852391Y1423541*
X1852033Y1423787*
X1851496*
X1851138Y1423541*
X1850780Y1423049*
X1850601Y1422311*
Y1421819*
X1850780Y1421081*
X1851138Y1420589*
X1851496Y1420343*
X1852033*
X1852391Y1420589*
X1852749Y1421081*
X1854538Y1423787D02*
X1854359Y1423541D01*
X1854538Y1423295*
X1854717Y1423541*
X1854538Y1423787*
Y1420835D02*
X1854359Y1420589D01*
X1854538Y1420343*
X1854717Y1420589*
X1854538Y1420835*
X1839685Y1409762D02*
Y1404594D01*
Y1409762D02*
X1840938D01*
X1841475Y1409516*
X1841832Y1409024*
X1842011Y1408532*
X1842011D02*
X1842190Y1407793D01*
Y1406563*
X1842011Y1405825*
X1841832Y1405333*
X1841475Y1404841*
X1840938Y1404594*
X1839685*
X1845948Y1408039D02*
Y1404594D01*
Y1407301D02*
X1845591Y1407793D01*
X1845233Y1408039*
X1844696*
X1844338Y1407793*
X1843980Y1407301*
X1843801Y1406563*
Y1406071*
X1843980Y1405333*
X1844338Y1404841*
X1844696Y1404594*
X1845233*
X1845591Y1404841*
X1845948Y1405333*
X1848096Y1409762D02*
Y1405579D01*
X1848275Y1404841*
X1848633Y1404594*
X1848991*
X1847559Y1408039D02*
X1848812D01*
X1850601Y1406563D02*
X1852749D01*
Y1407055*
X1852570Y1407547*
X1852391Y1407793*
X1852033Y1408039*
X1851496*
X1851138Y1407793*
X1850780Y1407301*
X1850601Y1406563*
Y1406071*
X1850780Y1405333*
X1851138Y1404841*
X1851496Y1404594*
X1852033*
X1852391Y1404841*
X1852749Y1405333*
X1854538Y1408039D02*
X1854359Y1407793D01*
X1854538Y1407547*
X1854717Y1407793*
X1854538Y1408039*
Y1405087D02*
X1854359Y1404841D01*
X1854538Y1404594*
X1854717Y1404841*
X1854538Y1405087*
X1889252Y1490484D02*
Y1490472D01*
X1889304*
Y1490460*
X1889364*
Y1490448*
X1889412*
Y1490436*
X1889447*
Y1490424*
X1889471*
Y1490412*
X1889507*
Y1490400*
X1889531*
Y1490388*
X1889555*
Y1490376*
X1889579*
Y1490364*
X1889591*
Y1490352*
X1889614*
Y1490340*
X1889638*
Y1490328*
X1889650*
Y1490316*
X1889662*
Y1490304*
X1889686*
Y1490292*
X1889698*
Y1490280*
X1889710*
Y1490268*
X1889722*
Y1490256*
X1889734*
Y1490244*
X1889746*
Y1490232*
X1889757*
Y1490220*
X1889769*
Y1490208*
X1889781*
Y1490196*
X1889793*
Y1490184*
X1889805*
Y1490160*
X1889817*
Y1490148*
X1889829*
Y1490124*
X1889841*
Y1490112*
X1889853*
Y1490088*
X1889865*
Y1490064*
X1889877*
X1889876Y1490040*
X1889888*
Y1490017*
X1889900Y1490016*
Y1489981*
X1889912*
Y1489945*
X1889924*
Y1489897*
X1889936*
X1889914Y1480197*
X1889902Y1480198*
Y1480150*
X1889890*
Y1480114*
X1889878*
Y1480078*
X1889866*
Y1480054*
X1889854*
Y1480030*
X1889842*
Y1480007*
X1889830*
Y1479983*
X1889818*
Y1479971*
X1889806*
Y1479947*
X1889794*
Y1479935*
X1889782*
Y1479911*
X1889770*
Y1479899*
X1889758*
Y1479887*
X1889746*
Y1479875*
X1889734*
Y1479863*
X1889722*
Y1479852*
X1889710*
Y1479840*
X1889698*
Y1479828*
X1889686*
Y1479816*
X1889674*
Y1479804*
X1889662*
Y1479792*
X1889638*
Y1479780*
X1889626*
Y1479768*
X1889614*
Y1479756*
X1889590*
Y1479744*
X1889566*
Y1479732*
X1889554*
Y1479721*
X1889554D02*
X1889530D01*
Y1479709*
X1889506*
Y1479697*
X1889483*
X1889482Y1479685*
X1889447*
Y1479673*
X1889423*
Y1479661*
X1889375*
Y1479649*
X1889267*
Y1479638*
X1876928Y1479666*
X1876951Y1489915*
X1876963*
X1876964Y1489974*
X1876976*
Y1490010*
X1876988*
Y1490046*
X1877000*
Y1490070*
X1877012*
Y1490094*
X1877024*
Y1490118*
X1877036*
Y1490141*
X1877048*
Y1490153*
X1877060*
Y1490177*
X1877072*
Y1490189*
X1877084*
Y1490201*
X1877095*
X1877096Y1490225*
X1877107*
X1877108Y1490237*
X1877108D02*
X1877119D01*
X1877120Y1490249*
X1877131*
Y1490261*
X1877143*
Y1490273*
X1877155*
Y1490285*
X1877167Y1490284*
Y1490296*
X1877179*
Y1490308*
X1877191*
Y1490320*
X1877203*
Y1490332*
X1877227*
Y1490344*
X1877239*
Y1490356*
X1877263*
Y1490368*
X1877275*
Y1490380*
X1877299*
Y1490392*
X1877311*
Y1490404*
X1877335*
Y1490415*
X1877359*
Y1490427*
X1877383*
Y1490439*
X1877419*
Y1490451*
X1877442*
X1877443Y1490463*
X1877490*
Y1490475*
X1877526*
Y1490487*
X1877586*
Y1490499*
X1877637Y1490498*
Y1490510*
X1889252Y1490484*
X1889247Y1490317D02*
X1877625Y1490343D01*
Y1490331*
X1877565*
Y1490319*
X1877517Y1490320*
Y1490308*
X1877481*
Y1490296*
X1877457*
Y1490284*
X1877421*
Y1490272*
X1877409*
Y1490260*
X1877385*
Y1490248*
X1877362*
Y1490236*
X1877350*
Y1490224*
X1877326*
Y1490212*
X1877314*
Y1490201*
X1877302*
Y1490189*
X1877278*
Y1490177*
X1877266*
Y1490165*
X1877254*
Y1490153*
X1877242*
Y1490141*
X1877230*
Y1490129*
X1877218*
Y1490105*
X1877206*
Y1490093*
X1877194*
Y1490081*
X1877182*
Y1490057*
X1877170Y1490058*
Y1490046*
X1877158*
Y1490022*
X1877146*
Y1489998*
X1877134*
Y1489962*
X1877122*
Y1489926*
X1877110*
Y1489878*
X1877098Y1489879*
X1877075Y1479809*
X1889223Y1479781*
Y1479793*
X1889283*
Y1479805*
X1889331*
Y1479817*
X1889367Y1479816*
Y1479828*
X1889390*
Y1479840*
X1889426*
Y1479852*
X1889450*
Y1479864*
X1889462*
Y1479876*
X1889486*
Y1479888*
X1889510*
Y1479900*
X1889522*
Y1479912*
X1889534*
Y1479924*
X1889558*
Y1479936*
X1889570Y1479935*
Y1479947*
X1889582*
Y1479959*
X1889594*
Y1479971*
X1889606*
Y1479983*
X1889618*
Y1479995*
X1889630*
Y1480019*
X1889642*
Y1480031*
X1889654*
Y1480043*
X1889666*
Y1480067*
X1889678*
Y1480079*
X1889690*
Y1480102*
X1889702*
Y1480126*
X1889714*
Y1480162*
X1889726*
Y1480198*
X1889738*
Y1480246*
X1889750*
X1889772Y1489850*
X1889760*
Y1489897*
X1889748*
Y1489933*
X1889736*
Y1489969*
X1889724*
Y1489993*
X1889712*
Y1490017*
X1889700*
Y1490029*
X1889689*
Y1490053*
X1889677*
Y1490065*
X1889665*
Y1490077*
X1889653*
Y1490101*
X1889641*
Y1490113*
X1889629*
Y1490125*
X1889617*
Y1490137*
X1889605*
Y1490149*
X1889593*
Y1490161*
X1889581*
Y1490172*
X1889557Y1490173*
Y1490184*
X1889546Y1490185*
Y1490196*
X1889534*
Y1490208*
X1889510*
Y1490220*
X1889486Y1490221*
Y1490232*
X1889474*
Y1490244*
X1889450*
Y1490256*
X1889414*
X1889414D02*
Y1490268D01*
X1889390*
Y1490280*
X1889355Y1490281*
Y1490292*
X1889307Y1490293*
Y1490305*
X1889247*
Y1490317*
X1880812Y1486912D02*
X1880798Y1480987D01*
X1879150Y1480991*
X1879163Y1486916*
X1880812Y1486912*
X1880226Y1489363D02*
Y1489351D01*
X1880286*
Y1489339*
X1880334*
Y1489327*
X1880369*
Y1489315*
X1880393*
Y1489303*
X1880429*
Y1489291*
X1880453*
Y1489279*
X1880477*
Y1489267*
X1880501*
Y1489255*
X1880525*
Y1489243*
X1880536*
Y1489231*
X1880560*
Y1489219*
X1880572*
Y1489207*
X1880584*
Y1489195*
X1880608*
Y1489183*
X1880620*
Y1489171*
X1880632*
Y1489159*
X1880644*
Y1489147*
X1880656*
Y1489135*
X1880668*
Y1489123*
X1880680*
Y1489111*
X1880692*
X1880692D02*
X1880691Y1489099D01*
X1880703*
Y1489087*
X1880715*
Y1489075*
X1880727*
Y1489063*
X1880739*
Y1489051*
X1880751*
Y1489039*
X1880763*
Y1489016*
X1880775Y1489015*
Y1489004*
X1880787*
Y1488992*
X1880799*
Y1488968*
X1880811*
Y1488956*
X1880823*
X1880822Y1488932*
X1880834*
Y1488908*
X1880846*
Y1488884*
X1880858*
Y1488860*
X1880870*
Y1488836*
X1880882*
Y1488800*
X1880894*
Y1488764*
X1880906*
Y1488717*
X1880918*
X1880917Y1488657*
X1880929*
Y1488549*
X1880941*
Y1488442*
X1880929*
Y1488322*
X1880917*
X1880916Y1488263*
X1880905*
X1880904Y1488227*
X1880893*
X1880892Y1488191*
X1880880*
Y1488155*
X1880868*
Y1488131*
X1880856*
Y1488096*
X1880844*
Y1488072*
X1880832*
Y1488060*
X1880820*
Y1488036*
X1880808*
Y1488012*
X1880796*
Y1488000*
X1880784*
Y1487976*
X1880772*
Y1487964*
X1880761*
Y1487952*
X1880749*
Y1487929*
X1880737*
Y1487917*
X1880725*
Y1487905*
X1880713*
Y1487893*
X1880701*
Y1487881*
X1880689*
Y1487869*
X1880677*
Y1487857*
X1880665*
Y1487845*
X1880653*
Y1487833*
X1880641*
Y1487821*
X1880629*
Y1487809*
X1880605*
Y1487797*
X1880593Y1487798*
Y1487786*
X1880581*
Y1487774*
X1880569*
Y1487762*
X1880545*
Y1487750*
X1880533*
Y1487738*
X1880509*
Y1487726*
X1880485*
Y1487714*
X1880461*
Y1487702*
X1880437*
Y1487690*
X1880413*
Y1487678*
X1880390Y1487679*
Y1487667*
X1880354*
Y1487655*
X1880306*
Y1487643*
X1880258*
Y1487631*
X1880186*
Y1487619*
X1879959Y1487620*
Y1487632*
X1879888*
Y1487644*
X1879828*
Y1487656*
X1879792*
Y1487668*
X1879756*
Y1487680*
X1879733*
Y1487692*
X1879709*
Y1487704*
X1879685*
Y1487716*
X1879661*
Y1487728*
X1879637*
Y1487740*
X1879613*
Y1487752*
X1879601*
Y1487764*
X1879577*
X1879578Y1487776*
X1879566*
Y1487788*
X1879554*
Y1487800*
X1879530*
Y1487812*
X1879518*
Y1487824*
X1879506*
Y1487836*
X1879494*
Y1487848*
X1879482*
Y1487860*
X1879470*
Y1487872*
X1879458*
Y1487884*
X1879446*
Y1487896*
X1879434*
Y1487908*
X1879423*
Y1487920*
X1879411*
Y1487932*
X1879399*
Y1487944*
X1879387*
Y1487967*
X1879375Y1487968*
Y1487979*
X1879363*
Y1487991*
X1879351*
Y1488015*
X1879339*
Y1488027*
X1879327*
Y1488051*
X1879315*
Y1488075*
X1879303*
X1879304Y1488099*
X1879292*
Y1488123*
X1879280*
Y1488147*
X1879268*
Y1488171*
X1879256*
Y1488207*
X1879244*
Y1488254*
X1879232Y1488255*
Y1488302*
X1879220*
X1879221Y1488374*
X1879209*
Y1488625*
X1879221*
Y1488697*
X1879233*
X1879233D02*
Y1488744D01*
X1879245*
Y1488780*
X1879257*
Y1488816*
X1879269*
Y1488852*
X1879281*
Y1488876*
X1879293*
Y1488899*
X1879305*
Y1488923*
X1879317*
Y1488947*
X1879329*
Y1488959*
X1879341*
Y1488983*
X1879353*
Y1488995*
X1879365*
Y1489019*
X1879377*
Y1489031*
X1879389*
Y1489043*
X1879401*
Y1489054*
X1879413*
Y1489066*
X1879425*
Y1489090*
X1879437*
Y1489102*
X1879449*
Y1489114*
X1879461*
Y1489126*
X1879473*
Y1489138*
X1879485*
Y1489150*
X1879497*
Y1489162*
X1879521*
Y1489174*
X1879533*
Y1489186*
X1879545*
Y1489197*
X1879557*
Y1489209*
X1879581*
Y1489221*
X1879593*
Y1489233*
X1879617*
Y1489245*
X1879629*
Y1489257*
X1879653*
Y1489269*
X1879676*
X1879676D02*
X1879677Y1489281D01*
X1879700*
Y1489293*
X1879724*
Y1489305*
X1879748Y1489304*
X1879748D02*
Y1489316D01*
X1879784*
Y1489328*
X1879820*
Y1489340*
X1879868*
Y1489352*
X1879928*
Y1489364*
X1880226Y1489363*
X1883764Y1486905D02*
X1883751Y1480981D01*
X1882102Y1480984*
X1882116Y1486909*
X1883764Y1486905*
X1883147Y1489356D02*
Y1489345D01*
X1883219Y1489344*
Y1489332*
X1883266*
Y1489320*
X1883302*
Y1489308*
X1883326*
Y1489296*
X1883362*
Y1489284*
X1883386*
Y1489272*
X1883410*
Y1489260*
X1883433*
Y1489248*
X1883445*
Y1489236*
X1883469*
Y1489224*
X1883493*
Y1489212*
X1883505*
Y1489200*
X1883517*
Y1489188*
X1883541*
Y1489176*
X1883553*
Y1489164*
X1883565*
Y1489152*
X1883577*
Y1489140*
X1883589*
X1883588Y1489129*
X1883600Y1489128*
Y1489117*
X1883612*
Y1489105*
X1883624*
Y1489093*
X1883636*
Y1489081*
X1883648*
Y1489069*
X1883660*
Y1489057*
X1883672*
Y1489045*
X1883684*
Y1489033*
X1883696*
Y1489009*
X1883708*
Y1488997*
X1883720*
Y1488973*
X1883731*
Y1488961*
X1883743*
Y1488937*
X1883755*
Y1488925*
X1883767*
Y1488901*
X1883779*
Y1488877*
X1883791*
Y1488853*
X1883803*
Y1488817*
X1883815*
Y1488794*
X1883827Y1488793*
Y1488758*
X1883839*
X1883839D02*
X1883838Y1488710D01*
X1883850*
Y1488650*
X1883862*
X1883861Y1488328*
X1883849*
Y1488268*
X1883837*
Y1488220*
X1883825*
Y1488184*
X1883813*
Y1488148*
X1883801*
Y1488125*
X1883789*
Y1488101*
X1883777*
Y1488077*
X1883765*
Y1488053*
X1883753*
Y1488029*
X1883741*
Y1488005*
X1883729*
Y1487993*
X1883717*
Y1487981*
X1883705Y1487982*
Y1487958*
X1883693*
Y1487946*
X1883681*
Y1487934*
X1883669*
Y1487910*
X1883657*
Y1487898*
X1883645*
Y1487886*
X1883633*
Y1487874*
X1883621*
Y1487862*
X1883609*
Y1487850*
X1883597*
Y1487838*
X1883586*
X1883585Y1487826*
X1883574Y1487827*
Y1487815*
X1883562*
Y1487803*
X1883538*
Y1487791*
X1883526*
Y1487779*
X1883514*
Y1487767*
X1883490*
Y1487755*
X1883478*
Y1487743*
X1883454*
Y1487731*
X1883442*
Y1487719*
X1883418*
Y1487707*
X1883394*
Y1487696*
X1883370*
Y1487684*
X1883346*
Y1487672*
X1883310*
Y1487660*
X1883286*
Y1487648*
X1883239*
Y1487636*
X1883191*
Y1487624*
X1883119*
Y1487613*
X1882892*
Y1487625*
X1882809*
Y1487637*
X1882761*
Y1487649*
X1882725*
Y1487661*
X1882689*
Y1487673*
X1882665*
Y1487685*
X1882630*
Y1487697*
X1882606*
Y1487709*
X1882594*
Y1487721*
X1882570*
Y1487733*
X1882546*
Y1487745*
X1882534*
Y1487757*
X1882510*
Y1487769*
X1882498*
Y1487781*
X1882475*
X1882474Y1487793*
X1882474D02*
X1882463D01*
Y1487805*
X1882451*
Y1487817*
X1882439*
Y1487829*
X1882427*
Y1487841*
X1882415*
Y1487853*
X1882403*
Y1487865*
X1882391*
Y1487877*
X1882379*
Y1487889*
X1882367*
Y1487901*
X1882355*
Y1487913*
X1882343*
Y1487925*
X1882331*
Y1487937*
X1882320*
Y1487949*
X1882308*
Y1487973*
X1882296*
Y1487985*
X1882284*
Y1488009*
X1882272*
Y1488021*
X1882260*
Y1488045*
X1882248*
Y1488056*
X1882236Y1488057*
Y1488080*
X1882224*
Y1488104*
X1882212*
X1882213Y1488140*
X1882201*
Y1488164*
X1882189*
Y1488200*
X1882177*
Y1488236*
X1882165*
Y1488284*
X1882153*
Y1488355*
X1882141*
X1882142Y1488630*
X1882154*
Y1488702*
X1882166*
Y1488749*
X1882178*
Y1488785*
X1882190*
Y1488821*
X1882202*
Y1488845*
X1882214*
Y1488869*
X1882226*
Y1488893*
X1882238*
Y1488917*
X1882250*
Y1488940*
X1882262*
Y1488952*
X1882274*
Y1488976*
X1882286*
Y1488988*
X1882298*
Y1489012*
X1882310*
Y1489024*
X1882322*
Y1489036*
X1882334*
Y1489060*
X1882346*
Y1489072*
X1882358*
Y1489084*
X1882370*
Y1489095*
X1882382*
Y1489107*
X1882394*
Y1489119*
X1882406*
Y1489131*
X1882418*
Y1489143*
X1882430*
Y1489155*
X1882442*
Y1489167*
X1882466*
Y1489179*
X1882478*
Y1489191*
X1882490*
Y1489203*
X1882514*
Y1489215*
X1882526*
Y1489226*
X1882549*
Y1489238*
X1882561*
Y1489250*
X1882585*
Y1489262*
X1882609*
Y1489274*
X1882633*
Y1489286*
X1882657*
Y1489298*
X1882681*
Y1489310*
X1882717*
Y1489322*
X1882753*
Y1489334*
X1882801Y1489333*
Y1489345*
X1882860*
Y1489357*
X1883147Y1489356*
X1886918Y1488473D02*
X1886913Y1486514D01*
X1888466Y1486511*
X1888464Y1485591*
X1886911Y1485594*
X1886904Y1482441*
X1886916*
X1886915Y1482309*
X1886927*
Y1482226*
X1886939*
Y1482178*
X1886951*
Y1482130*
X1886963*
Y1482082*
X1886975*
Y1482046*
X1886987*
Y1482022*
X1886998*
Y1481999*
X1887010*
Y1481975*
X1887022*
Y1481951*
X1887034*
Y1481927*
X1887046*
Y1481915*
X1887058*
Y1481891*
X1887070*
Y1481879*
X1887082*
Y1481867*
X1887094*
Y1481855*
X1887106*
Y1481843*
X1887117*
Y1481831*
X1887129*
Y1481819*
X1887141*
Y1481807*
X1887165*
Y1481795*
X1887177*
Y1481783*
X1887201*
Y1481771*
X1887225*
Y1481759*
X1887249*
Y1481747*
X1887273*
Y1481735*
X1887308*
Y1481723*
X1887356*
Y1481711*
X1887404*
Y1481699*
X1887487*
Y1481687*
X1887846Y1481686*
Y1481698*
X1887953*
Y1481710*
X1888037*
Y1481721*
X1888097*
Y1481733*
X1888156*
X1888157Y1481745*
X1888216*
Y1481757*
X1888264*
Y1481769*
X1888312*
Y1481781*
X1888348Y1481780*
Y1481792*
X1888396*
X1888396D02*
Y1481804D01*
X1888407*
X1888405Y1480861*
X1888381*
Y1480849*
X1888358*
X1888357Y1480837*
X1888322*
Y1480825*
X1888286*
Y1480813*
X1888250*
Y1480801*
X1888214*
Y1480789*
X1888166*
Y1480777*
X1888166D02*
X1888118Y1480778D01*
Y1480766*
X1888071*
Y1480754*
X1888011*
Y1480742*
X1887951*
Y1480730*
X1887891*
Y1480718*
X1887820Y1480719*
Y1480707*
X1887724*
Y1480695*
X1887629*
X1887628Y1480683*
X1887509*
Y1480671*
X1887342Y1480672*
Y1480660*
X1886792Y1480661*
Y1480673*
X1886685*
Y1480685*
X1886613Y1480686*
Y1480697*
X1886553Y1480698*
Y1480710*
X1886506*
Y1480722*
X1886458*
Y1480734*
X1886422*
Y1480746*
X1886386*
Y1480758*
X1886350*
X1886351Y1480770*
X1886315*
Y1480782*
X1886291*
Y1480794*
X1886255*
Y1480806*
X1886231*
Y1480818*
X1886207*
Y1480830*
X1886183*
Y1480842*
X1886160*
Y1480854*
X1886136*
Y1480866*
X1886112*
Y1480878*
X1886088*
Y1480890*
X1886076*
Y1480902*
X1886052*
Y1480914*
X1886040*
Y1480926*
X1886016*
Y1480938*
X1886005*
Y1480950*
X1885981*
Y1480962*
X1885969*
Y1480974*
X1885945*
Y1480986*
X1885933*
Y1480998*
X1885921*
Y1481010*
X1885909*
Y1481022*
X1885885*
Y1481034*
X1885873*
Y1481046*
X1885861*
Y1481057*
X1885849Y1481058*
X1885850Y1481069*
X1885838Y1481070*
Y1481081*
X1885826*
Y1481093*
X1885814*
Y1481105*
X1885802*
Y1481117*
X1885790*
Y1481129*
X1885778*
Y1481141*
X1885766*
Y1481153*
X1885754*
Y1481165*
X1885742*
Y1481177*
X1885730*
Y1481189*
X1885718*
Y1481201*
X1885706*
X1885707Y1481213*
X1885695*
Y1481225*
X1885683*
Y1481249*
X1885671*
Y1481261*
X1885659*
Y1481273*
X1885647*
Y1481297*
X1885635*
Y1481309*
X1885623*
Y1481321*
X1885611*
Y1481345*
X1885599*
Y1481357*
X1885587*
Y1481381*
X1885576*
Y1481393*
X1885564*
Y1481417*
X1885552*
Y1481440*
X1885540*
Y1481452*
X1885528*
Y1481476*
X1885516*
Y1481500*
X1885504*
Y1481524*
X1885492*
Y1481548*
X1885480*
Y1481572*
X1885468*
Y1481596*
X1885457*
Y1481632*
X1885445*
Y1481656*
X1885433*
Y1481680*
X1885421*
Y1481716*
X1885409*
Y1481751*
X1885397*
Y1481787*
X1885385*
Y1481823*
X1885373*
X1885374Y1481859*
X1885362*
Y1481907*
X1885350*
Y1481955*
X1885338*
Y1482002*
X1885326*
Y1482062*
X1885314*
Y1482122*
X1885302*
X1885303Y1482194*
X1885291*
Y1482289*
X1885279*
Y1482421*
X1885267*
X1885275Y1485610*
X1884570Y1485612*
X1884572Y1486502*
X1885336Y1486506*
Y1486530*
X1885348*
Y1486577*
X1885360*
X1885361Y1486625*
X1885372*
X1885373Y1486661*
X1885384*
X1885385Y1486709*
X1885397*
Y1486744*
X1885409*
Y1486792*
X1885421*
Y1486840*
X1885433*
Y1486876*
X1885445*
Y1486924*
X1885457*
Y1486959*
X1885469*
Y1487007*
X1885481*
Y1487055*
X1885493*
Y1487091*
X1885505*
Y1487138*
X1885517*
Y1487174*
X1885529*
Y1487222*
X1885541*
Y1487270*
X1885553*
Y1487306*
X1885565*
Y1487353*
X1885577*
Y1487389*
X1885589*
Y1487437*
X1885601*
Y1487485*
X1885613*
Y1487520*
X1885625*
Y1487568*
X1885637*
X1885638Y1487604*
X1885649*
X1885650Y1487652*
X1885662*
Y1487699*
X1885662D02*
X1885674Y1487700D01*
Y1487735*
X1885686*
Y1487783*
X1885698*
Y1487819*
X1885710*
Y1487867*
X1885722*
Y1487914*
X1885734*
Y1487950*
X1885746*
Y1487998*
X1885758*
Y1488034*
X1885770*
Y1488081*
X1885770D02*
X1885782D01*
Y1488129*
X1885794*
Y1488165*
X1885806*
Y1488213*
X1885818*
Y1488261*
X1885830*
Y1488296*
X1885842*
Y1488344*
X1885854*
Y1488380*
X1885866*
Y1488428*
X1885878*
Y1488475*
X1886918Y1488473*
G54D16*
X2254957Y1484728D02*
X2255357Y1487728D01*
Y1488228*
X2254757Y1491228*
X2253257Y1493828*
X2251157Y1496028*
X2248457Y1497328*
X2245557Y1497928*
X2242557Y1497628*
X2239757Y1496428*
X2237457Y1494428*
X2235857Y1491828*
X2235057Y1488928*
X2235157Y1485928*
X2236057Y1483128*
X2237857Y1480628*
X2240257Y1478828*
X2243057Y1477728*
X2246057Y1477528*
X2248957Y1478228*
X2251557Y1479828*
X2253657Y1482028*
X2254957Y1484728*
X2250557Y1485228D02*
X2251157Y1487728D01*
X2251057Y1488728*
X2250057Y1491128*
X2248157Y1492928*
X2245657Y1493728*
X2243057Y1493328*
X2240957Y1491928*
X2239557Y1489828*
X2239157Y1487228*
X2239957Y1484728*
X2241757Y1482828*
X2244157Y1481828*
X2246757Y1481928*
X2249057Y1483128*
X2250557Y1485228*
X2262257Y1483828D02*
X2262657Y1487728D01*
X2260857Y1480028D02*
X2262257Y1483828D01*
X2255957Y1473928D02*
X2258657Y1476628D01*
X2252557Y1471828D02*
X2255957Y1473928D01*
X2252357Y1471828D02*
X2252557D01*
X2244857Y1470228D02*
X2248557Y1470628D01*
X2240957Y1470728D02*
X2244857Y1470228D01*
X2240657Y1470828D02*
X2240957Y1470728D01*
X2233957Y1474328D02*
X2236957Y1472328D01*
X2231157Y1477228D02*
X2233957Y1474328D01*
X2230957Y1477528D02*
X2231157Y1477228D01*
X2227957Y1484428D02*
X2229057Y1481028D01*
X2227657Y1488328D02*
X2227957Y1484428D01*
X2227657Y1488328D02*
X2227757Y1488828D01*
X2228457Y1492828D02*
X2229657Y1495928D01*
X2231957Y1499228*
X2232457Y1499628*
X2235457Y1502228D02*
X2238357Y1503828D01*
X2242157Y1504928*
X2242857Y1505028*
X2246857Y1505128D02*
X2249957Y1504528D01*
X2253657Y1503028*
X2254357Y1502528*
X2257457Y1500028D02*
X2259457Y1497728D01*
X2261357Y1494328*
X2261657Y1493328*
X2239157Y1497928D02*
X2251057D01*
X2256957Y1487728*
X2251057Y1477528*
X2239157*
X2233357Y1487728*
X2239157Y1497928*
X1774643Y1484728D02*
X1775043Y1487728D01*
Y1488228*
X1774443Y1491228*
X1772943Y1493828*
X1770843Y1496028*
X1768143Y1497328*
X1765243Y1497928*
X1762243Y1497628*
X1759443Y1496428*
X1757143Y1494428*
X1755543Y1491828*
X1754743Y1488928*
X1754843Y1485928*
X1755743Y1483128*
X1757543Y1480628*
X1759943Y1478828*
X1762743Y1477728*
X1765743Y1477528*
X1768643Y1478228*
X1771243Y1479828*
X1773343Y1482028*
X1774643Y1484728*
X1770243Y1485228D02*
X1770843Y1487728D01*
X1770743Y1488728*
X1769743Y1491128*
X1767843Y1492928*
X1765343Y1493728*
X1762743Y1493328*
X1760643Y1491928*
X1759243Y1489828*
X1758843Y1487228*
X1759643Y1484728*
X1761443Y1482828*
X1763843Y1481828*
X1766443Y1481928*
X1768743Y1483128*
X1770243Y1485228*
X1781943Y1483828D02*
X1782343Y1487728D01*
X1780543Y1480028D02*
X1781943Y1483828D01*
X1775643Y1473928D02*
X1778343Y1476628D01*
X1772243Y1471828D02*
X1775643Y1473928D01*
X1772043Y1471828D02*
X1772243D01*
X1764543Y1470228D02*
X1768243Y1470628D01*
X1760643Y1470728D02*
X1764543Y1470228D01*
X1760343Y1470828D02*
X1760643Y1470728D01*
X1753643Y1474328D02*
X1756643Y1472328D01*
X1750843Y1477228D02*
X1753643Y1474328D01*
X1750643Y1477528D02*
X1750843Y1477228D01*
X1747643Y1484428D02*
X1748743Y1481028D01*
X1747343Y1488328D02*
X1747643Y1484428D01*
X1747343Y1488328D02*
X1747443Y1488828D01*
X1748143Y1492828D02*
X1749343Y1495928D01*
X1751643Y1499228*
X1752143Y1499628*
X1755143Y1502228D02*
X1758043Y1503828D01*
X1761843Y1504928*
X1762543Y1505028*
X1766543Y1505128D02*
X1769643Y1504528D01*
X1773343Y1503028*
X1774043Y1502528*
X1777143Y1500028D02*
X1779143Y1497728D01*
X1781043Y1494328*
X1781343Y1493328*
X1758843Y1497928D02*
X1770743D01*
X1776643Y1487728*
X1770743Y1477528*
X1758843*
X1753043Y1487728*
X1758843Y1497928*
X1774741Y1768537D02*
X1775036Y1771549D01*
X1775019Y1772049*
X1774315Y1775026*
X1772725Y1777572*
X1770549Y1779697*
X1767805Y1780902*
X1764886Y1781401*
X1761899Y1780996*
X1759142Y1779699*
X1756913Y1777620*
X1755405Y1774966*
X1754707Y1772040*
X1754911Y1769045*
X1755909Y1766278*
X1757795Y1763842*
X1760256Y1762127*
X1763093Y1761126*
X1766098Y1761031*
X1768972Y1761831*
X1771514Y1763521*
X1773536Y1765793*
X1774741Y1768537*
X1770326Y1768883D02*
X1770839Y1771402D01*
X1770704Y1772398*
X1769621Y1774762*
X1767659Y1776494*
X1765133Y1777207*
X1762548Y1776716*
X1760499Y1775244*
X1759173Y1773096*
X1758864Y1770484*
X1759750Y1768013*
X1761616Y1766177*
X1764049Y1765262*
X1766644Y1765452*
X1768901Y1766732*
X1770326Y1768883*
X1782068Y1767892D02*
X1782332Y1771804D01*
X1780802Y1764046D02*
X1782068Y1767892D01*
X1776118Y1757778D02*
X1778722Y1760571D01*
X1772793Y1755561D02*
X1776118Y1757778D01*
X1772593Y1755554D02*
X1772793Y1755561D01*
X1765153Y1753693D02*
X1768837Y1754222D01*
X1761238Y1754057D02*
X1765153Y1753693D01*
X1760935Y1754146D02*
X1761238Y1754057D01*
X1754117Y1757410D02*
X1757185Y1755516D01*
X1751217Y1760211D02*
X1754117Y1757410D01*
X1751007Y1760504D02*
X1751217Y1760211D01*
X1747768Y1767295D02*
X1748986Y1763935D01*
X1747332Y1771182D02*
X1747768Y1767295D01*
X1747332Y1771182D02*
X1747415Y1771685D01*
X1747975Y1775707D02*
X1749066Y1778847D01*
X1751249Y1782225*
X1751735Y1782642*
X1754642Y1785346D02*
X1757485Y1787046D01*
X1761244Y1788278*
X1761940Y1788402*
X1765934Y1788642D02*
X1769053Y1788150D01*
X1772803Y1786780*
X1773520Y1786305*
X1776706Y1783915D02*
X1778785Y1781686D01*
X1780802Y1778354*
X1781137Y1777365*
X1758490Y1781177D02*
X1770383Y1781593D01*
X1776635Y1771605*
X1771095Y1761205*
X1759202Y1760790*
X1753050Y1770781*
X1758490Y1781177*
X2254957Y1768193D02*
X2255357Y1771193D01*
Y1771693*
X2254757Y1774693*
X2253257Y1777293*
X2251157Y1779493*
X2248457Y1780793*
X2245557Y1781393*
X2242557Y1781093*
X2239757Y1779893*
X2237457Y1777893*
X2235857Y1775293*
X2235057Y1772393*
X2235157Y1769393*
X2236057Y1766593*
X2237857Y1764093*
X2240257Y1762293*
X2243057Y1761193*
X2246057Y1760993*
X2248957Y1761693*
X2251557Y1763293*
X2253657Y1765493*
X2254957Y1768193*
X2250557Y1768693D02*
X2251157Y1771193D01*
X2251057Y1772193*
X2250057Y1774593*
X2248157Y1776393*
X2245657Y1777193*
X2243057Y1776793*
X2240957Y1775393*
X2239557Y1773293*
X2239157Y1770693*
X2239957Y1768193*
X2241757Y1766293*
X2244157Y1765293*
X2246757Y1765393*
X2249057Y1766593*
X2250557Y1768693*
X2262257Y1767293D02*
X2262657Y1771193D01*
X2260857Y1763493D02*
X2262257Y1767293D01*
X2255957Y1757393D02*
X2258657Y1760093D01*
X2252557Y1755293D02*
X2255957Y1757393D01*
X2252357Y1755293D02*
X2252557D01*
X2244857Y1753693D02*
X2248557Y1754093D01*
X2240957Y1754193D02*
X2244857Y1753693D01*
X2240657Y1754293D02*
X2240957Y1754193D01*
X2233957Y1757793D02*
X2236957Y1755793D01*
X2231157Y1760693D02*
X2233957Y1757793D01*
X2230957Y1760993D02*
X2231157Y1760693D01*
X2227957Y1767893D02*
X2229057Y1764493D01*
X2227657Y1771793D02*
X2227957Y1767893D01*
X2227657Y1771793D02*
X2227757Y1772293D01*
X2228457Y1776293D02*
X2229657Y1779393D01*
X2231957Y1782693*
X2232457Y1783093*
X2235457Y1785693D02*
X2238357Y1787293D01*
X2242157Y1788393*
X2242857Y1788493*
X2246857Y1788593D02*
X2249957Y1787993D01*
X2253657Y1786493*
X2254357Y1785993*
X2257457Y1783493D02*
X2259457Y1781193D01*
X2261357Y1777793*
X2261657Y1776793*
X2239157Y1781393D02*
X2251057D01*
X2256957Y1771193*
X2251057Y1760993*
X2239157*
X2233357Y1771193*
X2239157Y1781393*
X1774731Y1721193D02*
G03X1774731I-440J0D01*
G01X1771966Y1649815D02*
G03X1771966I-549J0D01*
G01X1775519Y1649146D02*
G03X1775519I-440J0D01*
G01X2103839Y1472768D02*
X2154213D01*
Y1501508*
X2103839*
Y1472768*
X2121516Y1501311D02*
Y1472768D01*
X2106516Y1501508D02*
Y1472768D01*
X2136516Y1501508D02*
Y1472768D01*
X2117496Y1495004D02*
X2125496D01*
X2151516Y1501508D02*
Y1472768D01*
X2132496Y1495004D02*
X2140496D01*
X2103839Y1462925D02*
Y1455051D01*
X2108957*
X2154213Y1462925D02*
Y1455051D01*
X2149094*
X2197763Y1761350D02*
G03X2197763I-440J0D01*
G01X2198540Y1765012D02*
G03X2198540I-548J0D01*
G01X2260315Y1707709D02*
Y1742709D01*
X2231575*
Y1707709*
X2260315*
X2231575Y1710209D02*
X2260315D01*
X2231575Y1725209D02*
X2260315D01*
X2231575Y1740209D02*
X2260315D01*
X2238079Y1721189D02*
Y1729189D01*
X2270157Y1707709D02*
X2278031D01*
X2278031D02*
Y1713709D01*
X2270157Y1742709D02*
X2278031D01*
X2278031D02*
Y1736709D01*
X2260709Y1660504D02*
Y1695504D01*
X2231969*
Y1660504*
X2260709*
X2231969Y1663004D02*
X2260709D01*
X2231969Y1678004D02*
X2260709D01*
X2231969Y1693004D02*
X2260709D01*
X2238472Y1673984D02*
Y1681984D01*
X2270551Y1660504D02*
X2278425D01*
Y1666504*
X2270551Y1695504D02*
X2278425D01*
Y1689504*
X2261181Y1614244D02*
Y1649244D01*
X2232441*
Y1614244*
X2261181*
X2232441Y1616744D02*
X2261181D01*
X2232441Y1631744D02*
X2261181D01*
X2232441Y1646744D02*
X2261181D01*
X2238945Y1627724D02*
Y1635724D01*
X2271024Y1614244D02*
X2278898D01*
Y1620244*
X2271024Y1649244D02*
X2278898D01*
Y1643244*
X2261063Y1569008D02*
Y1604008D01*
X2232323*
Y1569008*
X2261063*
X2232323Y1571508D02*
X2261063D01*
X2232323Y1586508D02*
X2261063D01*
X2232323Y1601508D02*
X2261063D01*
X2238827Y1582488D02*
Y1590488D01*
X2270906Y1569008D02*
X2278780D01*
Y1575008*
X2270906Y1604008D02*
X2278780D01*
Y1598008*
X2261260Y1520268D02*
Y1555268D01*
X2232520*
Y1520268*
X2261260*
X2232520Y1522768D02*
X2261260D01*
X2232520Y1537768D02*
X2261260D01*
X2232520Y1552768D02*
X2261260D01*
X2239024Y1533748D02*
Y1541748D01*
X2271102Y1520268D02*
X2278976D01*
Y1526268*
X2271102Y1555268D02*
X2278976D01*
Y1549268*
X1850115Y1765406D02*
G03X1850115I-548J0D01*
G01X2050689Y1472768D02*
X2101063D01*
Y1501508*
X2050689*
Y1472768*
X2068366Y1501311D02*
Y1472768D01*
X2053366Y1501508D02*
Y1472768D01*
X2083366Y1501508D02*
Y1472768D01*
X2064346Y1495004D02*
X2072346D01*
X2098366Y1501508D02*
Y1472768D01*
X2079346Y1495004D02*
X2087346D01*
X2050689Y1462925D02*
Y1455051D01*
X2055807*
X2101063Y1462925D02*
Y1455051D01*
X2095945*
X1990666Y1765406D02*
G03X1990666I-548J0D01*
G01X1989889Y1761744D02*
G03X1989889I-440J0D01*
G01X1771966Y1585642D02*
G03X1771966I-549J0D01*
G01X1775519Y1584972D02*
G03X1775519I-440J0D01*
G01X1771178Y1721862D02*
G03X1771178I-548J0D01*
G01X2036434Y1731595D02*
X2039434D01*
X2043839Y1730843D02*
Y1726443D01*
X2171611Y1493122D02*
G03X2171611I-548J0D01*
G01X2172172Y1496783D02*
G03X2172172I-440J0D01*
G01X2061149Y1761744D02*
G03X2061149I-440J0D01*
G01X2061926Y1765406D02*
G03X2061926I-548J0D01*
G01X2206575Y1438710D02*
X2207029Y1439023D01*
X2207711Y1439960*
Y1433398*
X2214984Y1436210D02*
X2219075D01*
X2229529Y1439023D02*
X2229075Y1439648D01*
X2228393Y1439960*
X2227484*
X2226802Y1439648*
X2226348Y1439023*
Y1438398*
X2226575Y1437773*
X2226802Y1437460*
X2227257Y1437148*
X2228620Y1436523*
X2229075Y1436210*
X2229302Y1435898*
X2229529Y1435273*
Y1434335*
X2229075Y1433710*
X2228393Y1433398*
X2227484*
X2226802Y1433710*
X2226348Y1434335*
X2231575Y1439960D02*
X2231802Y1439648D01*
X2232029Y1439960*
X2231802Y1440273*
X2231575Y1439960*
X2231802Y1437773D02*
Y1433398D01*
X2234075Y1439960D02*
Y1433398D01*
X2236120Y1439960D02*
Y1433398D01*
X2238393Y1437773D02*
X2236120Y1434648D01*
X2237029Y1435898D02*
X2238620Y1433398D01*
X2243166Y1436835D02*
X2242938Y1437460D01*
X2242257Y1437773*
X2241575*
X2240893Y1437460*
X2240666Y1436835*
X2240893Y1436210*
X2241348Y1435898*
X2242484Y1435585*
X2242938Y1435273*
X2243166Y1434648*
Y1434335*
X2242938Y1433710*
X2242257Y1433398*
X2241575*
X2240893Y1433710*
X2240666Y1434335*
X2247938Y1436835D02*
X2247484Y1437460D01*
X2247029Y1437773*
X2246348*
X2245893Y1437460*
X2245438Y1436835*
X2245211Y1435898*
Y1435273*
X2245438Y1434335*
X2245893Y1433710*
X2246348Y1433398*
X2247029*
X2247484Y1433710*
X2247938Y1434335*
X2249984Y1437773D02*
Y1433398D01*
Y1435898D02*
X2250211Y1436835D01*
X2250666Y1437460*
X2251120Y1437773*
X2251802*
X2253848Y1435898D02*
X2256575D01*
Y1436523*
X2256348Y1437148*
X2256120Y1437460*
X2255666Y1437773*
X2254984*
X2254529Y1437460*
X2254075Y1436835*
X2253848Y1435898*
Y1435273*
X2254075Y1434335*
X2254529Y1433710*
X2254984Y1433398*
X2255666*
X2256120Y1433710*
X2256575Y1434335*
X2258620Y1435898D02*
X2261348D01*
Y1436523*
X2261120Y1437148*
X2260893Y1437460*
X2260438Y1437773*
X2259757*
X2259302Y1437460*
X2258848Y1436835*
X2258620Y1435898*
Y1435273*
X2258848Y1434335*
X2259302Y1433710*
X2259757Y1433398*
X2260438*
X2260893Y1433710*
X2261348Y1434335*
X2263393Y1437773D02*
Y1433398D01*
Y1436523D02*
X2264075Y1437460D01*
X2264529Y1437773*
X2265211*
X2265666Y1437460*
X2265893Y1436523*
Y1433398*
X2274757Y1439960D02*
Y1433398D01*
X2273166Y1439960D02*
X2276348D01*
X2279757D02*
X2279302Y1439648D01*
X2278848Y1439023*
X2278620Y1438398*
X2278393Y1437460*
Y1435898*
X2278620Y1434960*
X2278848Y1434335*
X2279302Y1433710*
X2279757Y1433398*
X2280666*
X2281120Y1433710*
X2281575Y1434335*
X2281802Y1434960*
X2282029Y1435898*
Y1437460*
X2281802Y1438398*
X2281575Y1439023*
X2281120Y1439648*
X2280666Y1439960*
X2279757*
X2284075D02*
Y1433398D01*
Y1439960D02*
X2286120D01*
X2286802Y1439648*
X2287029Y1439335*
X2287257Y1438710*
Y1437773*
X2287029Y1437148*
X2286802Y1436835*
X2286120Y1436523*
X2284075*
X1933015Y1380130D02*
X1932788Y1380755D01*
X1932334Y1381380*
X1931879Y1381692*
X1930970*
X1930515Y1381380*
X1930061Y1380755*
X1929834Y1380130*
X1929606Y1379192*
Y1377630*
X1929834Y1376692*
X1930061Y1376067*
X1930515Y1375442*
X1930970Y1375130*
X1931879*
X1932334Y1375442*
X1932788Y1376067*
X1933015Y1376692*
X1936652Y1381692D02*
Y1375130D01*
X1935061Y1381692D02*
X1938243D01*
X1940288D02*
Y1375130D01*
Y1381692D02*
X1942334D01*
X1943015Y1381380*
X1943243Y1381067*
X1943470Y1380442*
Y1379817*
X1943243Y1379192*
X1943015Y1378880*
X1942334Y1378567*
X1940288*
X1941879D02*
X1943470Y1375130D01*
X1945515Y1380442D02*
X1945970Y1380755D01*
X1946652Y1381692*
Y1375130*
X1951879Y1380755D02*
X1951424Y1381380D01*
X1950743Y1381692*
X1949834*
X1949152Y1381380*
X1948697Y1380755*
Y1380130*
X1948924Y1379505*
X1949152Y1379192*
X1949606Y1378880*
X1950970Y1378255*
X1951424Y1377942*
X1951652Y1377630*
X1951879Y1377005*
Y1376067*
X1951424Y1375442*
X1950743Y1375130*
X1949834*
X1949152Y1375442*
X1948697Y1376067*
X1959152Y1377942D02*
X1963243D01*
X1970515Y1381692D02*
Y1375130D01*
Y1381692D02*
X1972561D01*
X1973243Y1381380*
X1973470Y1381067*
X1973697Y1380442*
Y1379817*
X1973470Y1379192*
X1973243Y1378880*
X1972561Y1378567*
X1970515D02*
X1972561D01*
X1973243Y1378255*
X1973470Y1377942*
X1973697Y1377317*
Y1376380*
X1973470Y1375755*
X1973243Y1375442*
X1972561Y1375130*
X1970515*
X1977106Y1381692D02*
X1976652Y1381380D01*
X1976197Y1380755*
X1975970Y1380130*
X1975743Y1379192*
Y1377630*
X1975970Y1376692*
X1976197Y1376067*
X1976652Y1375442*
X1977106Y1375130*
X1978015*
X1978470Y1375442*
X1978924Y1376067*
X1979152Y1376692*
X1979379Y1377630*
Y1379192*
X1979152Y1380130*
X1978924Y1380755*
X1978470Y1381380*
X1978015Y1381692*
X1977106*
X1983243D02*
X1981424Y1375130D01*
X1983243Y1381692D02*
X1985061Y1375130D01*
X1982106Y1377317D02*
X1984379D01*
X1987106Y1381692D02*
Y1375130D01*
Y1381692D02*
X1989152D01*
X1989834Y1381380*
X1990061Y1381067*
X1990288Y1380442*
Y1379817*
X1990061Y1379192*
X1989834Y1378880*
X1989152Y1378567*
X1987106*
X1988697D02*
X1990288Y1375130D01*
X1992334Y1381692D02*
Y1375130D01*
Y1381692D02*
X1993924D01*
X1994606Y1381380*
X1995061Y1380755*
X1995288Y1380130*
X1995515Y1379192*
Y1377630*
X1995288Y1376692*
X1995061Y1376067*
X1994606Y1375442*
X1993924Y1375130*
X1992334*
X2004379Y1381692D02*
Y1375130D01*
X2002788Y1381692D02*
X2005970D01*
X2008015D02*
Y1375130D01*
X2011197Y1381692D02*
Y1375130D01*
X2008015Y1378567D02*
X2011197D01*
X2013243Y1381692D02*
Y1375130D01*
X2018697Y1380130D02*
X2018470Y1380755D01*
X2018015Y1381380*
X2017561Y1381692*
X2016652*
X2016197Y1381380*
X2015743Y1380755*
X2015515Y1380130*
X2015288Y1379192*
Y1377630*
X2015515Y1376692*
X2015743Y1376067*
X2016197Y1375442*
X2016652Y1375130*
X2017561*
X2018015Y1375442*
X2018470Y1376067*
X2018697Y1376692*
X2020743Y1381692D02*
Y1375130D01*
X2023924Y1381692D02*
X2020743Y1377317D01*
X2021879Y1378880D02*
X2023924Y1375130D01*
X2025970Y1381692D02*
Y1375130D01*
Y1381692D02*
X2029152Y1375130D01*
Y1381692D02*
Y1375130D01*
X2031197Y1381692D02*
Y1375130D01*
Y1381692D02*
X2034152D01*
X2031197Y1378567D02*
X2033015D01*
X2031197Y1375130D02*
X2034152D01*
X2039379Y1380755D02*
X2038924Y1381380D01*
X2038243Y1381692*
X2037334*
X2036652Y1381380*
X2036197Y1380755*
Y1380130*
X2036424Y1379505*
X2036652Y1379192*
X2037106Y1378880*
X2038470Y1378255*
X2038924Y1377942*
X2039152Y1377630*
X2039379Y1377005*
Y1376067*
X2038924Y1375442*
X2038243Y1375130*
X2037334*
X2036652Y1375442*
X2036197Y1376067*
X2044606Y1380755D02*
X2044152Y1381380D01*
X2043470Y1381692*
X2042561*
X2041879Y1381380*
X2041424Y1380755*
Y1380130*
X2041652Y1379505*
X2041879Y1379192*
X2042334Y1378880*
X2043697Y1378255*
X2044152Y1377942*
X2044379Y1377630*
X2044606Y1377005*
Y1376067*
X2044152Y1375442*
X2043470Y1375130*
X2042561*
X2041879Y1375442*
X2041424Y1376067*
X2051879Y1380442D02*
X2052334Y1380755D01*
X2053015Y1381692*
Y1375130*
X2055288Y1375755D02*
X2055061Y1375442D01*
X2055288Y1375130*
X2055515Y1375442*
X2055288Y1375755*
X2060288Y1380755D02*
X2060061Y1381380D01*
X2059379Y1381692*
X2058924*
X2058243Y1381380*
X2057788Y1380442*
X2057561Y1378880*
Y1377317*
X2057788Y1376067*
X2058243Y1375442*
X2058924Y1375130*
X2059152*
X2059834Y1375442*
X2060288Y1376067*
X2060515Y1377005*
Y1377317*
X2060288Y1378255*
X2059834Y1378880*
X2059152Y1379192*
X2058924*
X2058243Y1378880*
X2057788Y1378255*
X2057561Y1377317*
X2062561Y1379505D02*
Y1375130D01*
Y1378255D02*
X2063243Y1379192D01*
X2063697Y1379505*
X2064379*
X2064834Y1379192*
X2065061Y1378255*
Y1375130*
Y1378255D02*
X2065743Y1379192D01*
X2066197Y1379505*
X2066879*
X2067334Y1379192*
X2067561Y1378255*
Y1375130*
X2069606Y1379505D02*
Y1375130D01*
Y1378255D02*
X2070288Y1379192D01*
X2070743Y1379505*
X2071424*
X2071879Y1379192*
X2072106Y1378255*
Y1375130*
Y1378255D02*
X2072788Y1379192D01*
X2073243Y1379505*
X2073924*
X2074379Y1379192*
X2074606Y1378255*
Y1375130*
X2077106Y1375442D02*
X2076879Y1375130D01*
X2076652Y1375442*
X2076879Y1375755*
X2077106Y1375442*
Y1374817*
X2076879Y1374192*
X2076652Y1373880*
X2084379Y1381692D02*
Y1375130D01*
Y1381692D02*
X2086424D01*
X2087106Y1381380*
X2087334Y1381067*
X2087561Y1380442*
Y1379817*
X2087334Y1379192*
X2087106Y1378880*
X2086424Y1378567*
X2084379*
X2085970D02*
X2087561Y1375130D01*
X2089606Y1381692D02*
Y1375130D01*
X2092788Y1381692D02*
Y1375130D01*
X2089606Y1378567D02*
X2092788D01*
X2096197Y1381692D02*
X2095743Y1381380D01*
X2095288Y1380755*
X2095061Y1380130*
X2094834Y1379192*
Y1377630*
X2095061Y1376692*
X2095288Y1376067*
X2095743Y1375442*
X2096197Y1375130*
X2097106*
X2097561Y1375442*
X2098015Y1376067*
X2098243Y1376692*
X2098470Y1377630*
Y1379192*
X2098243Y1380130*
X2098015Y1380755*
X2097561Y1381380*
X2097106Y1381692*
X2096197*
X2103697Y1380755D02*
X2103243Y1381380D01*
X2102561Y1381692*
X2101652*
X2100970Y1381380*
X2100515Y1380755*
Y1380130*
X2100743Y1379505*
X2100970Y1379192*
X2101424Y1378880*
X2102788Y1378255*
X2103243Y1377942*
X2103470Y1377630*
X2103697Y1377005*
Y1376067*
X2103243Y1375442*
X2102561Y1375130*
X2101652*
X2100970Y1375442*
X2100515Y1376067*
X2112788Y1381692D02*
X2112334D01*
X2111879Y1381380*
X2111652Y1380442*
Y1375130*
X2110970Y1379505D02*
X2112561D01*
X2114834Y1381692D02*
X2115061Y1381380D01*
X2115288Y1381692*
X2115061Y1382005*
X2114834Y1381692*
X2115061Y1379505D02*
Y1375130D01*
X2117334Y1379505D02*
Y1375130D01*
Y1378255D02*
X2118015Y1379192D01*
X2118470Y1379505*
X2119152*
X2119606Y1379192*
X2119834Y1378255*
Y1375130*
X2121879Y1381692D02*
X2122106Y1381380D01*
X2122334Y1381692*
X2122106Y1382005*
X2121879Y1381692*
X2122106Y1379505D02*
Y1375130D01*
X2126879Y1378567D02*
X2126652Y1379192D01*
X2125970Y1379505*
X2125288*
X2124606Y1379192*
X2124379Y1378567*
X2124606Y1377942*
X2125061Y1377630*
X2126197Y1377317*
X2126652Y1377005*
X2126879Y1376380*
Y1376067*
X2126652Y1375442*
X2125970Y1375130*
X2125288*
X2124606Y1375442*
X2124379Y1376067*
X2128924Y1381692D02*
Y1375130D01*
Y1378255D02*
X2129606Y1379192D01*
X2130061Y1379505*
X2130743*
X2131197Y1379192*
X2131424Y1378255*
Y1375130*
X2133470Y1381692D02*
X2133697Y1381380D01*
X2133924Y1381692*
X2133697Y1382005*
X2133470Y1381692*
X2133697Y1379505D02*
Y1375130D01*
X2135970Y1379505D02*
Y1375130D01*
Y1378255D02*
X2136652Y1379192D01*
X2137106Y1379505*
X2137788*
X2138243Y1379192*
X2138470Y1378255*
Y1375130*
X2143243Y1379505D02*
Y1374505D01*
X2143015Y1373567*
X2142788Y1373255*
X2142334Y1372942*
X2141652*
X2141197Y1373255*
X2143243Y1378567D02*
X2142788Y1379192D01*
X2142334Y1379505*
X2141652*
X2141197Y1379192*
X2140743Y1378567*
X2140515Y1377630*
Y1377005*
X2140743Y1376067*
X2141197Y1375442*
X2141652Y1375130*
X2142334*
X2142788Y1375442*
X2143243Y1376067*
X1705653Y1379539D02*
X1705426Y1380164D01*
X1704971Y1380789*
X1704517Y1381102*
X1703608*
X1703153Y1380789*
X1702699Y1380164*
X1702471Y1379539*
X1702244Y1378602*
Y1377039*
X1702471Y1376102*
X1702699Y1375477*
X1703153Y1374852*
X1703608Y1374539*
X1704517*
X1704971Y1374852*
X1705426Y1375477*
X1705653Y1376102*
X1709290Y1381102D02*
Y1374539D01*
X1707699Y1381102D02*
X1710880D01*
X1712926D02*
Y1374539D01*
Y1381102D02*
X1714971D01*
X1715653Y1380789*
X1715880Y1380477*
X1716108Y1379852*
Y1379227*
X1715880Y1378602*
X1715653Y1378289*
X1714971Y1377977*
X1712926*
X1714517D02*
X1716108Y1374539D01*
X1718153Y1379852D02*
X1718608Y1380164D01*
X1719290Y1381102*
Y1374539*
X1724517Y1380164D02*
X1724062Y1380789D01*
X1723380Y1381102*
X1722471*
X1721790Y1380789*
X1721335Y1380164*
Y1379539*
X1721562Y1378914*
X1721790Y1378602*
X1722244Y1378289*
X1723608Y1377664*
X1724062Y1377352*
X1724290Y1377039*
X1724517Y1376414*
Y1375477*
X1724062Y1374852*
X1723380Y1374539*
X1722471*
X1721790Y1374852*
X1721335Y1375477*
X1846969Y1378411D02*
X1847423Y1378723D01*
X1848105Y1379661*
Y1373098*
X1852423Y1379661D02*
X1850150Y1375286D01*
X1853559*
X1852423Y1379661D02*
Y1373098D01*
X1858787Y1379661D02*
X1856514Y1373098D01*
X1855605Y1379661D02*
X1858787D01*
X1860832Y1378411D02*
X1861287Y1378723D01*
X1861969Y1379661*
X1861969D02*
Y1373098D01*
X1865378Y1379661D02*
X1864696Y1379348D01*
X1864241Y1378411*
X1864014Y1376848*
Y1375911*
X1864241Y1374348*
X1864696Y1373411*
X1865378Y1373098*
X1865832*
X1866514Y1373411*
X1866969Y1374348*
X1866969D02*
X1867196Y1375911D01*
Y1376848*
X1866969Y1378411*
X1866969D02*
X1866514Y1379348D01*
X1865832Y1379661*
X1865378*
X1896167D02*
X1895485Y1379348D01*
X1895030Y1378411*
X1894803Y1376848*
Y1375911*
X1895030Y1374348*
X1895485Y1373411*
X1896167Y1373098*
X1896621*
X1897303Y1373411*
X1897758Y1374348*
X1897985Y1375911*
Y1376848*
X1897758Y1378411*
X1897303Y1379348*
X1896621Y1379661*
X1896167*
X1900030Y1378411D02*
X1900485Y1378723D01*
X1901167Y1379661*
Y1373098*
G54D23*
X2203858Y1698671D02*
X2206614D01*
X2217047Y1698474D02*
X2220000D01*
Y1673715D02*
X2217244D01*
X2206811Y1673911D02*
X2203858D01*
G54D28*
G54D37*
X1799184Y1485760D02*
X1798916Y1486498D01*
X1798379Y1487236*
X1797842Y1487605*
X1796768*
X1796231Y1487236*
X1795694Y1486498*
X1795426Y1485760*
X1795157Y1484653*
Y1482807*
X1795426Y1481700*
X1795694Y1480962*
X1796231Y1480223*
X1796768Y1479854*
X1797842*
X1798379Y1480223*
X1798916Y1480962*
X1799184Y1481700*
X1803479Y1487605D02*
Y1479854D01*
X1801600Y1487605D02*
X1805358D01*
X1807774D02*
Y1479854D01*
Y1487605D02*
X1810190D01*
X1810995Y1487236*
X1811263Y1486867*
X1811532Y1486129*
Y1485391*
X1811263Y1484653*
X1810995Y1484283*
X1810190Y1483914*
X1807774*
X1809653D02*
X1811532Y1479854D01*
X1813948Y1486129D02*
X1814485Y1486498D01*
X1815290Y1487605*
Y1479854*
X1821464Y1486498D02*
X1820927Y1487236D01*
X1820122Y1487605*
X1819048*
X1818243Y1487236*
X1817706Y1486498*
Y1485760*
X1817974Y1485022*
X1818243Y1484653*
X1818780Y1484283*
X1820390Y1483545*
X1820927Y1483176*
X1821195Y1482807*
X1821464Y1482069*
Y1480962*
X1820927Y1480223*
X1820122Y1479854*
X1819048*
X1818243Y1480223*
X1817706Y1480962*
X1833740Y1485735D02*
X1834277Y1486104D01*
X1835082Y1487212*
Y1479461*
X1840183Y1487212D02*
X1837498Y1482044D01*
X1841525*
X1840183Y1487212D02*
Y1479461D01*
X1847699Y1487212D02*
X1845014Y1479461D01*
X1843941Y1487212D02*
X1847699D01*
X1850115Y1485735D02*
X1850651Y1486104D01*
X1851457Y1487212*
Y1479461*
X1855483Y1487212D02*
X1854678Y1486843D01*
X1854141Y1485735*
X1853873Y1483890*
Y1482782*
X1854141Y1480937*
X1854678Y1479830*
X1855483Y1479461*
X1856020*
X1856825Y1479830*
X1857362Y1480937*
X1857631Y1482782*
Y1483890*
X1857362Y1485735*
X1856825Y1486843*
X1856020Y1487212*
X1855483*
X2213819Y1736405D02*
X2214356Y1736774D01*
X2215161Y1737881*
Y1730130*
X2217845Y1736035D02*
Y1736405D01*
X2218114Y1737143*
X2218382Y1737512*
X2218919Y1737881*
X2219993*
X2220530Y1737512*
X2220798Y1737143*
X2221067Y1736405*
Y1735666*
X2220798Y1734928*
X2220261Y1733821*
X2217577Y1730130*
X2221335*
X2223751Y1737881D02*
X2225898Y1730130D01*
X2228046Y1737881D02*
X2225898Y1730130D01*
X2226156Y1720356D02*
Y1713713D01*
X2223740Y1717034D02*
X2228572D01*
X2207047Y1690794D02*
Y1683043D01*
Y1690794D02*
X2209463D01*
X2210268Y1690425*
X2210537Y1690056*
X2210805Y1689318*
Y1688580*
X2210537Y1687842*
X2210268Y1687472*
X2209463Y1687103*
X2207047D02*
X2209463D01*
X2210268Y1686734*
X2210537Y1686365*
X2210805Y1685627*
Y1684520*
X2210537Y1683781*
X2210268Y1683412*
X2209463Y1683043*
X2207047*
X2216442Y1688211D02*
Y1683043D01*
Y1687103D02*
X2215906Y1687842D01*
X2215369Y1688211*
X2214563*
X2214026Y1687842*
X2213490Y1687103*
X2213221Y1685996*
Y1685258*
X2213490Y1684151*
X2214026Y1683412*
X2214563Y1683043*
X2215369*
X2215906Y1683412*
X2216442Y1684151*
X2219664Y1690794D02*
Y1684520D01*
X2219932Y1683412*
X2220469Y1683043*
X2221006*
X2218858Y1688211D02*
X2220737D01*
X2224227Y1690794D02*
Y1684520D01*
X2224495Y1683412*
X2225032Y1683043*
X2225569*
X2223422Y1688211D02*
X2225301D01*
X2228253Y1683781D02*
X2227985Y1683412D01*
X2228253Y1683043*
X2228522Y1683412*
X2228253Y1683781*
X2227298Y1673624D02*
Y1666980D01*
X2224882Y1670302D02*
X2229714D01*
X2219222Y1623376D02*
X2218484Y1622839D01*
X2218115Y1622034*
Y1620960*
X2218484Y1620155*
X2219222Y1619618*
X2219961*
X2220699Y1619887*
X2221068Y1620155*
X2221437Y1620692*
X2222175Y1622302*
X2222544Y1622839*
X2222913Y1623108*
X2223652Y1623376*
X2224759*
X2225497Y1622839*
X2225866Y1622034*
Y1620960*
X2225497Y1620155*
X2224759Y1619618*
X2220699Y1625792D02*
X2225866Y1626866D01*
X2220699Y1627940D02*
X2225866Y1626866D01*
X2220699Y1627940D02*
X2225866Y1629013D01*
X2220699Y1630087D02*
X2225866Y1629013D01*
X2218115Y1632503D02*
X2218484Y1632771D01*
X2218115Y1633040*
X2217746Y1632771*
X2218115Y1632503*
X2220699Y1632771D02*
X2225866D01*
X2225128Y1635724D02*
X2225497Y1635456D01*
X2225866Y1635724*
X2225497Y1635992*
X2225128Y1635724*
X2218509Y1579067D02*
X2226260D01*
X2218509D02*
Y1582557D01*
X2222200Y1579067D02*
Y1581214D01*
X2221093Y1584972D02*
X2224783D01*
X2225891Y1585241*
X2226260Y1585778*
Y1586583*
X2225891Y1587120*
X2224783Y1587925*
X2221093D02*
X2226260D01*
X2222200Y1593294D02*
X2221462Y1593025D01*
X2221093Y1592220*
Y1591415*
X2221462Y1590610*
X2222200Y1590341*
X2222938Y1590610*
X2223307Y1591146*
X2223676Y1592489*
X2224045Y1593025*
X2224783Y1593294*
X2225153*
X2225891Y1593025*
X2226260Y1592220*
Y1591415*
X2225891Y1590610*
X2225153Y1590341*
X2225522Y1595978D02*
X2225891Y1595710D01*
X2226260Y1595978*
X2225891Y1596247*
X2225522Y1595978*
X2215753Y1523949D02*
X2223504D01*
X2215753D02*
Y1527438D01*
X2219444Y1523949D02*
Y1526096D01*
X2223504Y1523949D02*
Y1527438D01*
X2218337Y1529854D02*
X2223504D01*
X2219813D02*
X2218706Y1530660D01*
X2218337Y1531196*
Y1532002*
X2218706Y1532539*
X2219813Y1532807*
X2223504*
X2219813D02*
X2218706Y1533612D01*
X2218337Y1534149*
Y1534955*
X2218706Y1535491*
X2219813Y1535760*
X2223504*
X2218337Y1541397D02*
X2224242D01*
X2225349Y1541128*
X2225719Y1540860*
X2226088Y1540323*
Y1539518*
X2225719Y1538981*
X2219444Y1541397D02*
X2218706Y1540860D01*
X2218337Y1540323*
Y1539518*
X2218706Y1538981*
X2219444Y1538444*
X2220551Y1538176*
X2221289*
X2222397Y1538444*
X2223135Y1538981*
X2223504Y1539518*
Y1540323*
X2223135Y1540860*
X2222397Y1541397*
X2219444Y1547034D02*
X2218706Y1546497D01*
X2218337Y1545960*
Y1545155*
X2218706Y1544618*
X2219444Y1544081*
X2220551Y1543813*
X2221289*
X2222397Y1544081*
X2223135Y1544618*
X2223504Y1545155*
Y1545960*
X2223135Y1546497*
X2222397Y1547034*
X2218337Y1549718D02*
X2223504Y1551329D01*
X2218337Y1552940D02*
X2223504Y1551329D01*
X2224980Y1550792*
X2225719Y1550255*
X2226088Y1549718*
Y1549450*
X1966811Y1758471D02*
Y1750720D01*
Y1758471D02*
X1969227D01*
X1970032Y1758102*
X1970301Y1757733*
X1970569Y1756995*
Y1756257*
X1970301Y1755519*
X1970032Y1755150*
X1969227Y1754781*
X1966811D02*
X1969227D01*
X1970032Y1754411*
X1970301Y1754042*
X1970569Y1753304*
Y1752197*
X1970301Y1751459*
X1970032Y1751090*
X1969227Y1750720*
X1966811*
X1972985Y1755888D02*
Y1752197D01*
X1973253Y1751090*
X1973790Y1750720*
X1974596*
X1975132Y1751090*
X1975938Y1752197*
Y1755888D02*
Y1750720D01*
X1981306Y1755888D02*
X1978354Y1750720D01*
Y1755888D02*
X1981306D01*
X1978354Y1750720D02*
X1981306D01*
X1986675Y1755888D02*
X1983722Y1750720D01*
Y1755888D02*
X1986675D01*
X1983722Y1750720D02*
X1986675D01*
X1989359Y1751459D02*
X1989091Y1751090D01*
X1989359Y1750720*
X1989628Y1751090*
X1989359Y1751459*
X1752638Y1539968D02*
Y1532217D01*
Y1539968D02*
X1756127D01*
X1752638Y1536277D02*
X1754785D01*
X1752638Y1532217D02*
X1756127D01*
X1758543Y1537384D02*
Y1532217D01*
Y1535907D02*
X1759349Y1537015D01*
X1759885Y1537384*
X1760691*
X1761228Y1537015*
X1761496Y1535907*
Y1532217*
X1767133Y1536277D02*
X1766596Y1537015D01*
X1766059Y1537384*
X1765254*
X1764717Y1537015*
X1764180Y1536277*
X1763912Y1535169*
Y1534431*
X1764180Y1533324*
X1764717Y1532586*
X1765254Y1532217*
X1766059*
X1766596Y1532586*
X1767133Y1533324*
X1769817Y1532955D02*
X1769549Y1532586D01*
X1769817Y1532217*
X1770086Y1532586*
X1769817Y1532955*
X1755394Y1669495D02*
Y1661744D01*
Y1669495D02*
X1757810D01*
X1758615Y1669126*
X1758883Y1668757*
X1759152Y1668019*
Y1666911*
X1758883Y1666173*
X1758615Y1665804*
X1757810Y1665435*
X1755394*
X1762910Y1666911D02*
X1762373Y1666542D01*
X1761836Y1665804*
X1761568Y1664697*
Y1663959*
X1761836Y1662851*
X1762373Y1662113*
X1762910Y1661744*
X1763715*
X1764252Y1662113*
X1764789Y1662851*
X1765057Y1663959*
Y1664697*
X1764789Y1665804*
X1764252Y1666542*
X1763715Y1666911*
X1762910*
X1768278Y1669495D02*
Y1663220D01*
X1768547Y1662113*
X1769084Y1661744*
X1769621*
X1767473Y1666911D02*
X1769352D01*
X1772305Y1662482D02*
X1772037Y1662113D01*
X1772305Y1661744*
X1772573Y1662113*
X1772305Y1662482*
X1757935Y1743511D02*
X1755787Y1735760D01*
X1757935Y1743511D02*
X1760082Y1735760D01*
X1756593Y1738344D02*
X1759277D01*
X1762498Y1743511D02*
Y1735760D01*
X1768135Y1740927D02*
Y1735760D01*
Y1739820D02*
X1767598Y1740558D01*
X1767062Y1740927*
X1766256*
X1765719Y1740558*
X1765183Y1739820*
X1764914Y1738713*
Y1737974*
X1765183Y1736867*
X1765719Y1736129*
X1766256Y1735760*
X1767062*
X1767598Y1736129*
X1768135Y1736867*
X1770820Y1736498D02*
X1770551Y1736129D01*
X1770820Y1735760*
X1771088Y1736129*
X1770820Y1736498*
X1992402Y1545479D02*
Y1537728D01*
X1996160Y1545479D02*
X1992402Y1540312D01*
X1993744Y1542157D02*
X1996160Y1537728D01*
X1998576Y1540681D02*
X2001797D01*
Y1541419*
X2001528Y1542157*
X2001260Y1542527*
X2000723Y1542896*
X1999918*
X1999381Y1542527*
X1998844Y1541788*
X1998576Y1540681*
Y1539943*
X1998844Y1538836*
X1999381Y1538097*
X1999918Y1537728*
X2000723*
X2001260Y1538097*
X2001797Y1538836*
X2004481Y1542896D02*
X2006092Y1537728D01*
X2007702Y1542896D02*
X2006092Y1537728D01*
X2005555Y1536252*
X2005018Y1535514*
X2004481Y1535145*
X2004213*
X2010387Y1538467D02*
X2010118Y1538097D01*
X2010387Y1537728*
X2010655Y1538097*
X2010387Y1538467*
X1863268Y1778944D02*
Y1771193D01*
Y1778944D02*
X1865684D01*
X1866489Y1778575*
X1866757Y1778206*
X1867026Y1777468*
Y1776360*
X1866757Y1775622*
X1866489Y1775253*
X1865684Y1774884*
X1863268*
X1869442Y1776360D02*
Y1771193D01*
Y1774146D02*
X1869710Y1775253D01*
X1870247Y1775991*
X1870784Y1776360*
X1871589*
X1874005Y1774146D02*
X1877226D01*
Y1774884*
X1876958Y1775622*
X1876689Y1775991*
X1876152Y1776360*
X1875347*
X1874810Y1775991*
X1874273Y1775253*
X1874005Y1774146*
Y1773407*
X1874273Y1772300*
X1874810Y1771562*
X1875347Y1771193*
X1876152*
X1876689Y1771562*
X1877226Y1772300*
X1882595Y1775253D02*
X1882326Y1775991D01*
X1881521Y1776360*
X1880716*
X1879911Y1775991*
X1879642Y1775253*
X1879911Y1774515*
X1880447Y1774146*
X1881790Y1773777*
X1882326Y1773407*
X1882595Y1772669*
Y1772300*
X1882326Y1771562*
X1881521Y1771193*
X1880716*
X1879911Y1771562*
X1879642Y1772300*
X1887963Y1775253D02*
X1887695Y1775991D01*
X1886890Y1776360*
X1886084*
X1885279Y1775991*
X1885011Y1775253*
X1885279Y1774515*
X1885816Y1774146*
X1887158Y1773777*
X1887695Y1773407*
X1887963Y1772669*
Y1772300*
X1887695Y1771562*
X1886890Y1771193*
X1886084*
X1885279Y1771562*
X1885011Y1772300*
X1890648Y1771931D02*
X1890379Y1771562D01*
X1890648Y1771193*
X1890916Y1771562*
X1890648Y1771931*
X2047126Y1757684D02*
Y1749933D01*
Y1757684D02*
X2049542D01*
X2050347Y1757315*
X2050616Y1756946*
X2050884Y1756208*
Y1755100*
X2050616Y1754362*
X2050347Y1753993*
X2049542Y1753624*
X2047126*
X2053300Y1757684D02*
X2055447Y1749933D01*
X2057595Y1757684D02*
X2055447Y1749933D01*
X2051063Y1513196D02*
X2053210Y1505445D01*
X2055358Y1513196D02*
X2053210Y1505445D01*
X2063948Y1513196D02*
Y1505445D01*
Y1513196D02*
X2066364D01*
X2067169Y1512827*
X2067437Y1512458*
X2067706Y1511719*
Y1510612*
X2067437Y1509874*
X2067169Y1509505*
X2066364Y1509136*
X2063948*
X2070122Y1510612D02*
X2071195Y1505445D01*
X2072269Y1510612D02*
X2071195Y1505445D01*
X2072269Y1510612D02*
X2073343Y1505445D01*
X2074417Y1510612D02*
X2073343Y1505445D01*
X2159367Y1506897D02*
X2158830Y1506528D01*
X2158293Y1505789*
X2158024Y1505051*
X2157756Y1503944*
Y1502098*
X2158024Y1500991*
X2158293Y1500253*
X2158830Y1499515*
X2159367Y1499146*
X2159367D02*
X2160440D01*
X2160977Y1499515*
X2161514Y1500253*
X2161782Y1500991*
X2162051Y1502098*
Y1503944*
X2161782Y1505051*
X2161514Y1505789*
X2160977Y1506528*
X2160440Y1506897*
X2159367*
X2166077D02*
X2165540Y1506528D01*
X2165004Y1505789*
X2164735Y1505051*
X2164467Y1503944*
Y1502098*
X2164735Y1500991*
X2165004Y1500253*
X2165540Y1499515*
X2166077Y1499146*
X2167151*
X2167688Y1499515*
X2168225Y1500253*
X2168493Y1500991*
X2168762Y1502098*
Y1503944*
X2168493Y1505051*
X2168225Y1505789*
X2167688Y1506528*
X2167151Y1506897*
X2166077*
X2171178D02*
X2173325Y1499146D01*
X2175472Y1506897D02*
X2173325Y1499146D01*
X2180705Y1779731D02*
X2180168Y1779362D01*
X2179631Y1778624*
X2179363Y1777886*
X2179094Y1776779*
Y1774933*
X2179363Y1773826*
X2179631Y1773088*
X2180168Y1772349*
X2180705Y1771980*
X2181779*
X2182316Y1772349*
X2182853Y1773088*
X2183121Y1773826*
X2183389Y1774933*
Y1776779*
X2183121Y1777886*
X2182853Y1778624*
X2182316Y1779362*
X2181779Y1779731*
X2180705*
X2188758Y1776040D02*
X2188490Y1776779D01*
X2187684Y1777148*
X2186879*
X2186074Y1776779*
X2185805Y1776040*
X2186074Y1775302*
X2186611Y1774933*
X2187953Y1774564*
X2188490Y1774195*
X2188758Y1773457*
Y1773088*
X2188490Y1772349*
X2187684Y1771980*
X2186879*
X2186074Y1772349*
X2185805Y1773088*
X2194127Y1776040D02*
X2193858Y1776779D01*
X2193053Y1777148*
X2192248*
X2191442Y1776779*
X2191174Y1776040*
X2191442Y1775302*
X2191979Y1774933*
X2193321Y1774564*
X2193858Y1774195*
X2194127Y1773457*
Y1773088*
X2193858Y1772349*
X2193053Y1771980*
X2192248*
X2191442Y1772349*
X2191174Y1773088*
X2196811Y1772719D02*
X2196543Y1772349D01*
X2196811Y1771980*
X2197079Y1772349*
X2196811Y1772719*
X1684331Y1794618D02*
Y1833988D01*
Y1834382D02*
X1723701D01*
X2261496Y1832413D02*
X2299685D01*
Y1793043*
G54D46*
X2031635Y1730843D02*
Y1726443D01*
G54D52*
X2207008Y1698671D02*
X2203465D01*
Y1717963*
X2207008*
X2216850Y1698671D02*
X2220394D01*
Y1717963*
X2217047*
X2216850Y1673715D02*
X2220394D01*
Y1654423*
X2216850*
X2207008Y1673715D02*
X2203465D01*
Y1654423*
X2206811*
X1990945Y1477689D02*
Y1527689D01*
X2000945*
Y1477689*
X1990945*
X1908807Y1730917D02*
X1990803D01*
Y1634106*
X1908807*
Y1730917*
X1921110Y1727020D02*
X1944732D01*
Y1703398*
X1921110*
Y1727020*
X1921413Y1723083D02*
X1944406D01*
X1955110Y1727020D02*
X1978732D01*
Y1703398*
X1955110*
Y1727020*
X1955394Y1723083D02*
X1978386D01*
X1964842Y1604264D02*
G03X1964842I-23622J0D01*
G01X1909154Y1604637D02*
X1915054D01*
X1912087Y1601494D02*
Y1607394D01*
X2113398Y1593358D02*
X2031402D01*
Y1690169*
X2113398*
Y1593358*
X2101094Y1597256D02*
X2077472D01*
Y1620878*
X2101094*
Y1597256*
X2100791Y1601193D02*
X2077799D01*
X2067094Y1597256D02*
X2043472D01*
Y1620878*
X2067094*
Y1597256*
X2066811Y1601193D02*
X2043819D01*
X1896614Y1757650D02*
Y1501744D01*
X1778504*
Y1757650*
X1896614*
X1725512Y1426642D02*
X1725557Y1426807D01*
X1725557D02*
X1725603Y1426971D01*
X1725648Y1427136*
X1725694Y1427301*
X1725739Y1427465*
X1725785Y1427630*
X1725831Y1427795*
X1725877Y1427959*
X1725923Y1428124*
X1725969Y1428289*
X1726015Y1428453*
X1726061Y1428618*
X1726107Y1428782*
X1726153Y1428947*
X1726199Y1429112*
X1726199D02*
X1726245Y1429276D01*
X1726291Y1429441*
X1726337Y1429605*
X1726383Y1429770*
X1726429Y1429934*
X1726475Y1430099*
X1726521Y1430264*
X1726566Y1430428*
X1726612Y1430593*
X1726658Y1430758*
X1726704Y1430922*
X1726704D02*
X1726749Y1431087D01*
X1726794Y1431252*
X1726840Y1431417*
X1726885Y1431582*
X1726930Y1431746*
X1726975Y1431911*
X1727020Y1432076*
X1727065Y1432241*
X1727109Y1432406*
X1727154Y1432571*
X1727198Y1432736*
X1727242Y1432901*
X1727286Y1433067*
X1722958Y1426509D02*
X1723022Y1426511D01*
X1723086Y1426514*
X1723150Y1426517*
X1723214Y1426519*
X1723278Y1426522*
X1723341Y1426525*
X1723405Y1426528*
X1723469Y1426531*
X1723533Y1426534*
X1723597Y1426537*
X1723661Y1426540*
X1723724Y1426543*
X1723788Y1426546*
X1723852Y1426549*
X1723916Y1426553*
X1723980Y1426556*
X1724044Y1426559*
X1724107Y1426563*
X1724171Y1426566*
X1724235Y1426569*
X1724299Y1426573*
X1724363Y1426576*
X1724427Y1426580*
X1724490Y1426583*
X1724554Y1426587*
X1724618Y1426591*
X1724682Y1426594*
X1724746Y1426598*
X1724810Y1426601*
X1724873Y1426605*
X1724937Y1426609*
X1725001Y1426612*
X1725065Y1426616*
X1725129Y1426620*
X1725193Y1426623*
X1725256Y1426627*
X1725320Y1426631*
X1725384Y1426634*
X1725448Y1426638*
X1725317Y1423635D02*
X1725258D01*
X1725199*
X1725140*
X1725081*
X1725022*
X1724963Y1423636*
X1724904*
X1724845*
X1724786*
X1724727*
X1724668*
X1724609*
X1724550*
X1724491*
X1724432*
X1724373*
X1724314Y1423635*
X1724255*
X1724196*
X1724137*
X1724078*
X1724019*
X1723960*
X1723901*
X1723842*
X1723783*
X1723724*
X1723665*
X1723606*
X1723548*
X1723489*
X1723430*
X1723371*
X1723312*
X1723253*
X1723194*
X1723135*
X1723076*
X1723017Y1423636*
X1726038Y1410075D02*
X1725998Y1410161D01*
X1725959Y1410248*
X1725922Y1410335*
X1725885Y1410422*
X1725851Y1410510*
X1725817Y1410598*
X1725785Y1410687*
X1725754Y1410776*
X1725724Y1410866*
X1725696Y1410956*
X1725668Y1411046*
X1725642Y1411137*
X1725617Y1411228*
X1725594Y1411319*
X1725571Y1411411*
X1725549Y1411503*
X1725529Y1411595*
X1725509Y1411688*
X1725491Y1411780*
X1725474Y1411873*
X1725457Y1411967*
X1725457D02*
X1725442Y1412060D01*
X1725428Y1412153*
X1725414Y1412247*
X1725402Y1412341*
X1725390Y1412435*
X1725380Y1412529*
X1725370Y1412623*
X1725361Y1412717*
X1725353Y1412812*
X1725346Y1412906*
X1725339Y1413001*
X1725334Y1413095*
X1725329Y1413189*
X1725325Y1413284*
X1725322Y1413378*
X1725319Y1413473*
X1725317Y1413567*
X1725316Y1413661*
X1729065Y1407379D02*
X1728966Y1407412D01*
X1728867Y1407447*
X1728770Y1407485*
X1728674Y1407524*
X1728578Y1407566*
X1728484Y1407609*
X1728390Y1407655*
X1728298Y1407703*
X1728206Y1407752*
X1728116Y1407804*
X1728026Y1407857*
X1727938Y1407912*
X1727851Y1407969*
X1727765Y1408028*
X1727680Y1408089*
X1727597Y1408151*
X1727515Y1408215*
X1727434Y1408280*
X1727354Y1408348*
X1727276Y1408416*
X1727199Y1408487*
X1727124Y1408559*
X1727050Y1408632*
X1726977Y1408707*
X1726906Y1408783*
X1726836Y1408861*
X1726768Y1408940*
X1726702Y1409020*
X1726637Y1409101*
X1726574Y1409184*
X1726512Y1409268*
X1726453Y1409354*
X1726394Y1409440*
X1726338Y1409528*
X1726283Y1409616*
X1726231Y1409706*
X1726180Y1409797*
X1726130Y1409889*
X1726083Y1409982*
X1732359Y1407105D02*
X1732277Y1407101D01*
X1732194Y1407097*
X1732111Y1407093*
X1732028Y1407089*
X1731945Y1407086*
X1731862Y1407082*
X1731779Y1407079*
X1731695Y1407076*
X1731612Y1407073*
X1731528Y1407071*
X1731445Y1407069*
X1731361Y1407068*
X1731278Y1407067*
X1731194Y1407066*
X1731111Y1407067*
X1731028*
X1730944Y1407069*
X1730861Y1407071*
X1730778Y1407074*
X1730694Y1407077*
X1730611Y1407082*
X1730528Y1407087*
X1730445Y1407093*
X1730363Y1407100*
X1730280Y1407109*
X1730197Y1407118*
X1730115Y1407128*
X1730033Y1407139*
X1729951Y1407152*
X1729869Y1407166*
X1729788Y1407181*
X1729706Y1407197*
X1729625Y1407214*
X1729544Y1407233*
X1729464Y1407254*
X1729383Y1407276*
X1729303Y1407299*
X1729223Y1407324*
X1729144Y1407350*
X1735835Y1407761D02*
X1735752Y1407728D01*
X1735669Y1407697*
X1735585Y1407667*
X1735501Y1407638*
X1735417Y1407610*
X1735333Y1407583*
X1735248Y1407557*
X1735163Y1407532*
X1735077Y1407508*
X1734992Y1407485*
X1734906Y1407463*
X1734820Y1407442*
X1734734Y1407421*
X1734647Y1407402*
X1734560Y1407383*
X1734473Y1407365*
X1734386Y1407348*
X1734299Y1407331*
X1734212Y1407315*
X1734124Y1407300*
X1734037Y1407286*
X1733949Y1407272*
X1733861Y1407259*
X1733773Y1407246*
X1733685Y1407234*
X1733597Y1407223*
X1733508Y1407212*
X1733420Y1407201*
X1733332Y1407191*
X1733243Y1407182*
X1733155Y1407173*
X1733066Y1407164*
X1732978Y1407155*
X1732890Y1407147*
X1732801Y1407140*
X1732713Y1407132*
X1732624Y1407125*
X1732536Y1407118*
X1732448Y1407111*
X1735839Y1410909D02*
X1735838Y1410830D01*
Y1410752*
X1735838D02*
Y1410673D01*
Y1410594*
Y1410515*
Y1410437*
Y1410358*
Y1410279*
Y1410201*
Y1410122*
Y1410043*
Y1409964*
Y1409886*
Y1409807*
Y1409728*
Y1409650*
Y1409571*
Y1409492*
Y1409413*
Y1409335*
Y1409256*
Y1409177*
Y1409099*
Y1409020*
Y1408941*
Y1408862*
Y1408784*
Y1408705*
Y1408626*
Y1408548*
Y1408469*
X1735837Y1408390*
Y1408312*
Y1408233*
Y1408154*
Y1408075*
X1735836Y1407997*
Y1407918*
Y1407839*
X1733558Y1410515D02*
X1733616Y1410516D01*
X1733674Y1410517*
X1733732Y1410519*
X1733790Y1410521*
X1733848Y1410524*
X1733906Y1410528*
X1733964Y1410532*
X1734022Y1410537*
X1734080Y1410542*
X1734137Y1410548*
X1734195Y1410554*
X1734253Y1410561*
X1734310Y1410569*
X1734368Y1410577*
X1734425Y1410585*
X1734482Y1410594*
X1734539Y1410604*
X1734597Y1410613*
X1734654Y1410624*
X1734711Y1410634*
X1734768Y1410645*
X1734825Y1410657*
X1734882Y1410668*
X1734938Y1410681*
X1734995Y1410693*
X1735052Y1410706*
X1735108Y1410719*
X1735165Y1410732*
X1735221Y1410746*
X1735278Y1410760*
X1735334Y1410774*
X1735390Y1410788*
X1735447Y1410803*
X1735503Y1410817*
X1735559Y1410832*
X1735615Y1410847*
X1735671Y1410863*
X1735727Y1410878*
X1735783Y1410893*
X1731640Y1410919D02*
X1731681Y1410889D01*
X1731723Y1410861*
X1731766Y1410834*
X1731809Y1410809*
X1731852Y1410785*
X1731897Y1410762*
X1731941Y1410741*
X1731987Y1410721*
X1732032Y1410702*
X1732079Y1410684*
X1732125Y1410668*
X1732172Y1410652*
X1732220Y1410638*
X1732268Y1410624*
X1732316Y1410612*
X1732364Y1410601*
X1732413Y1410590*
X1732462Y1410580*
X1732511Y1410572*
X1732560Y1410564*
X1732610Y1410556*
X1732660Y1410550*
X1732710Y1410544*
X1732760Y1410539*
X1732810Y1410534*
X1732860Y1410531*
X1732910Y1410527*
X1732961Y1410524*
X1733011Y1410522*
X1733061Y1410520*
X1733112Y1410518*
X1733162Y1410517*
X1733212Y1410516*
X1733262Y1410515*
X1733312*
X1733361*
X1733411*
X1733460*
X1733509*
X1731047Y1411761D02*
X1731056Y1411737D01*
X1731066Y1411713*
X1731075Y1411688*
X1731085Y1411664*
X1731095Y1411640*
X1731106Y1411616*
X1731116Y1411592*
X1731127Y1411568*
X1731138Y1411545*
X1731149Y1411521*
X1731161Y1411497*
X1731173Y1411474*
X1731185Y1411451*
X1731198Y1411427*
X1731210Y1411405*
X1731224Y1411382*
X1731237Y1411359*
X1731251Y1411337*
X1731265Y1411315*
X1731279Y1411293*
X1731294Y1411271*
X1731309Y1411249*
X1731309D02*
X1731324Y1411228D01*
X1731339Y1411207*
X1731355Y1411187*
X1731372Y1411166*
X1731388Y1411146*
X1731405Y1411126*
X1731423Y1411107*
X1731441Y1411088*
X1731459Y1411069*
X1731477Y1411051*
X1731496Y1411033*
X1731516Y1411015*
X1731535Y1410998*
X1731555Y1410981*
X1731576Y1410965*
X1731597Y1410949*
X1731618Y1410934*
X1730796Y1413595D02*
X1730795Y1413549D01*
Y1413502*
Y1413456*
Y1413409*
X1730796Y1413363*
X1730797Y1413316*
X1730798Y1413270*
X1730799Y1413223*
X1730801Y1413177*
X1730803Y1413130*
X1730806Y1413084*
X1730809Y1413037*
X1730812Y1412991*
X1730815Y1412945*
X1730819Y1412898*
X1730823Y1412852*
X1730828Y1412806*
X1730833Y1412759*
X1730838Y1412713*
X1730844Y1412667*
X1730850Y1412621*
X1730856Y1412575*
X1730863Y1412529*
X1730871Y1412483*
X1730878Y1412437*
X1730886Y1412391*
X1730895Y1412346*
X1730904Y1412300*
X1730913Y1412254*
X1730923Y1412209*
X1730933Y1412164*
X1730944Y1412119*
X1730955Y1412073*
X1730967Y1412028*
X1730979Y1411984*
X1730992Y1411939*
X1731005Y1411894*
X1731018Y1411850*
X1731032Y1411805*
X1735997Y1423596D02*
X1735867D01*
X1735737Y1423595*
X1735607*
X1735477*
X1735347*
X1735217*
X1735087*
X1734957*
X1734827*
X1734697*
X1734567*
X1734437*
X1734307*
X1734177*
X1734047*
X1733917*
X1733787*
X1733657*
X1733527*
X1733397*
X1733267Y1423596*
X1733137*
X1733008*
X1732878*
X1732748*
X1732618*
X1732488*
X1732358*
X1732228*
X1732098*
X1731968*
X1731838*
X1731708*
X1731578*
X1731448*
X1731318Y1423595*
X1731188*
X1731058*
X1730928*
X1730798Y1426676D02*
X1730928D01*
X1731058*
X1731188Y1426675*
X1731318*
X1731448*
X1731578*
X1731708*
X1731837*
X1731967*
X1732097*
X1732227*
X1732357*
X1732487*
X1732617*
X1732747*
X1732877*
X1733007*
X1733137*
X1733267*
X1733397*
X1733527*
X1733657*
X1733787Y1426676*
X1733917*
X1734047*
X1734177*
X1734307*
X1734437*
X1734567*
X1734697*
X1734827*
X1734957*
X1735087*
X1735217*
X1735347Y1426675*
X1735477*
X1735607*
X1735737*
X1735867*
X1727330Y1433232D02*
X1727416D01*
X1727503Y1433233*
X1727590*
X1727676Y1433234*
X1727763*
X1727850Y1433235*
X1727936*
X1728023*
X1728110*
X1728197Y1433236*
X1728283*
X1728370*
X1728457*
X1728543*
X1728630*
X1728717*
X1728803*
X1728890*
X1728977*
X1729063*
X1729150*
X1729237*
X1729323*
X1729410*
X1729497*
X1729583*
X1729670*
X1729757*
X1729843*
X1729930*
X1730017Y1433235*
X1730103*
X1730190*
X1730277*
X1730364*
X1730450*
X1730537*
X1730624*
X1730710*
X1714316Y1431395D02*
X1714310Y1431500D01*
X1714309Y1431605*
X1714312Y1431709*
X1714320Y1431814*
X1714332Y1431917*
X1714348Y1432020*
X1714368Y1432122*
X1714393Y1432222*
X1714421Y1432322*
X1714453Y1432421*
X1714489Y1432518*
X1714529Y1432614*
X1714572Y1432709*
X1714618Y1432802*
X1714668Y1432894*
X1714721Y1432983*
X1714778Y1433071*
X1714837Y1433157*
X1714900Y1433240*
X1714965Y1433322*
X1715033Y1433401*
X1715104Y1433478*
X1715178Y1433552*
X1715254Y1433624*
X1715332Y1433693*
X1715413Y1433759*
X1715496Y1433822*
X1715581Y1433883*
X1715668Y1433940*
X1715757Y1433994*
X1715848Y1434044*
X1715941Y1434092*
X1716035Y1434135*
X1716131Y1434175*
X1716229Y1434212*
X1716327Y1434244*
X1716428Y1434273*
X1716529Y1434297*
X1716631Y1434318*
X1714882Y1429679D02*
X1714853Y1429716D01*
X1714825Y1429752*
X1714798Y1429789*
X1714771Y1429827*
X1714745Y1429865*
X1714720Y1429904*
X1714696Y1429943*
X1714673Y1429983*
X1714650Y1430023*
X1714628Y1430063*
X1714607Y1430104*
X1714587Y1430145*
X1714567Y1430187*
X1714548Y1430229*
X1714530Y1430271*
X1714513Y1430314*
X1714497Y1430357*
X1714481Y1430400*
X1714466Y1430443*
X1714452Y1430487*
X1714438Y1430531*
X1714425Y1430575*
X1714413Y1430620*
X1714402Y1430664*
X1714391Y1430709*
X1714381Y1430754*
X1714372Y1430799*
X1714364Y1430845*
X1714356Y1430890*
X1714349Y1430936*
X1714342Y1430982*
X1714342D02*
X1714337Y1431027D01*
X1714332Y1431073*
X1714328Y1431119*
X1714324Y1431165*
X1714321Y1431211*
X1714319Y1431257*
X1714317Y1431303*
X1714316Y1431349*
X1716479Y1428601D02*
X1716430Y1428612D01*
X1716383Y1428624*
X1716335Y1428637*
X1716288Y1428651*
X1716241Y1428666*
X1716195Y1428682*
X1716149Y1428699*
X1716103Y1428717*
X1716058Y1428735*
X1716013Y1428755*
X1715969Y1428776*
X1715925Y1428798*
X1715881Y1428820*
X1715838Y1428844*
X1715795Y1428868*
X1715753Y1428893*
X1715711Y1428918*
X1715670Y1428945*
X1715629Y1428972*
X1715588Y1429000*
X1715548Y1429029*
X1715509Y1429058*
X1715470Y1429088*
X1715431Y1429119*
X1715393Y1429150*
X1715355Y1429182*
X1715318Y1429214*
X1715281Y1429247*
X1715245Y1429281*
X1715210Y1429315*
X1715175Y1429350*
X1715140Y1429385*
X1715106Y1429420*
X1715072Y1429456*
X1715039Y1429492*
X1715007Y1429529*
X1714975Y1429566*
X1714943Y1429604*
X1714912Y1429641*
X1718225Y1428688D02*
X1718183Y1428674D01*
X1718141Y1428661*
X1718099Y1428648*
X1718056Y1428635*
X1718014Y1428624*
X1717971Y1428612*
X1717928Y1428601*
X1717884Y1428591*
X1717841Y1428581*
X1717798Y1428572*
X1717754Y1428564*
X1717710Y1428556*
X1717666Y1428548*
X1717622Y1428541*
X1717578Y1428535*
X1717534Y1428530*
X1717490Y1428525*
X1717446Y1428520*
X1717402Y1428517*
X1717357Y1428514*
X1717313Y1428511*
X1717269Y1428509*
X1717269D02*
X1717224Y1428508D01*
X1717180*
X1717135*
X1717091Y1428509*
X1717047Y1428511*
X1717002Y1428513*
X1716958Y1428517*
X1716914Y1428520*
X1716870Y1428525*
X1716826Y1428530*
X1716782Y1428537*
X1716782D02*
X1716738Y1428543D01*
X1716695Y1428551*
X1716651Y1428559*
X1716608Y1428569*
X1716565Y1428579*
X1716522Y1428589*
X1720081Y1431596D02*
X1720089Y1431503D01*
X1720093Y1431409*
X1720095Y1431316*
X1720092Y1431223*
X1720087Y1431131*
X1720078Y1431039*
X1720066Y1430947*
X1720051Y1430856*
X1720032Y1430765*
X1720011Y1430675*
X1719986Y1430586*
X1719959Y1430498*
X1719929Y1430411*
X1719896Y1430325*
X1719860Y1430239*
X1719821Y1430156*
X1719780Y1430073*
X1719736Y1429991*
X1719689Y1429911*
X1719640Y1429833*
X1719589Y1429756*
X1719535Y1429680*
X1719479Y1429607*
X1719421Y1429535*
X1719360Y1429465*
X1719298Y1429396*
X1719233Y1429330*
X1719166Y1429266*
X1719097Y1429204*
X1719026Y1429145*
X1718954Y1429087*
X1718879Y1429032*
X1718803Y1428980*
X1718725Y1428930*
X1718646Y1428883*
X1718564Y1428838*
X1718482Y1428796*
X1718398Y1428757*
X1718312Y1428721*
X1718122Y1434241D02*
X1718204Y1434211D01*
X1718286Y1434180*
X1718366Y1434145*
X1718445Y1434109*
X1718524Y1434069*
X1718601Y1434028*
X1718677Y1433984*
X1718751Y1433937*
X1718825Y1433889*
X1718897Y1433838*
X1718967Y1433785*
X1719036Y1433730*
X1719103Y1433674*
X1719169Y1433615*
X1719233Y1433554*
X1719295Y1433492*
X1719355Y1433427*
X1719413Y1433362*
X1719469Y1433294*
X1719524Y1433225*
X1719576Y1433154*
X1719626Y1433082*
X1719673Y1433008*
X1719719Y1432933*
X1719762Y1432857*
X1719802Y1432780*
X1719841Y1432701*
X1719876Y1432621*
X1719909Y1432540*
X1719939Y1432458*
X1719967Y1432375*
X1719992Y1432292*
X1720013Y1432207*
X1720032Y1432122*
X1720048Y1432036*
X1720061Y1431949*
X1720071Y1431861*
X1720077Y1431773*
X1720081Y1431685*
X1716735Y1434334D02*
X1716769Y1434337D01*
X1716804Y1434340*
X1716839Y1434342*
X1716874Y1434345*
X1716909Y1434348*
X1716944Y1434350*
X1716979Y1434352*
X1717014Y1434354*
X1717049Y1434356*
X1717084Y1434358*
X1717119Y1434359*
X1717154Y1434360*
X1717189Y1434361*
X1717224Y1434362*
X1717259*
X1717294*
X1717329*
X1717364*
X1717399Y1434361*
X1717435Y1434360*
X1717469Y1434358*
X1717504Y1434356*
X1717539Y1434354*
X1717574Y1434351*
X1717609Y1434348*
X1717644Y1434344*
X1717679Y1434340*
X1717713Y1434336*
X1717748Y1434331*
X1717782Y1434325*
X1717817Y1434319*
X1717851Y1434313*
X1717885Y1434306*
X1717919Y1434298*
X1717953Y1434290*
X1717987Y1434281*
X1718021Y1434272*
X1718055Y1434262*
X1718088Y1434252*
X1704158Y1432755D02*
X1704190Y1432816D01*
X1704223Y1432876*
X1704257Y1432936*
X1704293Y1432995*
X1704331Y1433053*
X1704369Y1433110*
X1704409Y1433166*
X1704450Y1433222*
X1704493Y1433277*
X1704536Y1433330*
X1704581Y1433383*
X1704627Y1433434*
X1704675Y1433485*
X1704723Y1433534*
X1704773Y1433583*
X1704823Y1433630*
X1704875Y1433676*
X1704928Y1433721*
X1704981Y1433764*
X1705036Y1433807*
X1705092Y1433848*
X1705148Y1433887*
X1705206Y1433925*
X1705264Y1433962*
X1705323Y1433998*
X1705383Y1434032*
X1705444Y1434064*
X1705505Y1434095*
X1705568Y1434124*
X1705631Y1434152*
X1705694Y1434178*
X1705759Y1434203*
X1705824Y1434225*
X1705889Y1434246*
X1705956Y1434266*
X1706022Y1434283*
X1706090Y1434299*
X1706158Y1434312*
X1706226Y1434324*
X1704805Y1429283D02*
X1704735Y1429347D01*
X1704667Y1429414*
X1704602Y1429483*
X1704539Y1429554*
X1704479Y1429627*
X1704422Y1429702*
X1704368Y1429779*
X1704317Y1429858*
X1704268Y1429939*
X1704222Y1430021*
X1704179Y1430104*
X1704138Y1430189*
X1704101Y1430276*
X1704066Y1430364*
X1704034Y1430452*
X1704004Y1430542*
X1703978Y1430633*
X1703954Y1430724*
X1703933Y1430817*
X1703915Y1430910*
X1703900Y1431003*
X1703888Y1431097*
X1703878Y1431191*
X1703872Y1431286*
X1703868Y1431381*
X1703867Y1431475*
X1703869Y1431570*
X1703874Y1431665*
X1703881Y1431759*
X1703892Y1431853*
X1703905Y1431947*
X1703922Y1432040*
X1703941Y1432133*
X1703963Y1432224*
X1703988Y1432315*
X1704016Y1432406*
X1704047Y1432495*
X1704081Y1432583*
X1704118Y1432669*
X1708039Y1428791D02*
X1707960Y1428755D01*
X1707880Y1428721*
X1707799Y1428690*
X1707717Y1428661*
X1707634Y1428635*
X1707551Y1428611*
X1707467Y1428590*
X1707382Y1428571*
X1707296Y1428554*
X1707211Y1428541*
X1707124Y1428529*
X1707038Y1428520*
X1706951Y1428514*
X1706864Y1428510*
X1706777Y1428509*
X1706690Y1428510*
X1706603Y1428514*
X1706517Y1428520*
X1706430Y1428528*
X1706344Y1428539*
X1706258Y1428553*
X1706173Y1428569*
X1706088Y1428588*
X1706004Y1428609*
X1705921Y1428632*
X1705838Y1428658*
X1705756Y1428687*
X1705675Y1428718*
X1705596Y1428751*
X1705517Y1428787*
X1705439Y1428826*
X1705363Y1428866*
X1705288Y1428910*
X1705214Y1428956*
X1705142Y1429004*
X1705071Y1429055*
X1705002Y1429108*
X1704935Y1429164*
X1704869Y1429223*
X1709159Y1429755D02*
X1709136Y1429725D01*
X1709114Y1429695*
X1709091Y1429665*
X1709068Y1429636*
X1709045Y1429607*
X1709021Y1429578*
X1708998Y1429549*
X1708973Y1429521*
X1708949Y1429493*
X1708924Y1429465*
X1708899Y1429437*
X1708873Y1429410*
X1708848Y1429383*
X1708822Y1429356*
X1708795Y1429329*
X1708769Y1429303*
X1708742Y1429277*
X1708715Y1429252*
X1708687Y1429226*
X1708659Y1429202*
X1708631Y1429177*
X1708603Y1429153*
X1708574Y1429129*
X1708545Y1429106*
X1708516Y1429083*
X1708486Y1429060*
X1708456Y1429038*
X1708426Y1429016*
X1708395Y1428995*
X1708364Y1428974*
X1708333Y1428954*
X1708302Y1428934*
X1708270Y1428914*
X1708238Y1428895*
X1708206Y1428877*
X1708206D02*
X1708173Y1428858D01*
X1708140Y1428841*
X1708107Y1428824*
X1708073Y1428807*
X1709604Y1432041D02*
X1709615Y1431983D01*
X1709625Y1431924*
X1709634Y1431865*
X1709642Y1431806*
X1709649Y1431746*
X1709654Y1431687*
X1709658Y1431627*
X1709662Y1431567*
X1709664Y1431507*
X1709665Y1431447*
X1709664Y1431388*
X1709663Y1431328*
X1709661Y1431268*
X1709657Y1431208*
X1709652Y1431148*
X1709646Y1431089*
X1709639Y1431029*
X1709631Y1430970*
X1709621Y1430911*
X1709611Y1430852*
X1709599Y1430793*
X1709586Y1430735*
X1709572Y1430676*
X1709557Y1430619*
X1709541Y1430561*
X1709524Y1430504*
X1709505Y1430447*
X1709485Y1430391*
X1709464Y1430335*
X1709442Y1430279*
X1709419Y1430224*
X1709395Y1430170*
X1709369Y1430116*
X1709343Y1430062*
X1709315Y1430009*
X1709286Y1429957*
X1709256Y1429905*
X1709225Y1429854*
X1709192Y1429804*
X1708158Y1434034D02*
X1708212Y1434002D01*
X1708266Y1433968*
X1708318Y1433933*
X1708371Y1433898*
X1708423Y1433861*
X1708474Y1433823*
X1708524Y1433784*
X1708574Y1433745*
X1708623Y1433704*
X1708672Y1433662*
X1708719Y1433620*
X1708766Y1433576*
X1708812Y1433532*
X1708857Y1433487*
X1708901Y1433440*
X1708944Y1433393*
X1708987Y1433345*
X1709028Y1433297*
X1709068Y1433247*
X1709107Y1433197*
X1709145Y1433145*
X1709182Y1433093*
X1709217Y1433041*
X1709251Y1432987*
X1709284Y1432933*
X1709316Y1432878*
X1709346Y1432822*
X1709376Y1432766*
X1709403Y1432709*
X1709429Y1432651*
X1709454Y1432593*
X1709477Y1432534*
X1709499Y1432474*
X1709519Y1432414*
X1709537Y1432354*
X1709554Y1432292*
X1709569Y1432230*
X1709583Y1432168*
X1709594Y1432105*
X1706295Y1434334D02*
X1706342Y1434339D01*
X1706390Y1434344*
X1706437Y1434348*
X1706485Y1434352*
X1706533Y1434355*
X1706581Y1434358*
X1706629Y1434360*
X1706677Y1434362*
X1706725Y1434363*
X1706774*
X1706822*
X1706870Y1434362*
X1706918Y1434361*
X1706966Y1434359*
X1707014Y1434356*
X1707062Y1434353*
X1707110Y1434349*
X1707158Y1434344*
X1707206Y1434339*
X1707253Y1434333*
X1707301Y1434326*
X1707348Y1434318*
X1707395Y1434310*
X1707442Y1434301*
X1707489Y1434291*
X1707535Y1434280*
X1707582Y1434268*
X1707628Y1434256*
X1707674Y1434242*
X1707719Y1434228*
X1707765Y1434213*
X1707810Y1434197*
X1707854Y1434180*
X1707899Y1434162*
X1707943Y1434143*
X1707987Y1434123*
X1708030Y1434102*
X1708073Y1434081*
X1708116Y1434058*
X1698715Y1435675D02*
X1698716Y1435712D01*
X1698716D02*
Y1435748D01*
X1698717Y1435784*
Y1435820*
Y1435857*
X1698716Y1435893*
Y1435930*
X1698715Y1435966*
Y1436003*
X1698714Y1436039*
X1698713Y1436076*
Y1436113*
X1698712Y1436149*
X1698711Y1436186*
Y1436223*
Y1436259*
Y1436296*
Y1436332*
Y1436369*
X1698712Y1436405*
X1698713Y1436442*
X1698714Y1436478*
X1698715Y1436515*
X1698717Y1436551*
X1698720Y1436587*
X1698723Y1436624*
X1698726Y1436660*
X1698730Y1436696*
X1698734Y1436732*
X1698739Y1436768*
X1698745Y1436804*
X1698751Y1436839*
X1698758Y1436875*
X1698766Y1436910*
X1698775Y1436946*
X1698784Y1436981*
X1698794Y1437016*
X1698805Y1437051*
X1698817Y1437086*
X1741155Y1404754D02*
X1741147Y1404678D01*
X1741135Y1404603*
X1741119Y1404530*
X1741100Y1404458*
X1741078Y1404387*
X1741053Y1404317*
X1741025Y1404249*
X1740994Y1404183*
X1740960Y1404118*
X1740923Y1404054*
X1740884Y1403992*
X1740842Y1403932*
X1740798Y1403873*
X1740752Y1403816*
X1740703Y1403761*
X1740652Y1403708*
X1740599Y1403656*
X1740544Y1403607*
X1740487Y1403559*
X1740429Y1403513*
X1740369Y1403469*
X1740307Y1403428*
X1740244Y1403388*
X1740179Y1403351*
X1740113Y1403315*
X1740046Y1403282*
X1739978Y1403251*
X1739909Y1403223*
X1739839Y1403196*
X1739769Y1403173*
X1739769D02*
X1739697Y1403151D01*
X1739625Y1403132*
X1739552Y1403116*
X1739480Y1403102*
X1739406Y1403091*
X1739333Y1403082*
X1739259Y1403076*
X1739186Y1403073*
X1739112Y1403072*
X1739039Y1438356D02*
X1739115Y1438359D01*
X1739191Y1438358*
X1739267Y1438354*
X1739344Y1438348*
X1739420Y1438339*
X1739496Y1438326*
X1739572Y1438311*
X1739647Y1438293*
X1739722Y1438273*
X1739796Y1438249*
X1739870Y1438223*
X1739942Y1438195*
X1740014Y1438164*
X1740084Y1438130*
X1740154Y1438095*
X1740221Y1438056*
X1740288Y1438016*
X1740353Y1437973*
X1740416Y1437928*
X1740477Y1437881*
X1740537Y1437831*
X1740594Y1437780*
X1740650Y1437727*
X1740703Y1437671*
X1740754Y1437614*
X1740802Y1437555*
X1740848Y1437494*
X1740891Y1437431*
X1740931Y1437366*
X1740968Y1437300*
X1741002Y1437232*
X1741034Y1437163*
X1741061Y1437092*
X1741086Y1437020*
X1741107Y1436946*
X1741124Y1436871*
X1741138Y1436794*
X1741148Y1436716*
X1741154Y1436637*
X1698829Y1437121D02*
X1698854Y1437179D01*
X1698881Y1437236*
X1698910Y1437292*
X1698940Y1437346*
X1698973Y1437400*
X1699007Y1437452*
X1699043Y1437503*
X1699080Y1437553*
X1699119Y1437602*
X1699160Y1437649*
X1699202Y1437695*
X1699246Y1437740*
X1699291Y1437783*
X1699337Y1437825*
X1699385Y1437866*
X1699434Y1437905*
X1699484Y1437942*
X1699535Y1437978*
X1699587Y1438013*
X1699640Y1438046*
X1699694Y1438078*
X1699749Y1438108*
X1699805Y1438136*
X1699862Y1438163*
X1699919Y1438188*
X1699978Y1438212*
X1700036Y1438234*
X1700096Y1438254*
X1700156Y1438272*
X1700216Y1438289*
X1700277Y1438304*
X1700339Y1438317*
X1700400Y1438329*
X1700462Y1438338*
X1700524Y1438346*
X1700586Y1438352*
X1700649Y1438356*
X1700711Y1438358*
X1700774*
X1740903Y1438221D02*
X1740874Y1438246D01*
X1740874D02*
X1740843Y1438272D01*
X1740843D02*
X1740813Y1438296D01*
X1740782Y1438320*
X1740750Y1438344*
X1740718Y1438367*
X1740686Y1438390*
X1740654Y1438412*
X1740621Y1438433*
X1740588Y1438454*
X1740555Y1438475*
X1740522Y1438495*
X1740488Y1438515*
X1740454Y1438534*
X1740419Y1438552*
X1740384Y1438571*
X1740350Y1438588*
X1740314Y1438605*
X1740279Y1438622*
X1740243Y1438639*
X1740208Y1438654*
X1740172Y1438670*
X1740135Y1438685*
X1740099Y1438699*
X1740062Y1438713*
X1740026Y1438727*
X1739989Y1438740*
X1739952Y1438753*
X1739914Y1438765*
X1739877Y1438777*
X1739840Y1438789*
X1739802Y1438800*
X1739764Y1438811*
X1739726Y1438821*
X1739688Y1438831*
X1739650Y1438841*
X1739612Y1438850*
X1739574Y1438859*
X1739536Y1438867*
X1741676Y1436517D02*
X1741677Y1436565D01*
Y1436614*
X1741676Y1436662*
X1741673Y1436711*
X1741670Y1436759*
X1741665Y1436807*
X1741659Y1436855*
X1741652Y1436903*
X1741644Y1436951*
X1741634Y1436998*
X1741624Y1437045*
X1741612Y1437092*
X1741600Y1437139*
X1741586Y1437185*
X1741571Y1437231*
X1741556Y1437277*
X1741539Y1437322*
X1741521Y1437367*
X1741502Y1437411*
X1741483Y1437455*
X1741462Y1437499*
X1741440Y1437542*
X1741418Y1437585*
X1741394Y1437627*
X1741370Y1437669*
X1741344Y1437710*
X1741318Y1437751*
X1741291Y1437791*
X1741263Y1437830*
X1741234Y1437869*
X1741205Y1437908*
X1741174Y1437945*
X1741143Y1437982*
X1741111Y1438018*
X1741078Y1438054*
X1741045Y1438089*
X1741011Y1438123*
X1740976Y1438156*
X1740940Y1438189*
X1741390Y1403800D02*
X1741408Y1403829D01*
X1741426Y1403859*
X1741442Y1403889*
X1741458Y1403919*
X1741474Y1403950*
X1741488Y1403981*
X1741502Y1404012*
X1741516Y1404043*
X1741529Y1404075*
X1741541Y1404106*
X1741553Y1404138*
X1741564Y1404170*
X1741574Y1404203*
X1741584Y1404235*
X1741593Y1404268*
X1741602Y1404301*
X1741610Y1404334*
X1741618Y1404367*
X1741625Y1404401*
X1741632Y1404434*
X1741638Y1404468*
X1741644Y1404501*
X1741650Y1404535*
X1741654Y1404569*
X1741659Y1404603*
X1741663Y1404637*
X1741667Y1404671*
X1741670Y1404705*
X1741673Y1404739*
X1741675Y1404773*
X1741677Y1404807*
X1741679Y1404842*
X1741680Y1404876*
X1741681Y1404910*
X1741682Y1404944*
Y1404978*
Y1405012*
Y1405046*
X1741681Y1405080*
X1739495Y1402555D02*
X1739552Y1402566D01*
X1739609Y1402579*
X1739665Y1402592*
X1739722Y1402606*
X1739779Y1402621*
X1739835Y1402637*
X1739891Y1402655*
X1739947Y1402673*
X1740002Y1402692*
X1740057Y1402713*
X1740112Y1402734*
X1740166Y1402756*
X1740220Y1402780*
X1740273Y1402804*
X1740326Y1402830*
X1740378Y1402856*
X1740430Y1402884*
X1740481Y1402912*
X1740532Y1402942*
X1740582Y1402973*
X1740631Y1403004*
X1740679Y1403037*
X1740727Y1403071*
X1740774Y1403105*
X1740820Y1403141*
X1740865Y1403178*
X1740909Y1403216*
X1740953Y1403255*
X1740995Y1403294*
X1741037Y1403335*
X1741077Y1403377*
X1741116Y1403420*
X1741155Y1403464*
X1741192Y1403509*
X1741228Y1403555*
X1741263Y1403602*
X1741297Y1403650*
X1741329Y1403699*
X1741360Y1403749*
X1699039Y1438273D02*
X1699067Y1438298D01*
X1699096Y1438321*
X1699125Y1438345*
X1699154Y1438367*
X1699184Y1438389*
X1699215Y1438411*
X1699245Y1438432*
X1699245D02*
X1699276Y1438452D01*
X1699307Y1438472*
X1699339Y1438491*
X1699371Y1438510*
X1699403Y1438528*
X1699435Y1438546*
X1699468Y1438563*
X1699501Y1438580*
X1699534Y1438597*
X1699567Y1438613*
X1699601Y1438628*
X1699635Y1438643*
X1699669Y1438658*
X1699703Y1438672*
X1699738Y1438686*
X1699772Y1438699*
X1699807Y1438712*
X1699842Y1438725*
X1699877Y1438737*
X1699912Y1438749*
X1699947Y1438761*
X1699983Y1438772*
X1700018Y1438783*
X1700054Y1438793*
X1700090Y1438804*
X1700126Y1438814*
X1700161Y1438823*
X1700197Y1438833*
X1700233Y1438842*
X1700269Y1438850*
X1700305Y1438859*
X1700341Y1438867*
X1698197Y1436857D02*
X1698207Y1436898D01*
X1698216Y1436939*
X1698227Y1436980*
X1698238Y1437020*
X1698249Y1437061*
X1698262Y1437101*
X1698274Y1437141*
X1698288Y1437181*
X1698301Y1437221*
X1698316Y1437260*
X1698331Y1437300*
X1698347Y1437339*
X1698363Y1437378*
X1698380Y1437416*
X1698397Y1437454*
X1698415Y1437492*
X1698434Y1437530*
X1698453Y1437567*
X1698473Y1437604*
X1698494Y1437641*
X1698515Y1437677*
X1698537Y1437713*
X1698559Y1437748*
X1698582Y1437783*
X1698606Y1437818*
X1698630Y1437852*
X1698655Y1437886*
X1698681Y1437919*
X1698707Y1437952*
X1698734Y1437984*
X1698761Y1438015*
X1698790Y1438046*
X1698818Y1438077*
X1698848Y1438107*
X1698878Y1438136*
X1698909Y1438165*
X1698940Y1438193*
X1698972Y1438220*
X1699005Y1438247*
X1722958Y1426509D02*
Y1423636D01*
X1735997Y1423596D02*
Y1426675D01*
X1741155Y1436557D02*
Y1404754D01*
X1741676Y1436517D02*
X1741681Y1405114D01*
X1700377Y1438875D02*
X1739497D01*
X1700836Y1438356D02*
X1739039D01*
X1730798Y1423595D02*
X1730796Y1413595D01*
X1730797Y1433235D02*
X1730798Y1426676D01*
X1703998Y1427075D02*
X1709517D01*
X1714438D02*
X1719957D01*
X1725316Y1413755D02*
X1725317Y1423635D01*
X1719957Y1427075D02*
Y1407236D01*
X1714438D02*
Y1427075D01*
X1709517D02*
Y1407236D01*
X1703998*
X1719957D02*
X1714438D01*
X1703998D02*
Y1427075D01*
X1739039Y1403075D02*
X1698718Y1403076D01*
X1739495Y1402555D02*
X1698197D01*
X1698718Y1403076D02*
X1698715Y1435675D01*
X1698197Y1402555D02*
Y1436857D01*
G54D67*
X1784567Y1409368D02*
Y1404201D01*
Y1409368D02*
X1785999Y1404201D01*
X1787430Y1409368D02*
X1785999Y1404201D01*
X1787430Y1409368D02*
Y1404201D01*
X1789220Y1404693D02*
X1789041Y1404447D01*
X1789220Y1404201*
X1789399Y1404447*
X1789220Y1404693*
X1793694Y1408138D02*
X1793515Y1408630D01*
X1793157Y1409122*
X1792799Y1409368*
X1792083*
X1791725Y1409122*
X1791367Y1408630*
X1791188Y1408138*
X1791009Y1407400*
Y1406169*
X1791188Y1405431*
X1791367Y1404939*
X1791725Y1404447*
X1792083Y1404201*
X1792799*
X1793157Y1404447*
X1793515Y1404939*
X1793694Y1405431*
X1795304Y1407646D02*
Y1404201D01*
Y1406169D02*
X1795483Y1406907D01*
X1795841Y1407400*
X1796199Y1407646*
X1796736*
X1798346Y1406169D02*
X1800494D01*
Y1406661*
X1800315Y1407154*
X1800136Y1407400*
X1799778Y1407646*
X1799241*
X1798883Y1407400*
X1798525Y1406907*
X1798346Y1406169*
Y1405677*
X1798525Y1404939*
X1798883Y1404447*
X1799241Y1404201*
X1799778*
X1800136Y1404447*
X1800494Y1404939*
X1802104Y1407646D02*
Y1402478D01*
Y1406907D02*
X1802462Y1407400D01*
X1802820Y1407646*
X1803357*
X1803715Y1407400*
X1804073Y1406907*
X1804252Y1406169*
Y1405677*
X1804073Y1404939*
X1803715Y1404447*
X1803357Y1404201*
X1802820*
X1802462Y1404447*
X1802104Y1404939*
X1808010Y1407646D02*
Y1404201D01*
Y1406907D02*
X1807652Y1407400D01*
X1807294Y1407646*
X1806757*
X1806399Y1407400*
X1806041Y1406907*
X1805863Y1406169*
Y1405677*
X1806041Y1404939*
X1806399Y1404447*
X1806757Y1404201*
X1807294*
X1807652Y1404447*
X1808010Y1404939*
X1809621Y1409368D02*
Y1404201D01*
X1813379Y1409368D02*
Y1404201D01*
Y1406907D02*
X1813021Y1407400D01*
X1812663Y1407646*
X1812126*
X1811768Y1407400*
X1811410Y1406907*
X1811231Y1406169*
Y1405677*
X1811410Y1404939*
X1811768Y1404447*
X1812126Y1404201*
X1812663*
X1813021Y1404447*
X1813379Y1404939*
X1814989Y1409368D02*
X1815168Y1409122D01*
X1815347Y1409368*
X1815168Y1409614*
X1814989Y1409368*
X1815168Y1407646D02*
Y1404201D01*
G54D68*
X1882452Y1439549D02*
X1881915Y1439303D01*
X1881557Y1438565*
X1881378Y1437335*
Y1436596*
X1881557Y1435366*
X1881915Y1434628*
X1882452Y1434382*
X1882810*
X1883346Y1434628*
X1883704Y1435366*
X1883883Y1436596*
Y1437335*
X1883704Y1438565*
X1883346Y1439303*
X1882810Y1439549*
X1882452*
X1887999D02*
X1886210Y1434382D01*
X1885494Y1439549D02*
X1887999D01*
X1889789Y1434874D02*
X1889610Y1434628D01*
X1889789Y1434382*
X1889968Y1434628*
X1889789Y1434874*
X1892652Y1439549D02*
X1892115Y1439303D01*
X1891757Y1438565*
X1891578Y1437335*
Y1436596*
X1891757Y1435366*
X1892115Y1434628*
X1892652Y1434382*
X1893010*
X1893547Y1434628*
X1893905Y1435366*
X1894084Y1436596*
Y1437335*
X1893905Y1438565*
X1893547Y1439303*
X1893010Y1439549*
X1892652*
X1898021D02*
X1896231D01*
X1896052Y1437335*
X1896231Y1437581*
X1896768Y1437827*
X1897305*
X1897842Y1437581*
X1898200Y1437089*
X1898379Y1436350*
X1898200Y1435858*
X1898021Y1435120*
X1897663Y1434628*
X1897126Y1434382*
X1896589*
X1896052Y1434628*
X1895873Y1434874*
X1895694Y1435366*
X1900168Y1434874D02*
X1899989Y1434628D01*
X1900168Y1434382*
X1900347Y1434628*
X1900168Y1434874*
X1902137Y1438319D02*
Y1438565D01*
X1902316Y1439057*
X1902495Y1439303*
X1902853Y1439549*
X1903568*
X1903926Y1439303*
X1904105Y1439057*
X1904284Y1438565*
Y1438073*
X1904105Y1437581*
X1903747Y1436843*
X1901958Y1434382*
X1904463*
X1907147Y1439549D02*
X1906611Y1439303D01*
X1906253Y1438565*
X1906074Y1437335*
Y1436596*
X1906253Y1435366*
X1906611Y1434628*
X1907147Y1434382*
X1907505*
X1908042Y1434628*
X1908400Y1435366*
X1908579Y1436596*
Y1437335*
X1908400Y1438565*
X1908042Y1439303*
X1907505Y1439549*
X1907147*
X1910369Y1438319D02*
Y1438565D01*
X1910548Y1439057*
X1910727Y1439303*
X1911084Y1439549*
X1911800*
X1912158Y1439303*
X1912337Y1439057*
X1912516Y1438565*
Y1438073*
X1912337Y1437581*
X1911979Y1436843*
X1910190Y1434382*
X1912695*
X1915379Y1439549D02*
X1914843Y1439303D01*
X1914485Y1438565*
X1914306Y1437335*
Y1436596*
X1914485Y1435366*
X1914843Y1434628*
X1915379Y1434382*
X1915737*
X1916274Y1434628*
X1916632Y1435366*
X1916811Y1436596*
Y1437335*
X1916632Y1438565*
X1916274Y1439303*
X1915737Y1439549*
X1915379*
G54D70*
X2208051Y1589146D02*
Y1509146D01*
X2083051*
Y1589146*
X2208051*
G54D71*
X1991249Y1607999D02*
Y1604899D01*
X1990497Y1607999D02*
X1992001D01*
X1992967D02*
Y1604899D01*
Y1607999D02*
X1993933D01*
X1994256Y1607851*
X1994363Y1607704*
X1994470Y1607408*
Y1606966*
X1994363Y1606670*
X1994256Y1606523*
X1993933Y1606375*
X1992967*
X1995437Y1607408D02*
X1995651Y1607556D01*
X1995974Y1607999*
Y1604899*
X1998443Y1607999D02*
X1997369Y1604899D01*
X1996940Y1607999D02*
X1998443D01*
X1796374Y1555051D02*
X1796267Y1555346D01*
X1796052Y1555642*
X1795838Y1555789*
X1795408*
X1795193Y1555642*
X1794979Y1555346*
X1794871Y1555051*
X1794764Y1554608*
Y1553870*
X1794871Y1553427*
X1794979Y1553132*
X1795193Y1552837*
X1795408Y1552689*
X1795838*
X1796052Y1552837*
X1796267Y1553132*
X1796374Y1553427*
X1797341Y1555199D02*
X1797555Y1555346D01*
X1797878Y1555789*
Y1552689*
X1794800Y1632217D02*
X1794692Y1632512D01*
X1794477Y1632807*
X1794263Y1632955*
X1793833*
X1793618Y1632807*
X1793404Y1632512*
X1793296Y1632217*
X1793189Y1631774*
Y1631035*
X1793296Y1630593*
X1793404Y1630297*
X1793618Y1630002*
X1793833Y1629854*
X1794263*
X1794477Y1630002*
X1794692Y1630297*
X1794800Y1630593*
X1795766Y1632364D02*
X1795981Y1632512D01*
X1796303Y1632955*
Y1629854*
X1797913Y1632955D02*
X1797591Y1632807D01*
X1797377Y1632364*
X1797269Y1631626*
Y1631183*
X1797377Y1630445*
X1797591Y1630002*
X1797913Y1629854*
X1798128*
X1798450Y1630002*
X1798665Y1630445*
X1798772Y1631183*
Y1631626*
X1798665Y1632364*
X1798450Y1632807*
X1798128Y1632955*
X1797913*
X1795193Y1638909D02*
X1795086Y1639205D01*
X1794871Y1639500*
X1794656Y1639648*
X1794227*
X1794012Y1639500*
X1793797Y1639205*
X1793690Y1638909*
X1793583Y1638467*
Y1637728*
X1793690Y1637285*
X1793797Y1636990*
X1794012Y1636695*
X1794227Y1636547*
X1794656*
X1794871Y1636695*
X1795086Y1636990*
X1795193Y1637285*
X1796160Y1639057D02*
X1796374Y1639205D01*
X1796696Y1639648*
Y1636547*
X1797663Y1639057D02*
X1797878Y1639205D01*
X1798200Y1639648*
Y1636547*
X1794800Y1645602D02*
X1794692Y1645898D01*
X1794477Y1646193*
X1794263Y1646341*
X1793833*
X1793618Y1646193*
X1793404Y1645898*
X1793296Y1645602*
X1793189Y1645159*
Y1644421*
X1793296Y1643978*
X1793404Y1643683*
X1793618Y1643388*
X1793833Y1643240*
X1794263*
X1794477Y1643388*
X1794692Y1643683*
X1794800Y1643978*
X1795766Y1645750D02*
X1795981Y1645898D01*
X1796303Y1646341*
Y1643240*
X1797377Y1645602D02*
Y1645750D01*
X1797484Y1646045*
X1797591Y1646193*
X1797806Y1646341*
X1798236*
X1798450Y1646193*
X1798558Y1646045*
X1798665Y1645750*
Y1645455*
X1798558Y1645159*
X1798343Y1644717*
X1797269Y1643240*
X1798772*
X2047949Y1734579D02*
X2047842Y1734874D01*
X2047627Y1735169*
X2047412Y1735317*
X2046983*
X2046768Y1735169*
X2046553Y1734874*
X2046446Y1734579*
X2046339Y1734136*
Y1733398*
X2046446Y1732955*
X2046553Y1732659*
X2046768Y1732364*
X2046983Y1732217*
X2047412*
X2047627Y1732364*
X2047842Y1732659*
X2047949Y1732955*
X2048916Y1734726D02*
X2049130Y1734874D01*
X2049452Y1735317*
Y1732217*
X2050634Y1735317D02*
X2051815D01*
X2051170Y1734136*
X2051492*
X2051707Y1733988*
X2051815Y1733841*
X2051922Y1733398*
Y1733102*
X2051815Y1732659*
X2051600Y1732364*
X2051278Y1732217*
X2050956*
X2050634Y1732364*
X2050526Y1732512*
X2050419Y1732807*
X2027083Y1711744D02*
X2026976Y1712039D01*
X2026761Y1712335*
X2026546Y1712482*
X2026117*
X2025902Y1712335*
X2025687Y1712039*
X2025580Y1711744*
X2025472Y1711301*
Y1710563*
X2025580Y1710120*
X2025687Y1709825*
X2025902Y1709530*
X2026117Y1709382*
X2026546*
X2026761Y1709530*
X2026976Y1709825*
X2027083Y1710120*
X2028049Y1711892D02*
X2028264Y1712039D01*
X2028586Y1712482*
Y1709382*
X2030626Y1712482D02*
X2029553Y1710415D01*
X2031163*
X2030626Y1712482D02*
Y1709382D01*
X2055036Y1711744D02*
X2054928Y1712039D01*
X2054714Y1712335*
X2054499Y1712482*
X2054069*
X2053855Y1712335*
X2053640Y1712039*
X2053533Y1711744*
X2053425Y1711301*
Y1710563*
X2053533Y1710120*
X2053640Y1709825*
X2053855Y1709530*
X2054069Y1709382*
X2054499*
X2054714Y1709530*
X2054928Y1709825*
X2055036Y1710120*
X2056002Y1711892D02*
X2056217Y1712039D01*
X2056539Y1712482*
Y1709382*
X2058901Y1712482D02*
X2057827D01*
X2057720Y1711154*
X2057827Y1711301*
X2058150Y1711449*
X2058472*
X2058794Y1711301*
X2059009Y1711006*
X2059116Y1710563*
X2059009Y1710268*
X2058901Y1709825*
X2058686Y1709530*
X2058364Y1709382*
X2058042*
X2057720Y1709530*
X2057613Y1709677*
X2057505Y1709972*
X2042831Y1742059D02*
X2042724Y1742354D01*
X2042509Y1742650*
X2042294Y1742797*
X2041865*
X2041650Y1742650*
X2041435Y1742354*
X2041328Y1742059*
X2041220Y1741616*
Y1740878*
X2041328Y1740435*
X2041435Y1740140*
X2041650Y1739844*
X2041865Y1739697*
X2042294*
X2042509Y1739844*
X2042724Y1740140*
X2042831Y1740435*
X2043797Y1742207D02*
X2044012Y1742354D01*
X2044334Y1742797*
Y1739697*
X2046589Y1742354D02*
X2046482Y1742650D01*
X2046160Y1742797*
X2045945*
X2045623Y1742650*
X2045408Y1742207*
X2045301Y1741469*
Y1740730*
X2045408Y1740140*
X2045623Y1739844*
X2045945Y1739697*
X2046052*
X2046374Y1739844*
X2046589Y1740140*
X2046696Y1740583*
Y1740730*
X2046589Y1741173*
X2046374Y1741469*
X2046052Y1741616*
X2045945*
X2045623Y1741469*
X2045408Y1741173*
X2045301Y1740730*
X1814091Y1581823D02*
X1813984Y1582118D01*
X1813769Y1582413*
X1813554Y1582561*
X1813125*
X1812910Y1582413*
X1812695Y1582118*
X1812588Y1581823*
X1812480Y1581380*
Y1580642*
X1812588Y1580199*
X1812695Y1579904*
X1812910Y1579608*
X1813125Y1579461*
X1813554*
X1813769Y1579608*
X1813984Y1579904*
X1814091Y1580199*
X1815165Y1581823D02*
Y1581970D01*
X1815272Y1582266*
X1815379Y1582413*
X1815594Y1582561*
X1816024*
X1816238Y1582413*
X1816346Y1582266*
X1816453Y1581970*
Y1581675*
X1816346Y1581380*
X1816131Y1580937*
X1815057Y1579461*
X1816560*
X1796768Y1601508D02*
X1796661Y1601803D01*
X1796446Y1602098*
X1796231Y1602246*
X1795802*
X1795587Y1602098*
X1795372Y1601803*
X1795265Y1601508*
X1795157Y1601065*
Y1600327*
X1795265Y1599884*
X1795372Y1599589*
X1795587Y1599293*
X1795802Y1599146*
X1796231*
X1796446Y1599293*
X1796661Y1599589*
X1796768Y1599884*
X1797949Y1602246D02*
X1799130D01*
X1798486Y1601065*
X1798808*
X1799023Y1600917*
X1799130Y1600770*
X1799238Y1600327*
Y1600031*
X1799130Y1599589*
X1798916Y1599293*
X1798593Y1599146*
X1798271*
X1797949Y1599293*
X1797842Y1599441*
X1797734Y1599736*
X2037713Y1497177D02*
X2037606Y1497472D01*
X2037391Y1497768*
X2037176Y1497915*
X2036747*
X2036532Y1497768*
X2036317Y1497472*
X2036210Y1497177*
X2036102Y1496734*
Y1495996*
X2036210Y1495553*
X2036317Y1495258*
X2036532Y1494963*
X2036747Y1494815*
X2037176*
X2037391Y1494963*
X2037606Y1495258*
X2037713Y1495553*
X2039753Y1497915D02*
X2038679Y1495848D01*
X2040290*
X2039753Y1497915D02*
Y1494815D01*
X2037319Y1516862D02*
X2037212Y1517157D01*
X2036997Y1517453*
X2036782Y1517600*
X2036353*
X2036138Y1517453*
X2035923Y1517157*
X2035816Y1516862*
X2035709Y1516419*
Y1515681*
X2035816Y1515238*
X2035923Y1514943*
X2036138Y1514648*
X2036353Y1514500*
X2036782*
X2036997Y1514648*
X2037212Y1514943*
X2037319Y1515238*
X2039681Y1517600D02*
X2038608D01*
X2038500Y1516272*
X2038608Y1516419*
X2038930Y1516567*
X2039252*
X2039574Y1516419*
X2039789Y1516124*
X2039896Y1515681*
X2039789Y1515386*
X2039681Y1514943*
X2039467Y1514648*
X2039145Y1514500*
X2038822*
X2038500Y1514648*
X2038393Y1514795*
X2038286Y1515091*
X2037319Y1529067D02*
X2037212Y1529362D01*
X2036997Y1529657*
X2036782Y1529805*
X2036353*
X2036138Y1529657*
X2035923Y1529362*
X2035816Y1529067*
X2035709Y1528624*
Y1527886*
X2035816Y1527443*
X2035923Y1527148*
X2036138Y1526852*
X2036353Y1526705*
X2036782*
X2036997Y1526852*
X2037212Y1527148*
X2037319Y1527443*
X2039574Y1529362D02*
X2039467Y1529657D01*
X2039145Y1529805*
X2038930*
X2038608Y1529657*
X2038393Y1529215*
X2038286Y1528476*
Y1527738*
X2038393Y1527148*
X2038608Y1526852*
X2038930Y1526705*
X2039037*
X2039359Y1526852*
X2039574Y1527148*
X2039681Y1527591*
Y1527738*
X2039574Y1528181*
X2039359Y1528476*
X2039037Y1528624*
X2038930*
X2038608Y1528476*
X2038393Y1528181*
X2038286Y1527738*
X2038107Y1484972D02*
X2037999Y1485268D01*
X2037785Y1485563*
X2037570Y1485711*
X2037140*
X2036926Y1485563*
X2036711Y1485268*
X2036603Y1484972*
X2036496Y1484530*
Y1483791*
X2036603Y1483348*
X2036711Y1483053*
X2036926Y1482758*
X2037140Y1482610*
X2037570*
X2037785Y1482758*
X2037999Y1483053*
X2038107Y1483348*
X2040576Y1485711D02*
X2039503Y1482610D01*
X2039073Y1485711D02*
X2040576D01*
X1793618Y1733791D02*
X1793511Y1734087D01*
X1793296Y1734382*
X1793082Y1734530*
X1792652*
X1792437Y1734382*
X1792223Y1734087*
X1792115Y1733791*
X1792008Y1733348*
Y1732610*
X1792115Y1732167*
X1792223Y1731872*
X1792437Y1731577*
X1792652Y1731429*
X1793082*
X1793296Y1731577*
X1793511Y1731872*
X1793618Y1732167*
X1795122Y1734530D02*
X1794800Y1734382D01*
X1794692Y1734087*
Y1733791*
X1794800Y1733496*
X1795014Y1733348*
X1795444Y1733201*
X1795766Y1733053*
X1795981Y1732758*
X1796088Y1732463*
Y1732020*
X1795981Y1731724*
X1795873Y1731577*
X1795551Y1731429*
X1795122*
X1794800Y1731577*
X1794692Y1731724*
X1794585Y1732020*
Y1732463*
X1794692Y1732758*
X1794907Y1733053*
X1795229Y1733201*
X1795659Y1733348*
X1795873Y1733496*
X1795981Y1733791*
Y1734087*
X1795873Y1734382*
X1795551Y1734530*
X1795122*
X1795587Y1623949D02*
X1795480Y1624244D01*
X1795265Y1624539*
X1795050Y1624687*
X1794621*
X1794406Y1624539*
X1794191Y1624244*
X1794084Y1623949*
X1793976Y1623506*
Y1622768*
X1794084Y1622325*
X1794191Y1622030*
X1794406Y1621734*
X1794621Y1621587*
X1795050*
X1795265Y1621734*
X1795480Y1622030*
X1795587Y1622325*
X1797949Y1623654D02*
X1797842Y1623211D01*
X1797627Y1622915*
X1797305Y1622768*
X1797198*
X1796875Y1622915*
X1796661Y1623211*
X1796553Y1623654*
Y1623801*
X1796661Y1624244*
X1796875Y1624539*
X1797198Y1624687*
X1797305*
X1797627Y1624539*
X1797842Y1624244*
X1797949Y1623654*
Y1622915*
X1797842Y1622177*
X1797627Y1621734*
X1797305Y1621587*
X1797090*
X1796768Y1621734*
X1796661Y1622030*
X2223898Y1701537D02*
Y1698437D01*
Y1701537D02*
X2224649D01*
X2224971Y1701390*
X2225186Y1701094*
X2225293Y1700799*
X2225401Y1700356*
Y1699618*
X2225293Y1699175*
X2225186Y1698880*
X2224971Y1698585*
X2224649Y1698437*
X2223898*
X2226367Y1700947D02*
X2226582Y1701094D01*
X2226904Y1701537*
Y1698437*
X2224055Y1658270D02*
Y1655169D01*
Y1658270D02*
X2224807D01*
X2225129Y1658122*
X2225344Y1657827*
X2225451Y1657531*
X2225558Y1657089*
Y1656350*
X2225451Y1655907*
X2225344Y1655612*
X2225129Y1655317*
X2224807Y1655169*
X2224055*
X2226632Y1657531D02*
Y1657679D01*
X2226739Y1657974*
X2226847Y1658122*
X2227062Y1658270*
X2227491*
X2227706Y1658122*
X2227813Y1657974*
X2227921Y1657679*
Y1657384*
X2227813Y1657089*
X2227598Y1656646*
X2226525Y1655169*
X2228028*
X1752924Y1678624D02*
Y1676262D01*
X1752817Y1675819*
X1752709Y1675671*
X1752495Y1675524*
X1752280*
X1752065Y1675671*
X1751958Y1675819*
X1751850Y1676262*
Y1676557*
X1753890Y1678033D02*
X1754105Y1678181D01*
X1754427Y1678624*
Y1675524*
X1756038Y1678624D02*
X1755716Y1678476D01*
X1755501Y1678033*
X1755394Y1677295*
Y1676852*
X1755501Y1676114*
X1755716Y1675671*
X1756038Y1675524*
X1756253*
X1756575Y1675671*
X1756790Y1676114*
X1756897Y1676852*
Y1677295*
X1756790Y1678033*
X1756575Y1678476*
X1756253Y1678624*
X1756038*
X1994263Y1533348D02*
Y1530986D01*
X1994155Y1530543*
X1994048Y1530396*
X1993833Y1530248*
X1993618*
X1993404Y1530396*
X1993296Y1530543*
X1993189Y1530986*
Y1531281*
X1995229Y1532758D02*
X1995444Y1532906D01*
X1995766Y1533348*
Y1530248*
X1996732Y1532758D02*
X1996947Y1532906D01*
X1997269Y1533348*
Y1530248*
X1753712Y1606577D02*
Y1604215D01*
X1753604Y1603772*
X1753497Y1603624*
X1753282Y1603476*
X1753067*
X1752853Y1603624*
X1752745Y1603772*
X1752638Y1604215*
Y1604510*
X1754678Y1605986D02*
X1754893Y1606134D01*
X1755215Y1606577*
Y1603476*
X1756288Y1605839D02*
Y1605986D01*
X1756396Y1606281*
X1756503Y1606429*
X1756718Y1606577*
X1757147*
X1757362Y1606429*
X1757470Y1606281*
X1757577Y1605986*
Y1605691*
X1757470Y1605396*
X1757255Y1604953*
X1756181Y1603476*
X1757684*
X1762373Y1606577D02*
Y1604215D01*
X1762266Y1603772*
X1762158Y1603624*
X1761943Y1603476*
X1761729*
X1761514Y1603624*
X1761407Y1603772*
X1761299Y1604215*
Y1604510*
X1763339Y1605986D02*
X1763554Y1606134D01*
X1763876Y1606577*
Y1603476*
X1765057Y1606577D02*
X1766238D01*
X1765594Y1605396*
X1765916*
X1766131Y1605248*
X1766238Y1605100*
X1766346Y1604657*
Y1604362*
X1766238Y1603919*
X1766024Y1603624*
X1765702Y1603476*
X1765379*
X1765057Y1603624*
X1764950Y1603772*
X1764843Y1604067*
X2104893Y1506577D02*
Y1504215D01*
X2104785Y1503772*
X2104678Y1503624*
X2104463Y1503476*
X2104248*
X2104034Y1503624*
X2103926Y1503772*
X2103819Y1504215*
Y1504510*
X2105859Y1505986D02*
X2106074Y1506134D01*
X2106396Y1506577*
Y1503476*
X2108436Y1506577D02*
X2107362Y1504510D01*
X2108973*
X2108436Y1506577D02*
Y1503476D01*
X2211979Y1776656D02*
Y1774293D01*
X2211872Y1773850*
X2211764Y1773703*
X2211764D02*
X2211550Y1773555D01*
X2211335*
X2211120Y1773703*
X2211013Y1773850*
X2210906Y1774293*
Y1774589*
X2212946Y1776065D02*
X2213160Y1776213D01*
X2213482Y1776656*
Y1773555*
X2215737Y1776213D02*
X2215630Y1776508D01*
X2215308Y1776656*
X2215093*
X2214771Y1776508*
X2214556Y1776065*
X2214449Y1775327*
Y1774589*
X2214556Y1773998*
X2214771Y1773703*
X2215093Y1773555*
X2215200*
X2215523Y1773703*
X2215737Y1773998*
X2215845Y1774441*
Y1774589*
X2215737Y1775031*
X2215523Y1775327*
X2215200Y1775474*
X2215093*
X2214771Y1775327*
X2214556Y1775031*
X2214449Y1774589*
X2212373Y1781380D02*
Y1779018D01*
X2212266Y1778575*
X2212158Y1778427*
X2211943Y1778280*
X2211729*
X2211514Y1778427*
X2211407Y1778575*
X2211299Y1779018*
Y1779313*
X2213339Y1780789D02*
X2213554Y1780937D01*
X2213876Y1781380*
Y1778280*
X2216346Y1781380D02*
X2215272Y1778280D01*
X2214843Y1781380D02*
X2216346D01*
X2233633Y1748309D02*
Y1745947D01*
X2233525Y1745504*
X2233418Y1745356*
X2233203Y1745209*
X2232989*
X2232774Y1745356*
X2232666Y1745504*
X2232559Y1745947*
Y1746242*
X2234707Y1747571D02*
Y1747719D01*
X2234707D02*
X2234814Y1748014D01*
X2234921Y1748161*
X2235136Y1748309*
X2235566*
X2235566D02*
X2235780Y1748161D01*
X2235888Y1748014*
X2235995Y1747719*
X2235995D02*
Y1747423D01*
X2235888Y1747128*
X2235673Y1746685*
X2234599Y1745209*
X2236102*
X2237713Y1748309D02*
X2237391Y1748161D01*
X2237176Y1747719*
X2237176D02*
X2237069Y1746980D01*
Y1746537*
X2237176Y1745799*
X2237391Y1745356*
X2237713Y1745209*
X2237928*
X2238250Y1745356*
X2238465Y1745799*
X2238572Y1746537*
Y1746980*
X2238465Y1747719*
X2238465D02*
X2238250Y1748161D01*
X2237928Y1748309*
X2237713*
X2233633Y1700278D02*
Y1697915D01*
X2233525Y1697472*
X2233418Y1697325*
X2233203Y1697177*
X2232989*
X2232774Y1697325*
X2232666Y1697472*
X2232559Y1697915*
Y1698211*
X2234707Y1699539D02*
Y1699687D01*
X2234814Y1699982*
X2234921Y1700130*
X2235136Y1700278*
X2235566*
X2235566D02*
X2235780Y1700130D01*
X2235888Y1699982*
X2235995Y1699687*
Y1699392*
X2235888Y1699096*
X2235673Y1698654*
X2234599Y1697177*
X2236102*
X2237069Y1699687D02*
X2237283Y1699835D01*
X2237606Y1700278*
Y1697177*
X2235601Y1654215D02*
Y1651852D01*
X2235494Y1651409*
X2235387Y1651262*
X2235172Y1651114*
X2234957*
X2234742Y1651262*
X2234635Y1651409*
X2234528Y1651852*
Y1652148*
X2236675Y1653476D02*
Y1653624D01*
X2236782Y1653919*
X2236890Y1654067*
X2237105Y1654215*
X2237534*
X2237749Y1654067*
X2237856Y1653919*
X2237963Y1653624*
Y1653329*
X2237856Y1653033*
X2237641Y1652591*
X2236568Y1651114*
X2238071*
X2239145Y1653476D02*
Y1653624D01*
X2239252Y1653919*
X2239359Y1654067*
X2239574Y1654215*
X2240004*
X2240218Y1654067*
X2240326Y1653919*
X2240433Y1653624*
Y1653329*
X2240326Y1653033*
X2240111Y1652591*
X2239037Y1651114*
X2240540*
X2234814Y1609333D02*
Y1606970D01*
X2234707Y1606528*
X2234599Y1606380*
X2234384Y1606232*
X2234170*
X2233955Y1606380*
X2233848Y1606528*
X2233740Y1606970*
Y1607266*
X2235888Y1608594D02*
Y1608742D01*
X2235995Y1609037*
X2236102Y1609185*
X2236317Y1609333*
X2236747*
X2236961Y1609185*
X2237069Y1609037*
X2237176Y1608742*
Y1608447*
X2237069Y1608152*
X2236854Y1607709*
X2235780Y1606232*
X2237283*
X2238465Y1609333D02*
X2239646D01*
X2239001Y1608152*
X2239324*
X2239538Y1608004*
X2239646Y1607856*
X2239753Y1607413*
Y1607118*
X2239646Y1606675*
X2239431Y1606380*
X2239109Y1606232*
X2238787*
X2238465Y1606380*
X2238357Y1606528*
X2238250Y1606823*
X2234814Y1560907D02*
Y1558545D01*
X2234707Y1558102*
X2234599Y1557955*
X2234384Y1557807*
X2234170*
X2233955Y1557955*
X2233848Y1558102*
X2233740Y1558545*
Y1558841*
X2235888Y1560169D02*
Y1560317D01*
X2235995Y1560612*
X2236102Y1560760*
X2236317Y1560907*
X2236747*
X2236961Y1560760*
X2237069Y1560612*
X2237176Y1560317*
Y1560022*
X2237069Y1559726*
X2236854Y1559283*
X2235780Y1557807*
X2237283*
X2239324Y1560907D02*
X2238250Y1558841D01*
X2239860*
X2239324Y1560907D02*
Y1557807D01*
X1853712Y1764844D02*
Y1762482D01*
X1853604Y1762039*
X1853497Y1761892*
X1853282Y1761744*
X1853067*
X1852853Y1761892*
X1852745Y1762039*
X1852638Y1762482*
Y1762778*
X1854785Y1764106D02*
Y1764254D01*
X1854893Y1764549*
X1855000Y1764697*
X1855215Y1764844*
X1855644*
X1855859Y1764697*
X1855966Y1764549*
X1856074Y1764254*
Y1763959*
X1855966Y1763663*
X1855752Y1763220*
X1854678Y1761744*
X1856181*
X1858651Y1764844D02*
X1857577Y1761744D01*
X1857147Y1764844D02*
X1858651D01*
X2041901Y1478230D02*
Y1475868D01*
X2041793Y1475425*
X2041686Y1475278*
X2041471Y1475130*
X2041256*
X2041042Y1475278*
X2040934Y1475425*
X2040827Y1475868*
Y1476163*
X2042974Y1477492D02*
Y1477640D01*
X2043082Y1477935*
X2043189Y1478083*
X2043404Y1478230*
X2043833*
X2044048Y1478083*
X2044155Y1477935*
X2044263Y1477640*
Y1477344*
X2044155Y1477049*
X2043941Y1476606*
X2042867Y1475130*
X2044370*
X2045873Y1478230D02*
X2045551Y1478083D01*
X2045444Y1477787*
Y1477492*
X2045551Y1477197*
X2045766Y1477049*
X2046195Y1476902*
X2046518Y1476754*
X2046732Y1476459*
X2046840Y1476163*
Y1475720*
X2046732Y1475425*
X2046625Y1475278*
X2046303Y1475130*
X2045873*
X2045551Y1475278*
X2045444Y1475425*
X2045336Y1475720*
Y1476163*
X2045444Y1476459*
X2045659Y1476754*
X2045981Y1476902*
X2046410Y1477049*
X2046625Y1477197*
X2046732Y1477492*
Y1477787*
X2046625Y1478083*
X2046303Y1478230*
X2045873*
X2003712Y1773506D02*
Y1771144D01*
X2003604Y1770701*
X2003497Y1770553*
X2003282Y1770406*
X2003067*
X2002853Y1770553*
X2002745Y1770701*
X2002638Y1771144*
Y1771439*
X2006074Y1773506D02*
X2005000D01*
X2004893Y1772177*
X2005000Y1772325*
X2005322Y1772472*
X2005644*
X2005966Y1772325*
X2006181Y1772030*
X2006288Y1771587*
X2006181Y1771291*
X2006074Y1770848*
X2005859Y1770553*
X2005537Y1770406*
X2005215*
X2004893Y1770553*
X2004785Y1770701*
X2004678Y1770996*
X2003712Y1777837D02*
Y1775474D01*
X2003604Y1775031*
X2003497Y1774884*
X2003282Y1774736*
X2003067*
X2002853Y1774884*
X2002745Y1775031*
X2002638Y1775474*
Y1775770*
X2005966Y1777394D02*
X2005859Y1777689D01*
X2005537Y1777837*
X2005322*
X2005000Y1777689*
X2004785Y1777246*
X2004678Y1776508*
Y1775770*
X2004785Y1775179*
X2005000Y1774884*
X2005322Y1774736*
X2005429*
X2005752Y1774884*
X2005966Y1775179*
X2006074Y1775622*
Y1775770*
X2005966Y1776213*
X2005752Y1776508*
X2005429Y1776656*
X2005322*
X2005000Y1776508*
X2004785Y1776213*
X2004678Y1775770*
X1762373Y1600671D02*
Y1598309D01*
X1762266Y1597866*
X1762158Y1597719*
X1762158D02*
X1761943Y1597571D01*
X1761729*
X1761514Y1597719*
X1761514D02*
X1761407Y1597866D01*
X1761299Y1598309*
Y1598604*
X1764843Y1600671D02*
X1763769Y1597571D01*
X1763339Y1600671D02*
X1764843D01*
X1754105D02*
Y1598309D01*
X1753998Y1597866*
X1753890Y1597719*
X1753890D02*
X1753676Y1597571D01*
X1753461*
X1753246Y1597719*
X1753246D02*
X1753139Y1597866D01*
X1753031Y1598309*
X1753031D02*
Y1598604D01*
X1755608Y1600671D02*
X1755286Y1600524D01*
X1755179Y1600228*
Y1599933*
X1755286Y1599638*
X1755501Y1599490*
X1755931Y1599343*
X1756253Y1599195*
X1756467Y1598900*
X1756575Y1598604*
Y1598161*
X1756467Y1597866*
X1756360Y1597719*
X1756360D02*
X1756038Y1597571D01*
X1755608*
X1755286Y1597719*
X1755286D02*
X1755179Y1597866D01*
X1755072Y1598161*
Y1598604*
X1755179Y1598900*
X1755394Y1599195*
X1755716Y1599343*
X1756145Y1599490*
X1756360Y1599638*
X1756467Y1599933*
Y1600228*
X1756360Y1600524*
X1756038Y1600671*
X1755608*
X1763160Y1678230D02*
Y1675868D01*
X1763053Y1675425*
X1762946Y1675278*
X1762731Y1675130*
X1762516*
X1762301Y1675278*
X1762194Y1675425*
X1762087Y1675868*
Y1676163*
X1765523Y1677197D02*
X1765415Y1676754D01*
X1765200Y1676459*
X1764878Y1676311*
X1764771*
X1764449Y1676459*
X1764234Y1676754*
X1764127Y1677197*
Y1677344*
X1764234Y1677787*
X1764449Y1678083*
X1764771Y1678230*
X1764878*
X1765200Y1678083*
X1765415Y1677787*
X1765523Y1677197*
Y1676459*
X1765415Y1675720*
X1765200Y1675278*
X1764878Y1675130*
X1764664*
X1764341Y1675278*
X1764234Y1675573*
X1771142Y1518388D02*
Y1515287D01*
Y1518388D02*
X1772108D01*
X1772430Y1518240*
X1772538Y1518093*
X1772645Y1517797*
Y1517502*
X1772538Y1517207*
X1772430Y1517059*
X1772108Y1516911*
X1771142*
X1771893D02*
X1772645Y1515287D01*
X1773611Y1517797D02*
X1773826Y1517945D01*
X1774148Y1518388*
Y1515287*
X1795157Y1575868D02*
Y1572768D01*
Y1575868D02*
X1796124D01*
X1796446Y1575720*
X1796553Y1575573*
X1796661Y1575278*
Y1574982*
X1796553Y1574687*
X1796446Y1574539*
X1796124Y1574392*
X1795157*
X1795909D02*
X1796661Y1572768D01*
X1797627Y1575278D02*
X1797842Y1575425D01*
X1798164Y1575868*
Y1572768*
X1799775Y1575868D02*
X1799452Y1575720D01*
X1799238Y1575278*
X1799130Y1574539*
Y1574096*
X1799238Y1573358*
X1799452Y1572915*
X1799775Y1572768*
X1799989*
X1800311Y1572915*
X1800526Y1573358*
X1800634Y1574096*
Y1574539*
X1800526Y1575278*
X1800311Y1575720*
X1799989Y1575868*
X1799775*
X1795551Y1569569D02*
Y1566469D01*
Y1569569D02*
X1796518D01*
X1796840Y1569421*
X1796947Y1569274*
X1797054Y1568978*
Y1568683*
X1796947Y1568388*
X1796840Y1568240*
X1796518Y1568093*
X1795551*
X1796303D02*
X1797054Y1566469D01*
X1798021Y1568978D02*
X1798236Y1569126D01*
X1798558Y1569569*
Y1566469*
X1799524Y1568978D02*
X1799739Y1569126D01*
X1800061Y1569569*
Y1566469*
X1795157Y1595159D02*
Y1592059D01*
Y1595159D02*
X1796124D01*
X1796446Y1595012*
X1796553Y1594864*
X1796661Y1594569*
Y1594274*
X1796553Y1593978*
X1796446Y1593831*
X1796124Y1593683*
X1795157*
X1795909D02*
X1796661Y1592059D01*
X1797627Y1594569D02*
X1797842Y1594717D01*
X1798164Y1595159*
Y1592059*
X1799345Y1595159D02*
X1800526D01*
X1799882Y1593978*
X1800204*
X1800419Y1593831*
X1800526Y1593683*
X1800634Y1593240*
Y1592945*
X1800526Y1592502*
X1800311Y1592207*
X1799989Y1592059*
X1799667*
X1799345Y1592207*
X1799238Y1592354*
X1799130Y1592650*
X1794764Y1582561D02*
Y1579461D01*
Y1582561D02*
X1795730D01*
X1796052Y1582413*
X1796160Y1582266*
X1796267Y1581970*
Y1581675*
X1796160Y1581380*
X1796052Y1581232*
X1795730Y1581085*
X1794764*
X1795515D02*
X1796267Y1579461D01*
X1797233Y1581970D02*
X1797448Y1582118D01*
X1797770Y1582561*
Y1579461*
X1799810Y1582561D02*
X1798737Y1580494D01*
X1800347*
X1799810Y1582561D02*
Y1579461D01*
X1795157Y1562876D02*
Y1559776D01*
Y1562876D02*
X1796124D01*
X1796446Y1562728*
X1796553Y1562581*
X1796661Y1562285*
Y1561990*
X1796553Y1561695*
X1796446Y1561547*
X1796124Y1561400*
X1795157*
X1795909D02*
X1796661Y1559776D01*
X1797627Y1562285D02*
X1797842Y1562433D01*
X1798164Y1562876*
Y1559776*
X1800526Y1562876D02*
X1799452D01*
X1799345Y1561547*
X1799452Y1561695*
X1799775Y1561843*
X1800097*
X1800419Y1561695*
X1800634Y1561400*
X1800741Y1560957*
X1800634Y1560661*
X1800526Y1560219*
X1800311Y1559923*
X1799989Y1559776*
X1799667*
X1799345Y1559923*
X1799238Y1560071*
X1799130Y1560366*
X1791614Y1709726D02*
Y1706626D01*
Y1709726D02*
X1792581D01*
X1792903Y1709579*
X1793010Y1709431*
X1793117Y1709136*
Y1708841*
X1793010Y1708545*
X1792903Y1708398*
X1792581Y1708250*
X1791614*
X1792366D02*
X1793117Y1706626D01*
X1794084Y1709136D02*
X1794298Y1709283D01*
X1794298D02*
X1794621Y1709726D01*
Y1706626*
X1796875Y1709283D02*
X1796768Y1709579D01*
X1796446Y1709726*
X1796231*
X1795909Y1709579*
X1795694Y1709136*
X1795587Y1708398*
Y1707659*
X1795694Y1707069*
X1795909Y1706774*
X1796231Y1706626*
X1796339*
X1796661Y1706774*
X1796875Y1707069*
X1796983Y1707512*
Y1707659*
X1796875Y1708102*
X1796661Y1708398*
X1796339Y1708545*
X1796231*
X1795909Y1708398*
X1795694Y1708102*
X1795587Y1707659*
X1792402Y1719963D02*
Y1716862D01*
Y1719963D02*
X1793368D01*
X1793690Y1719815*
X1793797Y1719667*
X1793905Y1719372*
Y1719077*
X1793797Y1718781*
X1793690Y1718634*
X1793368Y1718486*
X1792402*
X1793153D02*
X1793905Y1716862D01*
X1794871Y1719372D02*
X1795086Y1719520D01*
X1795408Y1719963*
Y1716862*
X1797878Y1719963D02*
X1796804Y1716862D01*
X1796374Y1719963D02*
X1797878D01*
X1791614Y1699884D02*
Y1696783D01*
Y1699884D02*
X1792581D01*
X1792903Y1699736*
X1793010Y1699589*
X1793117Y1699293*
Y1698998*
X1793010Y1698703*
X1792903Y1698555*
X1792581Y1698407*
X1791614*
X1792366D02*
X1793117Y1696783D01*
X1794084Y1699293D02*
X1794298Y1699441D01*
X1794298D02*
X1794621Y1699884D01*
Y1696783*
X1796124Y1699884D02*
X1795802Y1699736D01*
X1795694Y1699441*
Y1699146*
X1795802Y1698850*
X1796016Y1698703*
X1796446Y1698555*
X1796768Y1698407*
X1796983Y1698112*
X1797090Y1697817*
Y1697374*
X1796983Y1697079*
X1796875Y1696931*
X1796553Y1696783*
X1796124*
X1795802Y1696931*
X1795694Y1697079*
X1795587Y1697374*
Y1697817*
X1795694Y1698112*
X1795909Y1698407*
X1796231Y1698555*
X1796661Y1698703*
X1796875Y1698850*
X1796983Y1699146*
Y1699441*
X1796875Y1699736*
X1796553Y1699884*
X1796124*
X2016024Y1530199D02*
Y1527098D01*
Y1530199D02*
X2016990D01*
X2017312Y1530051*
X2017419Y1529904*
X2017527Y1529608*
Y1529313*
X2017419Y1529018*
X2017312Y1528870*
X2016990Y1528722*
X2016024*
X2016775D02*
X2017527Y1527098D01*
X2018493Y1529608D02*
X2018708Y1529756D01*
X2019030Y1530199*
Y1527098*
X2021392Y1529165D02*
X2021285Y1528722D01*
X2021070Y1528427*
X2020748Y1528280*
X2020641*
X2020319Y1528427*
X2020104Y1528722*
X2019996Y1529165*
Y1529313*
X2020104Y1529756*
X2020319Y1530051*
X2020641Y1530199*
X2020748*
X2021070Y1530051*
X2021285Y1529756*
X2021392Y1529165*
Y1528427*
X2021285Y1527689*
X2021070Y1527246*
X2020748Y1527098*
X2020533*
X2020211Y1527246*
X2020104Y1527541*
X1962825Y1748358D02*
X1959724D01*
X1962825D02*
Y1747392D01*
X1962677Y1747070*
X1962530Y1746962*
X1962234Y1746855*
X1961939*
X1961644Y1746962*
X1961496Y1747070*
X1961348Y1747392*
Y1748358*
Y1747607D02*
X1959724Y1746855D01*
X1962087Y1745781D02*
X1962234D01*
X1962530Y1745674*
X1962677Y1745567*
X1962825Y1745352*
Y1744922*
X1962677Y1744708*
X1962530Y1744600*
X1962234Y1744493*
X1961939*
X1961644Y1744600*
X1961201Y1744815*
X1959724Y1745889*
Y1744385*
X2016417Y1517207D02*
Y1514106D01*
Y1517207D02*
X2017384D01*
X2017706Y1517059*
X2017813Y1516911*
X2017921Y1516616*
Y1516321*
X2017813Y1516026*
X2017706Y1515878*
X2017384Y1515730*
X2016417*
X2017169D02*
X2017921Y1514106D01*
X2018994Y1516469D02*
Y1516616D01*
X2019102Y1516911*
X2019209Y1517059*
X2019424Y1517207*
X2019853*
X2020068Y1517059*
X2020175Y1516911*
X2020283Y1516616*
Y1516321*
X2020175Y1516026*
X2019961Y1515583*
X2018887Y1514106*
X2020390*
X2022001Y1517207D02*
X2021679Y1517059D01*
X2021464Y1516616*
X2021356Y1515878*
Y1515435*
X2021464Y1514697*
X2021679Y1514254*
X2022001Y1514106*
X2022215*
X2022538Y1514254*
X2022752Y1514697*
X2022860Y1515435*
Y1515878*
X2022752Y1516616*
X2022538Y1517059*
X2022215Y1517207*
X2022001*
X2016417Y1497522D02*
Y1494421D01*
Y1497522D02*
X2017384D01*
X2017706Y1497374*
X2017813Y1497226*
X2017921Y1496931*
Y1496636*
X2017813Y1496341*
X2017706Y1496193*
X2017384Y1496045*
X2016417*
X2017169D02*
X2017921Y1494421D01*
X2018994Y1496783D02*
Y1496931D01*
X2019102Y1497226*
X2019209Y1497374*
X2019424Y1497522*
X2019853*
X2020068Y1497374*
X2020175Y1497226*
X2020283Y1496931*
Y1496636*
X2020175Y1496341*
X2019961Y1495898*
X2018887Y1494421*
X2020390*
X2021356Y1496931D02*
X2021571Y1497079D01*
X2021893Y1497522*
Y1494421*
X2016811Y1485711D02*
Y1482610D01*
Y1485711D02*
X2017777D01*
X2018100Y1485563*
X2018100D02*
X2018207Y1485415D01*
X2018314Y1485120*
Y1484825*
X2018207Y1484530*
X2018100Y1484382*
X2018100D02*
X2017777Y1484234D01*
X2016811*
X2017563D02*
X2018314Y1482610D01*
X2019388Y1484972D02*
Y1485120D01*
X2019495Y1485415*
X2019603Y1485563*
X2019817Y1485711*
X2020247*
X2020462Y1485563*
X2020569Y1485415*
X2020676Y1485120*
Y1484825*
X2020569Y1484530*
X2020354Y1484087*
X2019281Y1482610*
X2020784*
X2021858Y1484972D02*
Y1485120D01*
X2021965Y1485415*
X2022072Y1485563*
X2022287Y1485711*
X2022717*
X2022931Y1485563*
X2023039Y1485415*
X2023146Y1485120*
Y1484825*
X2023039Y1484530*
X2022824Y1484087*
X2021750Y1482610*
X2023253*
X1791220Y1727443D02*
Y1724343D01*
Y1727443D02*
X1792187D01*
X1792509Y1727295*
X1792616Y1727148*
X1792724Y1726852*
Y1726557*
X1792616Y1726262*
X1792509Y1726114*
X1792187Y1725967*
X1791220*
X1791972D02*
X1792724Y1724343D01*
X1793797Y1726705D02*
Y1726852D01*
X1793905Y1727148*
X1794012Y1727295*
X1794227Y1727443*
X1794656*
X1794871Y1727295*
X1794979Y1727148*
X1795086Y1726852*
Y1726557*
X1794979Y1726262*
X1794764Y1725819*
X1793690Y1724343*
X1795193*
X1796374Y1727443D02*
X1797555D01*
X1796911Y1726262*
X1797233*
X1797448Y1726114*
X1797555Y1725967*
X1797663Y1725524*
Y1725228*
X1797555Y1724785*
X1797341Y1724490*
X1797019Y1724343*
X1796696*
X1796374Y1724490*
X1796267Y1724638*
X1796160Y1724933*
X2040039Y1696734D02*
Y1693634D01*
Y1696734D02*
X2041006D01*
X2041328Y1696587*
X2041435Y1696439*
X2041543Y1696144*
Y1695848*
X2041435Y1695553*
X2041328Y1695406*
X2041006Y1695258*
X2040039*
X2040791D02*
X2041543Y1693634D01*
X2042616Y1695996D02*
Y1696144D01*
X2042724Y1696439*
X2042831Y1696587*
X2043046Y1696734*
X2043475*
X2043690Y1696587*
X2043797Y1696439*
X2043905Y1696144*
Y1695848*
X2043797Y1695553*
X2043583Y1695110*
X2042509Y1693634*
X2044012*
X2046052Y1696734D02*
X2044979Y1694667D01*
X2046589*
X2046052Y1696734D02*
Y1693634D01*
X2024685Y1703821D02*
Y1700720D01*
Y1703821D02*
X2025651D01*
X2025974Y1703673*
X2026081Y1703526*
X2026188Y1703230*
Y1702935*
X2026081Y1702640*
X2025974Y1702492*
X2025651Y1702344*
X2024685*
X2025437D02*
X2026188Y1700720D01*
X2027262Y1703083D02*
Y1703230D01*
X2027369Y1703526*
X2027477Y1703673*
X2027691Y1703821*
X2028121*
X2028336Y1703673*
X2028443Y1703526*
X2028550Y1703230*
Y1702935*
X2028443Y1702640*
X2028228Y1702197*
X2027155Y1700720*
X2028658*
X2031127Y1703821D02*
X2030054Y1700720D01*
X2029624Y1703821D02*
X2031127D01*
X2053031Y1704215D02*
Y1701114D01*
Y1704215D02*
X2053998D01*
X2054320Y1704067*
X2054427Y1703919*
X2054535Y1703624*
Y1703329*
X2054427Y1703033*
X2054320Y1702886*
X2053998Y1702738*
X2053031*
X2053783D02*
X2054535Y1701114D01*
X2055608Y1703476D02*
Y1703624D01*
X2055716Y1703919*
X2055823Y1704067*
X2056038Y1704215*
X2056467*
X2056682Y1704067*
X2056790Y1703919*
X2056897Y1703624*
Y1703329*
X2056790Y1703033*
X2056575Y1702591*
X2055501Y1701114*
X2057004*
X2058508Y1704215D02*
X2058185Y1704067D01*
X2058078Y1703772*
Y1703476*
X2058185Y1703181*
X2058400Y1703033*
X2058830Y1702886*
X2059152Y1702738*
X2059367Y1702443*
X2059367D02*
X2059474Y1702148D01*
Y1701705*
X2059367Y1701409*
X2059367D02*
X2059259Y1701262D01*
X2058937Y1701114*
X2058508*
X2058185Y1701262*
X2058078Y1701409*
X2057971Y1701705*
Y1702148*
X2058078Y1702443*
X2058293Y1702738*
X2058615Y1702886*
X2059044Y1703033*
X2059259Y1703181*
X2059367Y1703476*
X2059367D02*
Y1703772D01*
X2059367D02*
X2059259Y1704067D01*
X2058937Y1704215*
X2058508*
X2046732Y1719175D02*
Y1716075D01*
Y1719175D02*
X2047699D01*
X2048021Y1719028*
X2048128Y1718880*
X2048236Y1718585*
Y1718289*
X2048128Y1717994*
X2048021Y1717846*
X2047699Y1717699*
X2046732*
X2047484D02*
X2048236Y1716075D01*
X2049309Y1718437D02*
Y1718585D01*
X2049417Y1718880*
X2049524Y1719028*
X2049739Y1719175*
X2050168*
X2050383Y1719028*
X2050490Y1718880*
X2050598Y1718585*
Y1718289*
X2050490Y1717994*
X2050276Y1717551*
X2049202Y1716075*
X2050705*
X2053067Y1718142D02*
X2052960Y1717699D01*
X2052745Y1717404*
X2052423Y1717256*
X2052316*
X2051994Y1717404*
X2051779Y1717699*
X2051671Y1718142*
Y1718289*
X2051779Y1718732*
X2051994Y1719028*
X2052316Y1719175*
X2052423*
X2052745Y1719028*
X2052960Y1718732*
X2053067Y1718142*
Y1717404*
X2052960Y1716665*
X2052745Y1716222*
X2052423Y1716075*
X2052208*
X2051886Y1716222*
X2051779Y1716518*
X2069961Y1713663D02*
Y1710563D01*
Y1713663D02*
X2070927D01*
X2071249Y1713516*
X2071356Y1713368*
X2071464Y1713073*
Y1712778*
X2071356Y1712482*
X2071249Y1712335*
X2070927Y1712187*
X2069961*
X2070712D02*
X2071464Y1710563D01*
X2072645Y1713663D02*
X2073826D01*
X2073182Y1712482*
X2073504*
X2073719Y1712335*
X2073826Y1712187*
X2073933Y1711744*
Y1711449*
X2073826Y1711006*
X2073611Y1710711*
X2073289Y1710563*
X2072967*
X2072645Y1710711*
X2072538Y1710858*
X2072430Y1711154*
X2075544Y1713663D02*
X2075222Y1713516D01*
X2075007Y1713073*
X2074900Y1712335*
Y1711892*
X2075007Y1711154*
X2075222Y1710711*
X2075544Y1710563*
X2075759*
X2076081Y1710711*
X2076296Y1711154*
X2076403Y1711892*
Y1712335*
X2076296Y1713073*
X2076081Y1713516*
X2075759Y1713663*
X2075544*
X2063661Y1728624D02*
Y1725524D01*
Y1728624D02*
X2064628D01*
X2064950Y1728476*
X2065057Y1728329*
X2065165Y1728033*
Y1727738*
X2065057Y1727443*
X2064950Y1727295*
X2064628Y1727148*
X2063661*
X2064413D02*
X2065165Y1725524D01*
X2066346Y1728624D02*
X2067527D01*
X2066883Y1727443*
X2067205*
X2067419Y1727295*
X2067527Y1727148*
X2067634Y1726705*
Y1726409*
X2067527Y1725967*
X2067312Y1725671*
X2066990Y1725524*
X2066668*
X2066346Y1725671*
X2066238Y1725819*
X2066131Y1726114*
X2068601Y1728033D02*
X2068815Y1728181D01*
X2069137Y1728624*
Y1725524*
X2062675Y1724012D02*
X2059575D01*
X2062675D02*
Y1723045D01*
X2062528Y1722723*
X2062380Y1722616*
X2062085Y1722509*
X2061789*
X2061494Y1722616*
X2061346Y1722723*
X2061199Y1723045*
Y1724012*
Y1723260D02*
X2059575Y1722509D01*
X2062675Y1721327D02*
Y1720146D01*
X2061494Y1720791*
Y1720469*
X2061494D02*
X2061346Y1720254D01*
X2061199Y1720146*
X2060756Y1720039*
X2060461*
X2060018Y1720146*
X2059722Y1720361*
X2059575Y1720683*
Y1721005*
X2059722Y1721327*
X2059870Y1721435*
X2060165Y1721542*
X2061937Y1718965D02*
X2062085D01*
X2062380Y1718858*
X2062528Y1718751*
X2062675Y1718536*
Y1718106*
X2062528Y1717892*
X2062380Y1717784*
X2062085Y1717677*
X2061789*
X2061494Y1717784*
X2061051Y1717999*
X2059575Y1719073*
Y1717569*
X2061299Y1702246D02*
Y1699146D01*
Y1702246D02*
X2062266D01*
X2062588Y1702098*
X2062695Y1701951*
X2062802Y1701656*
Y1701360*
X2062695Y1701065*
X2062588Y1700917*
X2062266Y1700770*
X2061299*
X2062051D02*
X2062802Y1699146D01*
X2063984Y1702246D02*
X2065165D01*
X2064520Y1701065*
X2064843*
X2065057Y1700917*
X2065165Y1700770*
X2065272Y1700327*
Y1700031*
X2065165Y1699589*
X2064950Y1699293*
X2064628Y1699146*
X2064306*
X2063984Y1699293*
X2063876Y1699441*
X2063769Y1699736*
X2066453Y1702246D02*
X2067634D01*
X2066990Y1701065*
X2067312*
X2067527Y1700917*
X2067634Y1700770*
X2067742Y1700327*
Y1700031*
X2067634Y1699589*
X2067419Y1699293*
X2067097Y1699146*
X2066775*
X2066453Y1699293*
X2066346Y1699441*
X2066238Y1699736*
X2070685Y1674144D02*
Y1671043D01*
Y1674144D02*
X2071651D01*
X2071974Y1673996*
X2072081Y1673848*
X2072188Y1673553*
Y1673258*
X2072081Y1672963*
X2071974Y1672815*
X2071651Y1672667*
X2070685*
X2071437D02*
X2072188Y1671043D01*
X2073369Y1674144D02*
X2074550D01*
X2073906Y1672963*
X2074228*
X2074443Y1672815*
X2074550Y1672667*
X2074658Y1672224*
Y1671929*
X2074550Y1671486*
X2074336Y1671191*
X2074014Y1671043*
X2073691*
X2073369Y1671191*
X2073262Y1671339*
X2073155Y1671634*
X2076698Y1674144D02*
X2075624Y1672077D01*
X2077235*
X2076698Y1674144D02*
Y1671043D01*
X2093646Y1661943D02*
Y1665043D01*
Y1661943D02*
X2092679D01*
X2092357Y1662091*
X2092250Y1662238*
X2092142Y1662533*
Y1662829*
X2092250Y1663124*
X2092357Y1663272*
X2092679Y1663419*
X2093646*
X2092894D02*
X2092142Y1665043D01*
X2090961Y1661943D02*
X2089780D01*
X2090424Y1663124*
X2090102*
X2089888Y1663272*
X2089780Y1663419*
X2089673Y1663862*
Y1664157*
X2089780Y1664600*
X2089995Y1664896*
X2090317Y1665043*
X2090639*
X2090961Y1664896*
X2091069Y1664748*
X2091176Y1664453*
X2087311Y1661943D02*
X2088384D01*
X2088492Y1663272*
X2088384Y1663124*
X2088062Y1662976*
X2087740*
X2087418Y1663124*
X2087203Y1663419*
X2087096Y1663862*
X2087203Y1664157*
X2087311Y1664600*
X2087525Y1664896*
X2087848Y1665043*
X2088170*
X2088492Y1664896*
X2088599Y1664748*
X2088707Y1664453*
X2219173Y1762482D02*
Y1759382D01*
Y1762482D02*
X2220140D01*
X2220462Y1762335*
X2220569Y1762187*
X2220676Y1761892*
Y1761596*
X2220569Y1761301*
X2220462Y1761154*
X2220140Y1761006*
X2219173*
X2219925D02*
X2220676Y1759382D01*
X2221858Y1762482D02*
X2223039D01*
X2222394Y1761301*
X2222717*
X2222931Y1761154*
X2223039Y1761006*
X2223146Y1760563*
Y1760268*
X2223039Y1759825*
X2222824Y1759530*
X2222502Y1759382*
X2222180*
X2221858Y1759530*
X2221750Y1759677*
X2221643Y1759972*
X2225616Y1762482D02*
X2224542Y1759382D01*
X2224112Y1762482D02*
X2225616D01*
X2209724D02*
Y1759382D01*
Y1762482D02*
X2210691D01*
X2211013Y1762335*
X2211120Y1762187*
X2211228Y1761892*
Y1761596*
X2211120Y1761301*
X2211013Y1761154*
X2210691Y1761006*
X2209724*
X2210476D02*
X2211228Y1759382D01*
X2212409Y1762482D02*
X2213590D01*
X2212946Y1761301*
X2213268*
X2213482Y1761154*
X2213590Y1761006*
X2213697Y1760563*
Y1760268*
X2213590Y1759825*
X2213375Y1759530*
X2213053Y1759382*
X2212731*
X2212409Y1759530*
X2212301Y1759677*
X2212194Y1759972*
X2215200Y1762482D02*
X2214878Y1762335D01*
X2214771Y1762039*
Y1761744*
X2214878Y1761449*
X2215093Y1761301*
X2215523Y1761154*
X2215845Y1761006*
X2216059Y1760711*
X2216167Y1760415*
Y1759972*
X2216059Y1759677*
X2215952Y1759530*
X2215630Y1759382*
X2215200*
X2214878Y1759530*
X2214771Y1759677*
X2214664Y1759972*
Y1760415*
X2214771Y1760711*
X2214986Y1761006*
X2215308Y1761154*
X2215737Y1761301*
X2215952Y1761449*
X2216059Y1761744*
Y1762039*
X2215952Y1762335*
X2215630Y1762482*
X2215200*
X2199882Y1748309D02*
Y1745209D01*
Y1748309D02*
X2200848D01*
X2201170Y1748161*
X2201278Y1748014*
X2201385Y1747719*
X2201385D02*
Y1747423D01*
X2201278Y1747128*
X2201170Y1746980*
X2200848Y1746833*
X2199882*
X2200634D02*
X2201385Y1745209D01*
X2202566Y1748309D02*
X2203747D01*
X2203103Y1747128*
X2203425*
X2203640Y1746980*
X2203747Y1746833*
X2203855Y1746390*
Y1746094*
X2203747Y1745652*
X2203533Y1745356*
X2203210Y1745209*
X2202888*
X2202566Y1745356*
X2202459Y1745504*
X2202351Y1745799*
X2206217Y1747276D02*
X2206110Y1746833D01*
X2205895Y1746537*
X2205573Y1746390*
X2205465*
X2205143Y1746537*
X2204928Y1746833*
X2204821Y1747276*
Y1747423*
X2204928Y1747866*
X2205143Y1748161*
X2205465Y1748309*
X2205573*
X2205895Y1748161*
X2206110Y1747866*
X2206217Y1747276*
Y1746537*
X2206110Y1745799*
X2205895Y1745356*
X2205573Y1745209*
X2205358*
X2205036Y1745356*
X2204928Y1745652*
X1967254Y1744421D02*
X1970354D01*
X1967254D02*
Y1745388D01*
X1967402Y1745710*
X1967549Y1745817*
X1967844Y1745924*
X1968140*
X1968435Y1745817*
X1968583Y1745710*
X1968730Y1745388*
Y1744421*
Y1745173D02*
X1970354Y1745924D01*
X1967254Y1747965D02*
X1969321Y1746891D01*
Y1748501*
X1967254Y1747965D02*
X1970354D01*
X2192402Y1757758D02*
Y1754657D01*
Y1757758D02*
X2193368D01*
X2193690Y1757610*
X2193797Y1757463*
X2193905Y1757167*
Y1756872*
X2193797Y1756577*
X2193690Y1756429*
X2193368Y1756281*
X2192402*
X2193153D02*
X2193905Y1754657D01*
X2195945Y1757758D02*
X2194871Y1755691D01*
X2196482*
X2195945Y1757758D02*
Y1754657D01*
X2198092Y1757758D02*
X2197770Y1757610D01*
X2197555Y1757167*
X2197448Y1756429*
Y1755986*
X2197555Y1755248*
X2197770Y1754805*
X2198092Y1754657*
X2198307*
X2198629Y1754805*
X2198844Y1755248*
X2198951Y1755986*
Y1756429*
X2198844Y1757167*
X2198629Y1757610*
X2198307Y1757758*
X2198092*
X2179016Y1733348D02*
Y1730248D01*
Y1733348D02*
X2179982D01*
X2180304Y1733201*
X2180412Y1733053*
X2180519Y1732758*
Y1732463*
X2180412Y1732167*
X2180304Y1732020*
X2179982Y1731872*
X2179016*
X2179767D02*
X2180519Y1730248D01*
X2182559Y1733348D02*
X2181485Y1731281D01*
X2183096*
X2182559Y1733348D02*
Y1730248D01*
X2184062Y1732758D02*
X2184277Y1732906D01*
X2184599Y1733348*
Y1730248*
X2016417Y1523112D02*
Y1520012D01*
Y1523112D02*
X2017384D01*
X2017706Y1522965*
X2017813Y1522817*
X2017921Y1522522*
Y1522226*
X2017813Y1521931*
X2017706Y1521783*
X2017384Y1521636*
X2016417*
X2017169D02*
X2017921Y1520012D01*
X2020283Y1523112D02*
X2019209D01*
X2019102Y1521783*
X2019209Y1521931*
X2019531Y1522079*
X2019853*
X2020175Y1521931*
X2020390Y1521636*
X2020497Y1521193*
X2020390Y1520898*
X2020283Y1520455*
X2020068Y1520159*
X2019746Y1520012*
X2019424*
X2019102Y1520159*
X2018994Y1520307*
X2018887Y1520602*
X2016417Y1511301D02*
Y1508201D01*
Y1511301D02*
X2017384D01*
X2017706Y1511154*
X2017813Y1511006*
X2017921Y1510711*
Y1510415*
X2017813Y1510120*
X2017706Y1509972*
X2017384Y1509825*
X2016417*
X2017169D02*
X2017921Y1508201D01*
X2020175Y1510858D02*
X2020068Y1511154D01*
X2019746Y1511301*
X2019531*
X2019209Y1511154*
X2018994Y1510711*
X2018887Y1509972*
Y1509234*
X2018994Y1508644*
X2019209Y1508348*
X2019531Y1508201*
X2019639*
X2019961Y1508348*
X2020175Y1508644*
X2020283Y1509087*
Y1509234*
X2020175Y1509677*
X2019961Y1509972*
X2019639Y1510120*
X2019531*
X2019209Y1509972*
X2018994Y1509677*
X2018887Y1509234*
X2016417Y1504215D02*
Y1501114D01*
Y1504215D02*
X2017384D01*
X2017706Y1504067*
X2017813Y1503919*
X2017921Y1503624*
Y1503329*
X2017813Y1503033*
X2017706Y1502886*
X2017384Y1502738*
X2016417*
X2017169D02*
X2017921Y1501114D01*
X2020390Y1504215D02*
X2019316Y1501114D01*
X2018887Y1504215D02*
X2020390D01*
X2016811Y1491222D02*
Y1488122D01*
Y1491222D02*
X2017777D01*
X2018100Y1491075*
X2018100D02*
X2018207Y1490927D01*
X2018314Y1490632*
Y1490337*
X2018207Y1490041*
X2018100Y1489894*
X2018100D02*
X2017777Y1489746D01*
X2016811*
X2017563D02*
X2018314Y1488122D01*
X2019817Y1491222D02*
X2019495Y1491075D01*
X2019388Y1490780*
Y1490484*
X2019495Y1490189*
X2019710Y1490041*
X2020140Y1489894*
X2020462Y1489746*
X2020676Y1489451*
X2020784Y1489156*
Y1488713*
X2020676Y1488417*
X2020569Y1488270*
X2020247Y1488122*
X2019817*
X2019495Y1488270*
X2019388Y1488417*
X2019281Y1488713*
Y1489156*
X2019388Y1489451*
X2019603Y1489746*
X2019925Y1489894*
X2020354Y1490041*
X2020569Y1490189*
X2020676Y1490484*
Y1490780*
X2020569Y1491075*
X2020247Y1491222*
X2019817*
X1794370Y1588860D02*
Y1585760D01*
Y1588860D02*
X1795336D01*
X1795659Y1588713*
X1795766Y1588565*
X1795873Y1588270*
Y1587974*
X1795766Y1587679*
X1795659Y1587531*
X1795336Y1587384*
X1794370*
X1795122D02*
X1795873Y1585760D01*
X1798236Y1587827D02*
X1798128Y1587384D01*
X1797913Y1587089*
X1797591Y1586941*
X1797484*
X1797162Y1587089*
X1796947Y1587384*
X1796840Y1587827*
Y1587974*
X1796947Y1588417*
X1797162Y1588713*
X1797484Y1588860*
X1797591*
X1797913Y1588713*
X1798128Y1588417*
X1798236Y1587827*
Y1587089*
X1798128Y1586350*
X1797913Y1585907*
X1797591Y1585760*
X1797377*
X1797054Y1585907*
X1796947Y1586203*
X1864019Y1498703D02*
Y1495602D01*
X1863268Y1498703D02*
X1864771D01*
X1865737D02*
Y1495602D01*
Y1498703D02*
X1866704D01*
X1867026Y1498555*
X1867133Y1498407*
X1867241Y1498112*
Y1497669*
X1867133Y1497374*
X1867026Y1497226*
X1866704Y1497079*
X1865737*
X1868207Y1498112D02*
X1868422Y1498260D01*
X1868744Y1498703*
Y1495602*
X2011722Y1683590D02*
Y1680489D01*
X2010970Y1683590D02*
X2012473D01*
X2013440D02*
Y1680489D01*
Y1683590D02*
X2014406D01*
X2014728Y1683442*
X2014835Y1683294*
X2014943Y1682999*
Y1682556*
X2014835Y1682261*
X2014728Y1682113*
X2014406Y1681966*
X2013440*
X2015909Y1682999D02*
X2016124Y1683147D01*
X2016446Y1683590*
Y1680489*
X2018057Y1683590D02*
X2017734Y1683442D01*
X2017520Y1682999*
X2017412Y1682261*
Y1681818*
X2017520Y1681080*
X2017734Y1680637*
X2018057Y1680489*
X2018271*
X2018593Y1680637*
X2018808Y1681080*
X2018916Y1681818*
Y1682261*
X2018808Y1682999*
X2018593Y1683442*
X2018271Y1683590*
X2018057*
X2012598Y1673747D02*
Y1670647D01*
X2011847Y1673747D02*
X2013350D01*
X2014316D02*
Y1670647D01*
Y1673747D02*
X2015283D01*
X2015605Y1673599*
X2015712Y1673452*
X2015820Y1673156*
Y1672714*
X2015712Y1672418*
X2015605Y1672271*
X2015283Y1672123*
X2014316*
X2016786Y1673156D02*
X2017001Y1673304D01*
X2017323Y1673747*
Y1670647*
X2018289Y1673156D02*
X2018504Y1673304D01*
X2018826Y1673747*
Y1670647*
X2011722Y1657999D02*
Y1654899D01*
X2010970Y1657999D02*
X2012473D01*
X2013440D02*
Y1654899D01*
Y1657999D02*
X2014406D01*
X2014728Y1657851*
X2014835Y1657704*
X2014943Y1657408*
Y1656966*
X2014835Y1656670*
X2014728Y1656523*
X2014406Y1656375*
X2013440*
X2015909Y1657408D02*
X2016124Y1657556D01*
X2016446Y1657999*
Y1654899*
X2017520Y1657261D02*
Y1657408D01*
X2017627Y1657704*
X2017734Y1657851*
X2017949Y1657999*
X2018379*
X2018593Y1657851*
X2018701Y1657704*
X2018808Y1657408*
Y1657113*
X2018701Y1656818*
X2018486Y1656375*
X2017412Y1654899*
X2018916*
X2011328Y1648550D02*
Y1645450D01*
X2010576Y1648550D02*
X2012079D01*
X2013046D02*
Y1645450D01*
Y1648550D02*
X2014012D01*
X2014334Y1648403*
X2014442Y1648255*
X2014549Y1647960*
Y1647517*
X2014442Y1647221*
X2014334Y1647074*
X2014012Y1646926*
X2013046*
X2015515Y1647960D02*
X2015730Y1648107D01*
X2016052Y1648550*
Y1645450*
X2017233Y1648550D02*
X2018414D01*
X2017770Y1647369*
X2018092*
X2018307Y1647221*
X2018414Y1647074*
X2018522Y1646631*
Y1646336*
X2018414Y1645893*
X2018200Y1645597*
X2017878Y1645450*
X2017555*
X2017233Y1645597*
X2017126Y1645745*
X2017019Y1646040*
X2010880Y1638314D02*
Y1635214D01*
X2010129Y1638314D02*
X2011632D01*
X2012598D02*
Y1635214D01*
Y1638314D02*
X2013565D01*
X2013887Y1638166*
X2013994Y1638019*
X2014102Y1637723*
Y1637281*
X2013994Y1636985*
X2013887Y1636838*
X2013565Y1636690*
X2012598*
X2015068Y1637723D02*
X2015283Y1637871D01*
X2015605Y1638314*
Y1635214*
X2017645Y1638314D02*
X2016571Y1636247D01*
X2018182*
X2017645Y1638314D02*
Y1635214D01*
X1991589Y1628078D02*
Y1624977D01*
X1990838Y1628078D02*
X1992341D01*
X1993307D02*
Y1624977D01*
Y1628078D02*
X1994273D01*
X1994596Y1627930*
X1994703Y1627782*
X1994810Y1627487*
Y1627044*
X1994703Y1626749*
X1994596Y1626601*
X1994273Y1626454*
X1993307*
X1995777Y1627487D02*
X1995991Y1627635D01*
X1996314Y1628078*
Y1624977*
X1998676Y1628078D02*
X1997602D01*
X1997495Y1626749*
X1997602Y1626897*
X1997924Y1627044*
X1998246*
X1998568Y1626897*
X1998783Y1626601*
X1998890Y1626158*
X1998783Y1625863*
X1998676Y1625420*
X1998461Y1625125*
X1998139Y1624977*
X1997817*
X1997495Y1625125*
X1997387Y1625273*
X1997280Y1625568*
X1991303Y1617842D02*
Y1614741D01*
X1990551Y1617842D02*
X1992054D01*
X1993021D02*
Y1614741D01*
Y1617842D02*
X1993987D01*
X1994309Y1617694*
X1994417Y1617546*
X1994524Y1617251*
Y1616808*
X1994417Y1616513*
X1994309Y1616365*
X1993987Y1616218*
X1993021*
X1995490Y1617251D02*
X1995705Y1617399D01*
X1996027Y1617842*
Y1614741*
X1998282Y1617399D02*
X1998175Y1617694D01*
X1997853Y1617842*
X1997638*
X1997316Y1617694*
X1997101Y1617251*
X1996994Y1616513*
Y1615775*
X1997101Y1615184*
X1997316Y1614889*
X1997638Y1614741*
X1997745*
X1998067Y1614889*
X1998282Y1615184*
X1998389Y1615627*
Y1615775*
X1998282Y1616218*
X1998067Y1616513*
X1997745Y1616660*
X1997638*
X1997316Y1616513*
X1997101Y1616218*
X1996994Y1615775*
X1990068Y1578471D02*
Y1575371D01*
X1989316Y1578471D02*
X1990820D01*
X1991786D02*
Y1575371D01*
Y1578471D02*
X1992752D01*
X1993074Y1578324*
X1993182Y1578176*
X1993289Y1577881*
Y1577438*
X1993182Y1577143*
X1993074Y1576995*
X1992752Y1576847*
X1991786*
X1994256Y1577881D02*
X1994470Y1578029D01*
X1994792Y1578471*
Y1575371*
X1996296Y1578471D02*
X1995974Y1578324D01*
X1995866Y1578029*
Y1577733*
X1995974Y1577438*
X1996188Y1577290*
X1996618Y1577143*
X1996940Y1576995*
X1997155Y1576700*
X1997262Y1576405*
Y1575962*
X1997155Y1575666*
X1997047Y1575519*
X1996725Y1575371*
X1996296*
X1995974Y1575519*
X1995866Y1575666*
X1995759Y1575962*
Y1576405*
X1995866Y1576700*
X1996081Y1576995*
X1996403Y1577143*
X1996833Y1577290*
X1996833D02*
X1997047Y1577438D01*
X1997155Y1577733*
Y1578029*
X1997047Y1578324*
X1996725Y1578471*
X1996296*
X1990515Y1568235D02*
Y1565135D01*
X1989764Y1568235D02*
X1991267D01*
X1992233D02*
Y1565135D01*
Y1568235D02*
X1993200D01*
X1993522Y1568088*
X1993629Y1567940*
X1993737Y1567645*
Y1567202*
X1993629Y1566906*
X1993522Y1566759*
X1993200Y1566611*
X1992233*
X1994703Y1567645D02*
X1994918Y1567792D01*
X1995240Y1568235*
Y1565135*
X1997602Y1567202D02*
X1997495Y1566759D01*
X1997280Y1566464*
X1996958Y1566316*
X1996850*
X1996528Y1566464*
X1996314Y1566759*
X1996206Y1567202*
Y1567349*
X1996314Y1567792*
X1996528Y1568088*
X1996850Y1568235*
X1996958*
X1997280Y1568088*
X1997495Y1567792*
X1997602Y1567202*
Y1566464*
X1997495Y1565725*
X1997280Y1565282*
X1996958Y1565135*
X1996743*
X1996421Y1565282*
X1996314Y1565578*
X2051775Y1556671D02*
Y1553571D01*
X2051024Y1556671D02*
X2052527D01*
X2053493D02*
Y1553571D01*
Y1556671D02*
X2054460D01*
X2054782Y1556524*
X2054889Y1556376*
X2054996Y1556081*
Y1555638*
X2054889Y1555343*
X2054782Y1555195*
X2054460Y1555047*
X2053493*
X2056070Y1555933D02*
Y1556081D01*
X2056178Y1556376*
X2056285Y1556524*
X2056500Y1556671*
X2056929*
X2057144Y1556524*
X2057251Y1556376*
X2057359Y1556081*
Y1555785*
X2057251Y1555490*
X2057037Y1555047*
X2055963Y1553571*
X2057466*
X2018404Y1719298D02*
Y1716198D01*
X2017652Y1719298D02*
X2019155D01*
X2020122D02*
Y1716198D01*
Y1719298D02*
X2021088D01*
X2021410Y1719151*
X2021518Y1719003*
X2021625Y1718708*
Y1718265*
X2021518Y1717969*
X2021410Y1717822*
X2021088Y1717674*
X2020122*
X2022699Y1718560D02*
Y1718708D01*
X2022806Y1719003*
X2022913Y1719151*
X2023128Y1719298*
X2023558*
X2023772Y1719151*
X2023880Y1719003*
X2023987Y1718708*
Y1718412*
X2023880Y1718117*
X2023665Y1717674*
X2022591Y1716198*
X2024094*
X2025705Y1719298D02*
X2025383Y1719151D01*
X2025168Y1718708*
X2025061Y1717969*
Y1717527*
X2025168Y1716788*
X2025383Y1716345*
X2025705Y1716198*
X2025920*
X2026242Y1716345*
X2026457Y1716788*
X2026564Y1717527*
Y1717969*
X2026457Y1718708*
X2026242Y1719151*
X2025920Y1719298*
X2025705*
X2179044Y1743826D02*
Y1740725D01*
X2178293Y1743826D02*
X2179796D01*
X2180762D02*
Y1740725D01*
Y1743826D02*
X2181729D01*
X2182051Y1743678*
X2182158Y1743531*
X2182266Y1743235*
Y1742792*
X2182158Y1742497*
X2182051Y1742349*
X2181729Y1742202*
X2180762*
X2183339Y1743088D02*
Y1743235D01*
X2183447Y1743531*
X2183554Y1743678*
X2183769Y1743826*
X2184198*
X2184413Y1743678*
X2184520Y1743531*
X2184628Y1743235*
Y1742940*
X2184520Y1742645*
X2184306Y1742202*
X2183232Y1740725*
X2184735*
X2185702Y1743235D02*
X2185916Y1743383D01*
X2186238Y1743826*
Y1740725*
X2178955Y1693826D02*
Y1690725D01*
X2178203Y1693826D02*
X2179707D01*
X2180673D02*
Y1690725D01*
Y1693826D02*
X2181639D01*
X2181961Y1693678*
X2182069Y1693531*
X2182176Y1693235*
Y1692792*
X2182069Y1692497*
X2181961Y1692349*
X2181639Y1692202*
X2180673*
X2183250Y1693088D02*
Y1693235D01*
X2183357Y1693531*
X2183465Y1693678*
X2183679Y1693826*
X2184109*
X2184324Y1693678*
X2184431Y1693531*
X2184538Y1693235*
Y1692940*
X2184431Y1692645*
X2184216Y1692202*
X2183142Y1690725*
X2184646*
X2185719Y1693088D02*
Y1693235D01*
X2185827Y1693531*
X2185934Y1693678*
X2186149Y1693826*
X2186578*
X2186793Y1693678*
X2186901Y1693531*
X2187008Y1693235*
Y1692940*
X2186901Y1692645*
X2186686Y1692202*
X2185612Y1690725*
X2187115*
X2178955Y1704062D02*
Y1700962D01*
X2178203Y1704062D02*
X2179707D01*
X2180673D02*
Y1700962D01*
Y1704062D02*
X2181639D01*
X2181961Y1703914*
X2182069Y1703767*
X2182176Y1703471*
Y1703029*
X2182069Y1702733*
X2181961Y1702586*
X2181639Y1702438*
X2180673*
X2183250Y1703324D02*
Y1703471D01*
X2183357Y1703767*
X2183465Y1703914*
X2183679Y1704062*
X2184109*
X2184324Y1703914*
X2184431Y1703767*
X2184538Y1703471*
Y1703176*
X2184431Y1702881*
X2184216Y1702438*
X2183142Y1700962*
X2184646*
X2185827Y1704062D02*
X2187008D01*
X2186364Y1702881*
X2186686*
X2186901Y1702733*
X2187008Y1702586*
X2187115Y1702143*
Y1701847*
X2187008Y1701405*
X2186793Y1701109*
X2186471Y1700962*
X2186149*
X2185827Y1701109*
X2185719Y1701257*
X2185612Y1701552*
X2178508Y1713905D02*
Y1710804D01*
X2177756Y1713905D02*
X2179259D01*
X2180225D02*
Y1710804D01*
Y1713905D02*
X2181192D01*
X2181514Y1713757*
X2181621Y1713609*
X2181729Y1713314*
Y1712871*
X2181621Y1712576*
X2181514Y1712428*
X2181192Y1712281*
X2180225*
X2182802Y1713166D02*
Y1713314D01*
X2182910Y1713609*
X2183017Y1713757*
X2183232Y1713905*
X2183661*
X2183876Y1713757*
X2183984Y1713609*
X2184091Y1713314*
Y1713019*
X2183984Y1712723*
X2183769Y1712281*
X2182695Y1710804*
X2184198*
X2186238Y1713905D02*
X2185165Y1711838D01*
X2186775*
X2186238Y1713905D02*
Y1710804D01*
X2178508Y1723747D02*
Y1720647D01*
X2177756Y1723747D02*
X2179259D01*
X2180225D02*
Y1720647D01*
Y1723747D02*
X2181192D01*
X2181514Y1723599*
X2181621Y1723452*
X2181729Y1723156*
Y1722714*
X2181621Y1722418*
X2181514Y1722271*
X2181192Y1722123*
X2180225*
X2182802Y1723009D02*
Y1723156D01*
X2182910Y1723452*
X2183017Y1723599*
X2183232Y1723747*
X2183661*
X2183876Y1723599*
X2183984Y1723452*
X2184091Y1723156*
Y1722861*
X2183984Y1722566*
X2183769Y1722123*
X2182695Y1720647*
X2184198*
X2186560Y1723747D02*
X2185487D01*
X2185379Y1722418*
X2185487Y1722566*
X2185809Y1722714*
X2186131*
X2186453Y1722566*
X2186668Y1722271*
X2186775Y1721828*
X2186668Y1721532*
X2186560Y1721090*
X2186346Y1720794*
X2186024Y1720647*
X2185702*
X2185379Y1720794*
X2185272Y1720942*
X2185165Y1721237*
X2200268Y1733983D02*
Y1730883D01*
X2199517Y1733983D02*
X2201020D01*
X2201986D02*
Y1730883D01*
Y1733983D02*
X2202953D01*
X2203275Y1733836*
X2203382Y1733688*
X2203490Y1733393*
Y1732950*
X2203382Y1732655*
X2203275Y1732507*
X2202953Y1732359*
X2201986*
X2204563Y1733245D02*
Y1733393D01*
X2204671Y1733688*
X2204778Y1733836*
X2204993Y1733983*
X2205422*
X2205637Y1733836*
X2205744Y1733688*
X2205852Y1733393*
Y1733097*
X2205744Y1732802*
X2205530Y1732359*
X2204456Y1730883*
X2205959*
X2208214Y1733540D02*
X2208107Y1733836D01*
X2207785Y1733983*
X2207570*
X2207248Y1733836*
X2207033Y1733393*
X2206926Y1732655*
Y1731916*
X2207033Y1731326*
X2207248Y1731031*
X2207570Y1730883*
X2207677*
X2207999Y1731031*
X2208214Y1731326*
X2208321Y1731769*
Y1731916*
X2208214Y1732359*
X2207999Y1732655*
X2207677Y1732802*
X2207570*
X2207248Y1732655*
X2207033Y1732359*
X2206926Y1731916*
X2012026Y1587920D02*
Y1584820D01*
X2011274Y1587920D02*
X2012777D01*
X2013744D02*
Y1584820D01*
Y1587920D02*
X2014710D01*
X2015032Y1587773*
X2015140Y1587625*
X2015247Y1587330*
Y1586887*
X2015140Y1586592*
X2015032Y1586444*
X2014710Y1586296*
X2013744*
X2016321Y1587182D02*
Y1587330D01*
X2016428Y1587625*
X2016535Y1587773*
X2016750Y1587920*
X2017180*
X2017394Y1587773*
X2017502Y1587625*
X2017609Y1587330*
Y1587034*
X2017502Y1586739*
X2017287Y1586296*
X2016213Y1584820*
X2017717*
X2019220Y1587920D02*
X2018898Y1587773D01*
X2018790Y1587477*
Y1587182*
X2018898Y1586887*
X2019112Y1586739*
X2019542Y1586592*
X2019864Y1586444*
X2020079Y1586149*
X2020186Y1585853*
Y1585410*
X2020079Y1585115*
X2019971Y1584968*
X2019649Y1584820*
X2019220*
X2018898Y1584968*
X2018790Y1585115*
X2018683Y1585410*
Y1585853*
X2018790Y1586149*
X2019005Y1586444*
X2019327Y1586592*
X2019757Y1586739*
X2019971Y1586887*
X2020079Y1587182*
Y1587477*
X2019971Y1587773*
X2019649Y1587920*
X2019220*
X2121303Y1679545D02*
Y1676445D01*
X2120551Y1679545D02*
X2122054D01*
X2123021D02*
Y1676445D01*
Y1679545D02*
X2123987D01*
X2124309Y1679398*
X2124417Y1679250*
X2124524Y1678955*
Y1678512*
X2124417Y1678217*
X2124309Y1678069*
X2123987Y1677921*
X2123021*
X2125705Y1679545D02*
X2126886D01*
X2126242Y1678364*
X2126564*
X2126779Y1678217*
X2126886Y1678069*
X2126994Y1677626*
Y1677331*
X2126886Y1676888*
X2126671Y1676593*
X2126349Y1676445*
X2126027*
X2125705Y1676593*
X2125598Y1676740*
X2125490Y1677035*
X2011317Y1733078D02*
Y1729977D01*
X2010566Y1733078D02*
X2012069D01*
X2013035D02*
Y1729977D01*
Y1733078D02*
X2014001D01*
X2014324Y1732930*
X2014431Y1732782*
X2014538Y1732487*
Y1732044*
X2014431Y1731749*
X2014324Y1731601*
X2014001Y1731454*
X2013035*
X2016578Y1733078D02*
X2015505Y1731011D01*
X2017115*
X2016578Y1733078D02*
Y1729977D01*
X2011317Y1742920D02*
Y1739820D01*
X2010566Y1742920D02*
X2012069D01*
X2013035D02*
Y1739820D01*
Y1742920D02*
X2014001D01*
X2014324Y1742773*
X2014431Y1742625*
X2014538Y1742330*
Y1741887*
X2014431Y1741592*
X2014324Y1741444*
X2014001Y1741296*
X2013035*
X2016901Y1742920D02*
X2015827D01*
X2015719Y1741592*
X2015827Y1741739*
X2016149Y1741887*
X2016471*
X2016793Y1741739*
X2017008Y1741444*
X2017115Y1741001*
X2017008Y1740706*
X2016901Y1740263*
X2016686Y1739968*
X2016364Y1739820*
X2016042*
X2015719Y1739968*
X2015612Y1740115*
X2015505Y1740410*
X2012133Y1723747D02*
Y1720647D01*
X2011382Y1723747D02*
X2012885D01*
X2013851D02*
Y1720647D01*
Y1723747D02*
X2014817D01*
X2015140Y1723599*
X2015247Y1723452*
X2015354Y1723156*
Y1722714*
X2015247Y1722418*
X2015140Y1722271*
X2014817Y1722123*
X2013851*
X2017609Y1723304D02*
X2017502Y1723599D01*
X2017180Y1723747*
X2016965*
X2016643Y1723599*
X2016428Y1723156*
X2016321Y1722418*
Y1721680*
X2016428Y1721090*
X2016643Y1720794*
X2016965Y1720647*
X2017072*
X2017394Y1720794*
X2017609Y1721090*
X2017717Y1721532*
Y1721680*
X2017609Y1722123*
X2017394Y1722418*
X2017072Y1722566*
X2016965*
X2016643Y1722418*
X2016428Y1722123*
X2016321Y1721680*
X1992394Y1713905D02*
Y1710804D01*
X1991643Y1713905D02*
X1993146D01*
X1994112D02*
Y1710804D01*
Y1713905D02*
X1995079D01*
X1995401Y1713757*
X1995508Y1713609*
X1995616Y1713314*
Y1712871*
X1995508Y1712576*
X1995401Y1712428*
X1995079Y1712281*
X1994112*
X1998085Y1713905D02*
X1997011Y1710804D01*
X1996582Y1713905D02*
X1998085D01*
X2012867Y1703668D02*
Y1700568D01*
X2012115Y1703668D02*
X2013618D01*
X2014585D02*
Y1700568D01*
Y1703668D02*
X2015551D01*
X2015873Y1703521*
X2015981Y1703373*
X2016088Y1703078*
Y1702635*
X2015981Y1702340*
X2015873Y1702192*
X2015551Y1702044*
X2014585*
X2017591Y1703668D02*
X2017269Y1703521D01*
X2017162Y1703225*
Y1702930*
X2017269Y1702635*
X2017484Y1702487*
X2017913Y1702340*
X2018236Y1702192*
X2018450Y1701897*
X2018558Y1701601*
Y1701158*
X2018450Y1700863*
X2018343Y1700716*
X2018021Y1700568*
X2017591*
X2017269Y1700716*
X2017162Y1700863*
X2017054Y1701158*
Y1701601*
X2017162Y1701897*
X2017377Y1702192*
X2017699Y1702340*
X2018128Y1702487*
X2018343Y1702635*
X2018450Y1702930*
Y1703225*
X2018343Y1703521*
X2018021Y1703668*
X2017591*
X2012527Y1693826D02*
Y1690725D01*
X2011775Y1693826D02*
X2013278D01*
X2014245D02*
Y1690725D01*
Y1693826D02*
X2015211D01*
X2015533Y1693678*
X2015641Y1693531*
X2015748Y1693235*
Y1692792*
X2015641Y1692497*
X2015533Y1692349*
X2015211Y1692202*
X2014245*
X2018110Y1692792D02*
X2018003Y1692349D01*
X2017788Y1692054*
X2017466Y1691906*
X2017359*
X2017037Y1692054*
X2016822Y1692349*
X2016714Y1692792*
Y1692940*
X2016822Y1693383*
X2017037Y1693678*
X2017359Y1693826*
X2017466*
X2017788Y1693678*
X2018003Y1693383*
X2018110Y1692792*
Y1692054*
X2018003Y1691316*
X2017788Y1690873*
X2017466Y1690725*
X2017251*
X2016929Y1690873*
X2016822Y1691168*
X1893874Y1735644D02*
Y1733429D01*
X1893981Y1732986*
X1894196Y1732691*
X1894518Y1732543*
X1894733*
X1895055Y1732691*
X1895270Y1732986*
X1895377Y1733429*
Y1735644*
X1896344Y1735053D02*
X1896558Y1735201D01*
X1896880Y1735644*
Y1732543*
X1965630Y1590435D02*
Y1588220D01*
X1965737Y1587778*
X1965952Y1587482*
X1966274Y1587335*
X1966489*
X1966811Y1587482*
X1967026Y1587778*
X1967133Y1588220*
Y1590435*
X1968207Y1589697D02*
Y1589844D01*
X1968314Y1590140*
X1968422Y1590287*
X1968636Y1590435*
X1969066*
X1969281Y1590287*
X1969388Y1590140*
X1969495Y1589844*
Y1589549*
X1969388Y1589254*
X1969173Y1588811*
X1968100Y1587335*
X1968100D02*
X1969603D01*
X2025079Y1735711D02*
Y1733496D01*
X2025186Y1733053*
X2025401Y1732758*
X2025723Y1732610*
X2025938*
X2026260Y1732758*
X2026475Y1733053*
X2026582Y1733496*
Y1735711*
X2028622D02*
X2027548Y1733644D01*
X2029159*
X2028622Y1735711D02*
Y1732610D01*
X2036102Y1587778D02*
Y1589992D01*
X2035995Y1590435*
X2035780Y1590730*
X2035458Y1590878*
X2035243*
X2034921Y1590730*
X2034707Y1590435*
X2034599Y1589992*
Y1587778*
X2032237D02*
X2033311D01*
X2033418Y1589106*
X2033311Y1588959*
X2032989Y1588811*
X2032666*
X2032344Y1588959*
X2032130Y1589254*
X2032022Y1589697*
X2032130Y1589992*
X2032237Y1590435*
X2032452Y1590730*
X2032774Y1590878*
X2033096*
X2033418Y1590730*
X2033525Y1590583*
X2033633Y1590287*
X2210118Y1590041D02*
Y1587827D01*
X2210225Y1587384*
X2210440Y1587089*
X2210762Y1586941*
X2210977*
X2211299Y1587089*
X2211514Y1587384*
X2211621Y1587827*
Y1590041*
X2213125D02*
X2212802Y1589894D01*
X2212695Y1589598*
Y1589303*
X2212802Y1589008*
X2213017Y1588860*
X2213447Y1588713*
X2213769Y1588565*
X2213984Y1588270*
X2214091Y1587974*
Y1587531*
X2213984Y1587236*
X2213876Y1587089*
X2213554Y1586941*
X2213125*
X2212802Y1587089*
X2212695Y1587236*
X2212588Y1587531*
Y1587974*
X2212695Y1588270*
X2212910Y1588565*
X2213232Y1588713*
X2213661Y1588860*
X2213876Y1589008*
X2213984Y1589303*
Y1589598*
X2213876Y1589894*
X2213554Y1590041*
X2213125*
X2216310Y1498703D02*
Y1496341D01*
X2216203Y1495898*
X2216095Y1495750*
X2215880Y1495602*
X2215666*
X2215451Y1495750*
X2215344Y1495898*
X2215236Y1496341*
Y1496636*
X2217276Y1498112D02*
X2217491Y1498260D01*
X2217813Y1498703*
Y1495602*
X2219316Y1498703D02*
X2218994Y1498555D01*
X2218887Y1498260*
Y1497965*
X2218994Y1497669*
X2219209Y1497522*
X2219639Y1497374*
X2219961Y1497226*
X2220175Y1496931*
X2220283Y1496636*
Y1496193*
X2220175Y1495898*
X2220068Y1495750*
X2219746Y1495602*
X2219316*
X2218994Y1495750*
X2218887Y1495898*
X2218780Y1496193*
Y1496636*
X2218887Y1496931*
X2219102Y1497226*
X2219424Y1497374*
X2219853Y1497522*
X2220068Y1497669*
X2220175Y1497965*
Y1498260*
X2220068Y1498555*
X2219746Y1498703*
X2219316*
X2216310Y1502640D02*
Y1500278D01*
X2216203Y1499835*
X2216095Y1499687*
X2215880Y1499539*
X2215666*
X2215451Y1499687*
X2215344Y1499835*
X2215236Y1500278*
Y1500573*
X2217276Y1502049D02*
X2217491Y1502197D01*
X2217813Y1502640*
Y1499539*
X2220175Y1501606D02*
X2220068Y1501163D01*
X2219853Y1500868*
X2219531Y1500720*
X2219424*
X2219102Y1500868*
X2218887Y1501163*
X2218780Y1501606*
Y1501754*
X2218887Y1502197*
X2219102Y1502492*
X2219424Y1502640*
X2219531*
X2219853Y1502492*
X2220068Y1502197*
X2220175Y1501606*
Y1500868*
X2220068Y1500130*
X2219853Y1499687*
X2219531Y1499539*
X2219316*
X2218994Y1499687*
X2218887Y1499982*
X2011192Y1761695D02*
Y1759333D01*
X2011084Y1758890*
X2010977Y1758742*
X2010762Y1758594*
X2010548*
X2010333Y1758742*
X2010225Y1758890*
X2010118Y1759333*
Y1759628*
X2012373Y1761695D02*
X2013554D01*
X2012910Y1760514*
X2013232*
X2013447Y1760366*
X2013554Y1760219*
X2013554D02*
X2013661Y1759776D01*
Y1759480*
X2013554Y1759037*
X2013339Y1758742*
X2013017Y1758594*
X2012695*
X2012373Y1758742*
X2012266Y1758890*
X2012158Y1759185*
X2014628Y1761104D02*
X2014843Y1761252D01*
X2015165Y1761695*
Y1758594*
X2011192Y1756970D02*
Y1754608D01*
X2011084Y1754165*
X2010977Y1754018*
X2010762Y1753870*
X2010548*
X2010333Y1754018*
X2010225Y1754165*
X2010118Y1754608*
Y1754904*
X2012373Y1756970D02*
X2013554D01*
X2012910Y1755789*
X2013232*
X2013447Y1755642*
X2013554Y1755494*
X2013661Y1755051*
Y1754756*
X2013554Y1754313*
X2013339Y1754018*
X2013017Y1753870*
X2012695*
X2012373Y1754018*
X2012266Y1754165*
X2012158Y1754461*
X2014735Y1756232D02*
Y1756380D01*
X2014843Y1756675*
X2014950Y1756823*
X2015165Y1756970*
X2015594*
X2015809Y1756823*
X2015916Y1756675*
X2016024Y1756380*
Y1756085*
X2015916Y1755789*
X2015702Y1755346*
X2014628Y1753870*
X2016131*
X1892008Y1763270D02*
Y1761055D01*
X1892115Y1760612*
X1892330Y1760317*
X1892652Y1760169*
X1892867*
X1893189Y1760317*
X1893404Y1760612*
X1893511Y1761055*
Y1763270*
X1894692D02*
X1895873D01*
X1895229Y1762089*
X1895551*
X1895766Y1761941*
X1895873Y1761793*
X1895981Y1761350*
Y1761055*
X1895873Y1760612*
X1895659Y1760317*
X1895336Y1760169*
X1895014*
X1894692Y1760317*
X1894585Y1760465*
X1894477Y1760760*
G74*
X0Y0D02*
M02*
